<?xml version="1.0" encoding="utf-8" ?>
<svg baseProfile="full" height="300mm" version="1.1" viewBox="0,0,200,300" width="200mm" xmlns="http://www.w3.org/2000/svg" xmlns:ev="http://www.w3.org/2001/xml-events" xmlns:xlink="http://www.w3.org/1999/xlink"><defs /><rect fill="#222222" height="300" width="200" x="0" y="0" /><text fill="#FFFFFF" style="font-size:12px; font-family:Arial; font-weight:bold;" x="10" y="20">Over 10km Runs</text><text fill="#FFFFFF" style="font-size:4px; font-family:Arial" x="10" y="280">Runner</text><text fill="#FFFFFF" style="font-size:9px; font-family:Arial" x="10" y="290">Monkey</text><text fill="#FFFFFF" style="font-size:4px; font-family:Arial" x="65" y="280">SPECIAL TRACKS</text><rect fill="yellow" height="2.6" width="2.6" x="65" y="283" /><text fill="#FFFFFF" style="font-size:3px; font-family:Arial" x="70" y="285.5">Over 20.0 km</text><rect fill="red" height="2.6" width="2.6" x="65" y="287" /><text fill="#FFFFFF" style="font-size:3px; font-family:Arial" x="70" y="289.5">Over 40.0 km</text><text fill="#FFFFFF" style="font-size:4px; font-family:Arial" x="120" y="280">STATISTICS</text><text fill="#FFFFFF" style="font-size:3px; font-family:Arial" x="120" y="285">Number: 9</text><text fill="#FFFFFF" style="font-size:3px; font-family:Arial" x="120" y="290">Weekly: 1.1</text><text fill="#FFFFFF" style="font-size:3px; font-family:Arial" x="141" y="285">Total: 190.9 km</text><text fill="#FFFFFF" style="font-size:3px; font-family:Arial" x="141" y="290">Avg: 21.2 km</text><text fill="#FFFFFF" style="font-size:3px; font-family:Arial" x="167" y="285">Min: 10.0 km</text><text fill="#FFFFFF" style="font-size:3px; font-family:Arial" x="167" y="290">Max: 42.8 km</text><polyline fill="none" points="13.0,83.29521048567403 13.099447513814084,82.9132306465981 13.366147664521122,82.53634132817024 13.619286790577462,82.65348287344386 13.791059768991545,82.60764490654037 13.980914113519248,82.93869604994325 14.23857358112582,83.1322327384587 14.4103465595108,83.00490604467996 14.65896534404601,83.08639516191761 14.979909593181219,82.96416144175964 15.278252134594368,83.07111596142568 16.07835258662817,82.56690001568131 16.426418884977465,82.03721374712404 16.643395278748358,82.24093982570412 16.56654947262723,82.41919953879915 16.738322451041313,82.887765231706 17.285283776989672,82.38354764139876 17.52486187845352,82.27659181353738 17.714716223010328,82.36317511844754 17.701155198388733,82.10342480364852 18.334003013558686,81.73671643349735 18.38824711201596,81.42093786441546 18.6413862380723,81.16118319553789 19.01205424411455,81.12553050022689 19.066298342571827,81.01857227865548 19.26519337017089,81.03894528892488 19.83023606229108,80.80465522490704 20.25062782524037,80.8301215835163 21.028126569581218,80.56017759515817 21.48468106481596,80.50415132190392 21.941235560021596,80.61111052237538 23.369663485704223,79.97444561471639 24.27825213462347,79.92860546303564 24.639879457565257,79.76052458703634 25.001506780536147,79.89295198588297 25.72024108489859,79.80636487580341 26.005022601719247,79.95916556830707 26.14967353089014,80.31569890202445 26.289804118539905,80.44303168738043 26.55650426921784,80.47359151294586 27.3068809643446,81.3343531081664 28.03465595180751,81.57882737070395 28.486690105462912,81.8080210261578 28.59065796082723,81.97100261261949 29.029131089919247,82.22566039540834 29.092415871447884,82.41919953879915 29.3274736313615,82.44975828999304 29.53992968358216,82.70441390395717 29.652938222017838,83.14241886149102 30.276745354087325,83.58551342755527 30.679055750893895,83.62625758013746 31.16273229534272,83.3868852608648 31.221496735321125,83.45309472772715 31.732295328984037,83.34614093478376 32.672526368667604,83.49383897627922 32.86238071322441,83.44290866097799 33.10647915620939,83.53967622060372 33.40030135613051,83.1933494490404 34.0241084882,82.98962682205456 34.381215469620656,82.48031702457956 34.788046207948355,82.2918712299761 35.21295831241878,82.34280258811486 35.542943244596245,82.55671378835177 36.06278252135962,82.52106197817557 36.49221496738028,82.77571726914175 36.9758915118,82.78590345678822 37.26067302862066,82.89285831560119 37.83023606229108,82.82664818889316 37.821195379219716,82.75025179196018 37.983927674533334,82.79608964257568 38.27322953293333,82.94888220806024 39.12305374184507,82.63820355530333 39.679055750893895,82.7196932041079 40.226017076842254,82.42938579102702 40.98543445504038,82.27659181353738 41.713209442503285,81.96590944518539 41.94374686089577,81.96081627729654 42.083877448545536,82.11361111311635 42.2827724761446,81.75708918348028 42.49974886991549,81.72143686615163 42.635359116015024,81.51261569625422 42.802611752878875,81.51770890473927 43.05123053744319,81.19683586822066 43.34957307888544,81.18664939261726 43.498744349577464,80.64167025656207 43.94625816174084,80.63657696867449 43.941737820219714,80.31569890202445 44.51582119538216,79.96935226636924 44.55650426921784,79.77580468744782 44.85032646910986,79.49057546153563 44.818684078374645,79.19006453258044 45.13962832748075,79.0627289085096 45.16223003517371,78.82333715421555 45.33852335510892,78.60431827299544 45.75439477650798,78.5279161368926 46.057257659500465,78.74184185625927 46.5138121547061,78.57375743102602 46.947764942247886,78.58903785408984 47.5308890005108,78.17646497293754 48.145655449538026,78.28852210446348 48.41235560021596,78.16118443769665 48.75590155701502,77.6823922285912 49.28478151682066,77.43790101651393 49.70969362129108,77.42262028044206 50.265695630339906,77.12719189964628 50.91210447013145,77.09663025435657 51.214967353094835,76.8979791548918 51.508789552986855,76.4955811859727 51.996986438985914,76.54142413800218 52.06479156203568,76.34277107576054 52.31341034657089,76.24599112434589 52.71120040182723,75.75190140624909 53.122551481676055,75.58890178328875 53.54294324462535,74.87577287296881 53.92717227526009,74.0607573206762 54.18483174286666,73.8162503494932 54.248116524366196,73.5819301702686 54.609743847337086,73.33232716521525 54.56002009040094,72.86877578507483 54.67754897038685,72.70067379010652 54.60070316423662,72.54275933661484 54.75439477650798,72.53257129211124 54.695630336529575,72.20655289251954 54.83124058262911,72.02826077994177 55.17478653942817,71.93656747313071 55.34655951784225,71.69714535527964 55.43244600703474,71.69205125658846 55.4414866901061,71.8856266824514 55.19286790557089,72.29824575862949 55.450527373177465,71.8601562697877 55.5273731793277,71.12660342924937 55.690105474641314,70.70888155880675 55.563535911613144,69.62890330055598 55.41888498244225,69.29777373167235 55.5138121547061,69.0583403656965 55.436966348584974,68.91060437535998 55.36916122553521,68.9360761255557 55.983927674533334,68.340034143308 55.95680562531925,68.10059669426482 56.200904068304226,67.75417474830465 56.16474133601878,67.33133330061901 56.33651431443286,67.19887628865035 56.232546459068544,66.80659792043298 56.558011049753986,66.2309117172008 56.426921145175584,66.17487115210315 56.53992968358216,66.14939814948593 56.616775489703286,66.29204681534247 56.5308890005108,66.15449275093852 56.53992968358216,66.27166845668398 56.53540934206103,66.15449275093852 56.62129583125352,65.89976211226895 56.481165243603755,65.76220708689289 55.866398794576526,65.64503031803542 55.42792566551361,65.33935063956596 55.436966348584974,65.17632079728355 55.13862380714272,64.9164910077634 54.91260673030047,64.37644877508865 54.92616775489296,64.25926911428178 55.1069814163784,64.23379524260235 55.156705173285445,64.10133092360047 54.87192365646479,63.923013077601354 54.95781014568638,63.80583247042523 54.88548468105728,63.67846196784376 54.157709693623474,63.24030523223337 54.234555499773705,62.84799920698788 54.582621798093896,62.4455005657328 54.709191361122066,62.2213228561086 54.58714213964413,62.12961353506398 54.695630336529575,61.76277475266397 54.374686087394366,61.42140873244716 54.12606730288826,61.395933573076036 54.09442491212394,61.23289227931309 54.31140130589483,61.32969810460054 54.80863887493615,61.18703683013882 54.98041185335023,61.19213188188951 55.26519337017089,61.43669382251392 55.572576594684506,61.513119210467266 55.771471622312674,61.89524458950473 56.06981416375493,62.022619137820584 56.16474133601878,61.95638440876064 56.46308387746103,62.00223922951045 57.39427423407324,62.486260053134174 57.557006529386854,62.420025871088 57.665494726301404,61.76786975216601 57.814665996993426,61.74239475002105 58.01808136617183,61.89014960154964 58.226017076842254,61.67615969033068 58.094927172292955,61.58954449436351 58.21245605224976,61.64558963642048 58.74585635360563,62.14999339713904 59.211451531911734,62.022619137820584 59.24309392264695,62.11942360125249 59.20241084884037,62.00223922951045 59.0758412857831,62.078663847525604 59.17528879959718,62.27736736742736 59.52335509794648,62.297747175874974 59.87142139629577,62.11942360125249 60.26469111000188,61.99714425127968 60.621798091422534,61.7372997482089 60.84329482674366,61.84938968134884 61.467101958813146,61.71182473218141 61.65243596181972,61.879959624275216 61.79708689101972,61.885054613150714 61.968859869404696,61.472359016504925 62.484178804646945,61.28893777747362 62.75087895532488,60.901713193517935 62.8412857860385,60.40239333968566 62.99497739830986,60.32087130911168 62.863887493731454,59.99478200284648 62.96785534906667,59.67378599175936 62.80512305375305,59.342597707018285 62.91813159218873,58.87383556357236 63.14414866903098,58.761739688365196 63.279758915130515,58.4713084247669 63.18483174283756,57.895536739815725 63.50125565045164,56.97327067035076 63.68658965342911,56.68283015130146 64.14314414869295,56.331242248616036 64.32847815169953,55.638250947216875 64.51833249625633,55.43952392153005 64.49121044701315,55.245891783626575 64.77599196386291,55.052258977560996 65.25062782524037,54.17580739291225 65.42240080365445,54.033127932212665 65.96032144653145,53.88025667886177 66.24058262180188,53.50826822248564 66.24058262180188,53.21780976786249 65.98744349574554,52.88148757338422 66.04620793572394,52.68784660747406 66.16825715723098,52.63688834745699 66.09593169260188,51.826645794528304 66.21798091413802,51.55146641641841 66.20441988951643,51.04696738408529 66.48468106478686,50.4252552651451 66.64741336012958,50.37429494985554 66.78302360622911,50.00228324568161 66.9276745354291,50.01247538003736 67.0,49.22257947770777 66.99547965847887,48.67219382175972 66.83274736313615,48.49892314565295 66.90959316925728,48.1167065262307 66.7378201908723,47.92304911155588 66.70617780010798,47.58159888311275 66.53892516324413,47.39303592567376 66.23606228028075,47.46948044427336 66.01456554495962,47.235050257018884 65.47664490208263,46.94455931772245 65.3997990959615,46.62348863421721 65.26418884983286,46.62858500862421 65.02461074836901,46.429826063354994 64.87543947764789,46.12404169509682 64.61778001004132,45.45131021574707 64.44600703165634,45.22706459587425 64.24711200402817,45.150617020492064 64.15670517328545,44.91108060942133 64.37820190860657,44.36065263875571 64.3962832747493,43.647126857173134 64.74886991461972,42.90810843958752 65.3139126067399,42.66856244831433 65.68910095430329,42.09262853617838 65.66649924663943,41.90914392328341 65.5173279759183,41.873466289918724 65.23254645906854,41.37907389049724 65.29131089907605,40.74196385358664 65.13309894525446,40.104846575930424 65.25062782524037,40.12523444096223 65.30035158211831,40.00290713952927 65.28227021600469,39.360684427399974 65.40883977903286,39.18228792376249 65.49472626822535,38.34126818761433 65.9829231541953,37.77038699482 66.06428930186667,37.27086118122679 66.15017579105916,37.34731950248897 66.11401305877371,37.06697181461277 65.15570065294742,36.81720632966608 64.83023606229108,37.112846986776276 64.3962832747493,37.1638193562394 64.02561526870704,37.36261115422167 63.48317428427981,37.31163896555154 63.25715720746666,37.413583296551224 62.89100954294554,37.28615285381966 62.75539929684601,37.38809723117447 62.39377197390422,37.332027846583514 61.901054746384034,37.55630504842338 61.792566549469484,37.4186805082245 61.34505273733521,37.55630504842338 61.006027122057276,37.51043023923921 60.829733802122064,37.40338887179314 60.8206931190507,37.168916590628214 60.76644902059343,37.301444522254315 60.418382722273236,37.38809723117447 60.54947262685164,37.1383331772995 59.98895027625258,37.357513937451586 59.72677046712488,37.52062464452683 59.826217980938964,37.55630504842338 59.77649422403192,37.64295736333588 59.51883475642535,37.765289815117285 59.297338021104224,37.60727701459473 59.2792566549615,37.74490109170438 58.98091411351925,37.979370963301335 58.754897036676994,37.84174746190547 58.6825715721061,37.93349650037271 58.24861878453521,37.91310783814697 58.24861878453521,37.72451236086272 58.16273229534272,37.71941517700179 58.23957810146385,37.59198542960803 57.900552486185916,37.34731950248897 57.78302360622911,37.71941517700179 57.638372677058214,37.806067239718686 57.54344550476526,37.979370963301335 57.32646911102347,37.81116441571794 57.26770467101596,37.882524830882176 57.02812656958122,37.6276657880735 56.761426418903284,37.63276298029814 56.643897538946476,37.24027782352641 56.22350577599718,37.2555695044648 56.40431943748263,36.97012410562456 56.151180311397184,37.0414855916315 56.00200904070516,36.82230359557434 55.28779507786385,36.37374241986254" stroke="#ff2f00" stroke-linecap="round" stroke-linejoin="round" stroke-width="0.5"><title>2024-07-13 36.8km</title><desc>11882681736</desc></polyline><polyline fill="none" points="113.80972211707558,70.93676726850026 114.680623911554,70.93676726850026 115.60876807752356,70.8810328373329 116.12803816157975,70.86076575205152 116.74543802530388,70.85063220550728 117.53865374422458,70.7898308719632 117.71855834026064,70.79489765332619 119.41538578025938,70.66316112774439 120.80555765880854,70.37941943280748 121.52926478382142,70.26288207724429 121.99946997805091,70.13114378475802 122.6250473233813,69.86766588715182 122.69864465814317,69.91833484952076 122.75588702960522,70.0044719370344 122.81312940106727,70.17167869057812 123.0012114787678,70.46048869561128 123.1075187400711,70.74422981065072 123.43870674642676,71.30663923651082 123.95388808964344,71.98050669629447 124.28916483682406,72.33010259788716 124.47724691451003,72.36556867663967 124.62035284317972,72.33010259788716 124.82478988415096,72.15783833575915 125.33997122736764,71.65624107687472 125.90830620125053,71.22050497667078 126.17407435452333,71.08370312075203 126.28447035663703,71.08876986456016 126.33353524646373,71.18503787414375 126.38260013629042,71.92984036798953 126.43575376692752,72.23890396406205 126.53388354661001,72.26423693892866 126.86098281215527,72.1831713624124 126.96729007345857,72.11223884704305 127.0,72.03117295989432 126.85689407131576,70.3540852542028 126.8855152570759,70.18181241056664 126.81191792231402,69.79166232220814 126.783296736583,69.17349458473473 126.39077761792578,67.98780163445554 126.29673657908279,67.8509886284628 126.01052472174342,66.99969709781362 125.92874990536075,66.92368803683712 125.65480427046714,66.81727510675046 125.15597789050662,66.66525613989506 124.8656772923423,66.61965033619344 124.387294616492,66.63485227658748 124.0193079427554,66.72099649538723 122.99712273794285,67.05036972419111 122.54736124782357,67.11624404169925 121.66419323085574,67.16184927434006 121.1326569243538,67.32400078789215 120.80555765880854,67.38480743456603 120.34761868705391,67.37467299993295 119.39085333533876,67.13651304045925 118.54039524495602,67.03516794307507 118.24600590596674,67.03516794307507 118.05792382826621,67.11624404169925 117.82077686075354,67.39494186661614 117.68993715452962,67.43041235838609 117.31377299917222,67.405076296076 117.0888922541053,67.35947134311209 116.38562883317354,66.98449529726713 116.23843416369346,66.93888986069578 115.92360112060851,66.93382258672136 115.79276141439914,67.0047643633734 115.73960778374749,67.08077326894636 115.67827667144593,67.43547956889961 115.61694555917347,67.57736120063055 115.43704096312285,67.72937667137012 115.24895888543688,67.79524986107208 114.897327174971,67.7800483654828 114.05095782539865,67.68377209132814 113.3558718861168,67.70910797559554 113.10645869614382,67.66857055299624 112.66487468767446,67.53682364335327 112.38275157113094,67.51655484917865 112.20284697508032,67.54189084028621 111.44234118270106,67.7800483654828 110.4160672370781,68.04860726340485 109.7864011509082,68.27156043866853 109.26713106685202,68.2918288470064 108.40440675397986,68.26649333497699 108.2940107518807,68.23609069917802 108.15908230483183,68.1550168897702 107.82380555765121,67.82565283481017 107.60710229424876,67.69897362383199 107.34133414099051,67.60269715288086 106.30279397290724,67.42027793538364 105.93480729915609,67.31386633773218 105.72628151737445,67.21758893190417 105.01075187401148,66.73113109706537 104.38926326947694,66.52337124507176 104.2379798591719,66.40682255888169 103.73097599756147,65.88995034454274 102.41849019459914,64.89165846793912 102.14045581888058,64.65348359645941 101.833800257431,64.3088876333095 101.61300825320359,64.17206193502716 101.19186794881534,64.02510047396936 100.5131369728042,63.96935632902387 98.98394790641032,63.39670739351641 98.74680093889765,63.340962365189625 98.321571893699,63.295352738248766 98.18255470583972,63.24467531346818 97.70826077079982,62.85952476842067 97.55697736049478,62.69735499864328 97.47929128493706,62.51998105351231 97.36889528279426,61.95237909696516 97.3116529113322,61.856088673222985 97.14810327856685,61.72939039096673 96.7760278640053,61.61789556766962 96.34671007799625,61.59255579137971 96.14636177784996,61.678710964690254 95.85606117968564,61.72939039096673 95.30408116908802,61.77500181921641 95.05875671991089,61.76486595080496 94.8502309381438,61.693914799379854 93.97524040282588,61.197253184345755 93.50503520861093,61.09589290666918 93.32104187172081,61.009736466916365 93.1493147573201,60.88303548010299 92.10259710760147,59.93023108809575 91.4933747255127,59.46395676438624 90.94548345574003,58.8811061478591 90.66744908003602,58.66823682990798 90.28310744301416,58.31345209325082 90.20951010828139,58.181674096675124 90.11138032861345,57.766063699618826 89.93556447338779,57.42140787032258 89.3099871280283,56.56482378683722 88.5167714091076,56.03261725239281 87.44552131446835,55.865350865777145 87.02846975089051,55.68287763902481 87.00802604679484,55.6271217632966 87.06935715908185,55.642327919009404 86.99984856515948,55.63219048251267 86.66866055878927,55.29258486196704 86.28431892178196,54.836393628113 85.59741046415002,53.98482261004028 85.18035890058673,53.787133864188945 84.66517755735549,53.640133901149966 83.47535397896718,53.20419977048368 83.22185204815469,53.052128596853436 82.51858862723748,52.347524544002226 82.22419928826275,52.078859268167434 81.2061028242606,51.20695186427838 81.08752934049699,51.065011634113034 80.75634133415588,50.487106876953476 80.5641705156304,50.2691230690798 80.30657984402205,50.04099919542932 80.06943287650938,49.888915883428126 79.88543953963381,49.81287400854853 78.90414174301259,49.47321851922243 78.58930869995675,49.24509006370863 78.30309684258827,48.74320283859561 78.20496706294944,48.42888638976001 78.2213220262056,48.23116992678115 78.29083062012796,48.00303432050714 78.35625047323992,47.856012900476344 78.53206632846559,47.643084359489876 78.58113121829228,47.521410393754195 78.5933974407526,47.0397806127512 78.63837358976889,46.41618809384818 78.6015749224025,46.264090868680796 78.51571136519487,46.09678324662673 78.11092602407734,45.528946049220394 77.62027712578129,44.53014123139292 77.54259105019446,44.089036671586655 77.46081623382634,42.86203033964921 77.4281063072558,42.82653785540606 77.49761490120727,44.089036671586655 77.52214734611334,44.39831739473448 77.18687059893273,44.85969890400884 76.84750511092716,45.153763435937435 75.94389338987821,46.67982190099792 75.69448019990523,46.96880309743938 75.34284848943935,47.48085232215453 75.13023396683275,47.67857252911199 74.15711365186144,48.36805066009401 74.02218520484166,48.50493092054239 73.86681305368256,48.717854830298165 73.76050579239381,49.00682116353346 73.65419853109051,49.746970932290424 73.47838267586485,50.19308192378594 73.40887408192793,50.487106876953476 73.20443704097124,50.857169665556285 73.07768607557227,51.313406703280634 73.01635496327071,51.62770027385341 73.0,52.00282159526978 73.2657681532437,54.42074815497108 73.34345422883052,54.689397556503536 73.56015749224753,55.15065926295938 73.83410312714113,55.485197362100735 74.09169379874947,55.73356473070817 75.25289619140676,56.59523537299174 75.3469372302643,56.64085270846408 76.64306806997047,57.60387309439466 77.03558718862769,57.781269034847355 77.68978571970365,57.92318521564084 77.95964261378685,58.00934836324814 78.62610736730858,58.39454602728074 79.06769137579249,58.70878345477831 79.04315893087187,58.78480826465602 78.35216173242952,59.362592055309506 78.3358067691297,59.39806973296436 78.40940410389157,59.47409322104431 78.73650336943683,59.6869582120853 79.00227152268053,59.81366302129027 79.12084500644414,59.89982206023342 79.20670856366633,60.01132171505378 79.24350723101816,60.178570609343296 79.23941849020775,60.4826577004751 79.29257212084485,60.614428048986156 79.3947906413232,60.725925694136095 79.42341182706878,60.791810518876446 79.41932308624382,61.01987252836625 79.5010979026265,61.283409216637665 79.5010979026265,61.72432245125674 79.4479442719894,61.8307490491643 79.24759597184311,62.03346558823978 79.12084500644414,62.099348240291874 78.85507685320044,62.13989135636439 78.72832588777237,62.185502312400786 78.61792988567322,62.28179193617325 78.47482395698898,62.49464185372199 78.40940410389157,62.68721936600923 78.39304914062086,62.965948319379095 78.42575906717684,63.579145120183966 78.47073521619313,63.80719109814527 78.68743847959558,63.91361210571995 78.95320663283928,64.11631799667884 79.06360263498209,64.12138563066401 79.30074960249476,64.00989753312751 79.40705686379806,63.9946945864358 79.86908457637765,64.09097981695959 80.00401302339742,64.17206193502716 80.48239569924772,64.58253761354717 80.62550162793195,64.64841603046807 81.03437570985989,64.73963211937007 81.55364579390152,64.97273894886894 81.64768683274451,65.07915682852035 81.76217157566862,65.40854369368026 81.93389869008388,65.55043257710349 82.08109335959307,65.62644427011037 82.12198076778441,65.68725351961257 82.19148936169222,65.91021997005373 82.17104565759655,66.2497346572818 82.22419928826275,66.40175521692436 82.3264178087411,66.46763061179809 82.60854092528461,66.50310193294354 82.84977663360769,66.62471765030568 83.03785871129367,66.82740968382132 83.29544938291656,67.18211824979153 83.59392746271624,67.50135324675284 83.77792079959181,67.52668924755926 84.30127962444385,67.41014350982732 84.49753918376518,67.42534514720683 84.59158022260817,67.29359742960878 84.68971000227612,67.25812681547905 85.09858408420405,67.41521072294199 85.474748239576,67.53682364335327 85.5197243885923,67.52162204868728 85.58923298251466,67.37467299993295 85.66691905807238,67.33413523548006 86.23116529114486,67.33920245831177 86.72590293025132,67.49628604465397 86.88536382223538,67.58242839236846 86.99167108350957,67.88645871236804 87.08571212235256,68.31209724499786 86.95487241615774,67.52668924755926 86.09623684411054,63.57407741689531 85.89588854396425,63.11798146811998 85.258044976159,62.190570193160966 85.00863178618602,61.739526268444024 84.89414704324736,61.43038083963256 84.84099341258116,61.1161649829337 84.82463844931044,60.76647021462122 84.86143711669138,60.41677236197938 84.8818808207725,60.376227483870025 84.93912319226365,60.36102314388336 85.15173771487025,60.45731719861578 86.66457181799342,61.6736430185083 86.84856515485444,61.7952735482686 87.00802604679484,61.851020749698364 87.26970545924269,61.861156596100045 87.53138487164688,61.780069752443524 87.80941924736544,61.57735191782922 87.97705762095575,61.35436110265073 88.12016354963998,61.242865224758134 88.24691451503895,61.20738919786163 88.38593170288368,61.212457203655504 88.52903763156792,61.27327322254132 88.91746800940018,61.65843917605525 89.23230105248513,62.0385334884304 89.40402816688584,62.13989135636439 89.71068372833543,62.215909587277565 89.93556447338779,62.23618109090967 90.17680018172541,62.332470591612946 91.08041190278891,63.021693874921766 91.24805027639377,63.18893007137376 91.46066479897127,63.50819721510925 91.93086999320076,64.54706457449356 92.17619444234879,64.91192860371302 92.724085712136,65.54029767369138 93.97115166200092,67.68377209132814 94.24509729689453,68.04354013122429 95.4349208752974,69.18362855974556 95.66797910198511,69.54338299513984 95.77428636328841,69.93353552562621 96.38350874537718,70.18181241056664 96.60430074960459,70.33381789966734 98.754978420533,72.40610129924971 98.82039827365952,72.52263235855571 98.85310820020095,72.86715696658212 98.83675323691568,73.16608030517818 98.89808434921724,73.2876755950565 99.56046036192856,73.61699430022782 100.10017415008042,73.95644302750225 100.10835163170123,74.02230587695522 100.01431059285824,74.37695010983953 99.93662451730052,74.58973512787998 99.89164836829877,74.91397677040368 99.9161808132194,76.56047546825357 99.9652457030461,77.09240659850184 99.99795562960207,77.1481323042317 100.06746422352444,77.17346214459758 100.86476868327009,77.12280244768772 101.17142424471967,77.11267050054448" stroke="red" stroke-linecap="round" stroke-linejoin="round" stroke-width="0.5"><title>2023-11-12 42.8km</title><desc>10203158093</desc></polyline><polyline fill="none" points="178.81185194116551,85.46961378405103 179.06969571427908,86.67781437620579 179.19861760071944,85.87234810470545 178.8977998655755,83.91236697796558 178.16724250861444,83.59017650892201 177.2862762841396,83.29483480156341 177.15735439758282,82.19401196739636 177.02843251102604,80.36824401043123 176.81356270017568,77.38791143268463 176.6416668513557,75.9380042647681 176.1474662864348,75.80375308316434 175.82516157010105,75.34729840884393 175.5458308160305,73.70942328216915 175.5028568538837,71.48081810714211 175.39542194840033,70.19197515735868 175.0086562888464,69.19848652776273 174.57891666714568,64.82170910114655 174.10620308318175,64.71430234709987 172.7954972370062,65.03652244077239 170.62531214719638,65.22448392855586 165.5543846108485,65.43929684671457 162.3098504669033,65.51985163304198 159.83884764183313,65.51985163304198 158.4851678335108,65.49300004112592 155.13319878384937,65.17078066388785 152.92003973200917,64.95596746477531 150.40606294502504,64.87541245711327 143.8310467324918,64.41893348353915 143.3368461674545,64.15041596599622 143.2723852242343,60.04205415020988 143.63766390271485,59.66612151185109 144.11037748656236,59.451302552377456 144.30376031645574,57.517921799459145 145.0343176733004,57.141984538393444 146.0227188032586,56.98086835858703 147.1830157819204,54.85949353015167 147.11855483870022,53.22145492817799 146.81773710343987,49.8916312452493 146.83922408462968,48.25355299699004 147.41937257396057,46.40062905717059 147.54829446040094,45.35331682210381 147.44085955503397,43.68834790904657 147.61275540373754,42.61416724881565 147.2259897441836,41.56683569213783 146.1516406898154,40.2240951089625 145.39959635178093,38.93505588438711 145.35662238963414,36.67921775967989 145.35662238963414,34.63819999525731 145.42108333285432,33.295414080363116 143.7880727702286,33.24170246106223 141.46747881302144,33.295414080363116 141.20963503990788,33.751962277208804 141.23112202098127,35.39015627001936 141.40301786956843,39.552721523097716 141.25260900205467,41.80852806425537 140.86584334261715,44.762522947392426 141.27409598324448,48.03872209320252 140.80138239916414,52.22788416102412 140.6724605128402,54.69837555875711 141.05922617239412,57.08827915918664 142.04762730223592,57.08827915918664 142.3054710753495,57.571627066252404 142.2195231510559,59.585564428416546 142.7996716403868,60.06890645522799 142.95008050801698,61.89485495227564 142.97156748897396,63.747639031280414 143.22941126208752,63.37171317914908 143.18643729994074,61.22355224576313 143.3368461674545,59.854087917119614 144.06740352441557,59.478154934506165 144.30376031645574,57.786447992984904 144.60457805148326,57.35680591476557 145.42108333285432,57.16883722269267 146.1731276710052,57.08827915918664 147.11855483870022,55.15487614921585 147.03260691440664,53.19460172747495 147.09706785762683,52.14732415834442 146.75327616021968,49.27399671979947 146.6673282359261,48.4952374950808 146.98963295214344,47.47478990070522 147.33342464955058,46.42748314673372 147.52680747944396,45.43387949143653 147.33342464955058,43.7689112318767 147.48383351718076,41.86223744155723 145.5285182382213,39.09618623025017 145.27067446522415,37.7265742582822 145.4640572950011,34.93361171751167 145.42108333285432,33.295414080363116 144.3897082406329,33.0 141.6608616427984,33.053711682601715 141.31706994539127,33.778818021848565 141.38153088861145,38.96191095082031 141.23112202098127,41.88909212498402 140.97327824810054,44.38656232340145 141.01625221013092,45.48758792018634 141.1236871156143,46.910856158749084 141.29558296420146,48.092429840238765 141.0807131534675,49.19343555766682 140.90881730464753,51.44913614366669 140.95179126691073,56.766046588818426 141.38153088861145,57.00772106403019 142.1980361698661,57.276247924994095 142.1980361698661,59.478154934506165 142.62777579168323,59.66612151185109 142.90710654575378,61.08929144096328 142.864132583607,63.31800942977134 143.12197635660414,63.69393538024451 143.2938722053077,62.88837892902666 143.2938722053077,61.787446666741744 143.3153591863811,60.98188273400592 143.3583331486443,59.854087917119614 144.11037748656236,59.451302552377456 144.26078635419253,57.75959538940515 145.07729163544718,57.222542580842855 145.91528389789164,57.16883722269267 146.40948446281254,56.52437182908761 147.2474767251406,54.37613923662866 147.07558087655343,52.013057416916126 146.81773710343987,49.86477760883281 146.83922408462968,47.87759876767814 147.14004181977361,46.88400213235582 147.37639861169737,45.83669236386777 147.41937257396057,43.58093009600998 147.46234653610736,41.70110926736379 146.0871797464788,39.90183606183564 145.37810937070753,38.156257429451216 145.31364842748735,36.7597838340007 145.37810937070753,34.45021049605566 145.18472654093057,33.16113500564825 144.0459165434586,33.107423351102625 142.97156748897396,33.295414080363116 141.51045277516823,33.16113500564825 141.20963503990788,34.50392179915798 141.20963503990788,36.62550702600856 141.44599183194805,39.66014144443034 141.29558296420146,41.64739984780317 140.84435636154376,44.252290505115525 141.1022001345409,46.10523383964028 141.27409598324448,47.958160446214606 141.1236871156143,50.401849668778596 140.69394749379717,52.899216287376476 140.69394749379717,54.80578755373426 140.93030428583734,56.14843274833402 140.99476522905752,56.98086835858703 141.94019239686895,57.08827915918664 142.2624971132027,57.43736387293029 142.2195231510559,59.10222126354347 142.41290598071646,59.77353090741963 142.90710654575378,59.98834952975449 143.03602843231056,61.30410868643958 142.7996716403868,62.61985940951854 142.7996716403868,63.98930528690107 142.67074975383002,64.82170910114655 144.4756561650429,65.0633740924095 147.50532049825415,65.25133555557113 148.51520860928576,65.33189041573496 151.41595105594024,65.54670322142192 153.3068053915631,65.73466424213257 159.9892565094633,66.16428878587612 161.27847537468188,66.11058576707728 162.97594688041136,66.05688273423584 164.84531423507724,65.97632815862016 166.47832479758654,65.86892200860893 167.50969988969155,65.81521891255397 168.4766140386928,66.0837342524319 169.89475479035173,65.97632815862016 171.48479139071424,65.84207046238589 173.11780195333995,65.76151580242731 174.9656823266996,65.49300004112592 175.26650006184354,65.94947662638151 175.5673177971039,68.44665409857407 175.5673177971039,71.45396729484492 175.5673177971039,72.82335424238408 175.6317787404405,75.23989716157666 175.97557043773122,75.53525045643619 176.29787515406497,75.9380042647681 176.77058873791248,76.04540514691325 177.09289345424622,77.65641163637338 177.02843251102604,79.61645248549758 177.15735439758282,81.81811989175912 177.3507372273598,83.48277957362006 178.23170345183462,83.50962881269515 177.88791175442748,83.88551779149566 177.60858100035693,84.3956517334882 177.7804768490605,86.43617482653644 178.14575552742463,86.86575605154212 178.8763128845021,86.9463024311408 179.28456552501302,86.19453499243536 179.13415665749926,84.18085864921159 178.51103420602158,83.69757338811178 177.95237269776408,83.77812101058953 177.67304194357712,84.26140608210699 177.7160159057239,86.19453499243536 178.10278156539425,86.86575605154212 178.68293005472515,86.9194536414143 179.15564363857266,86.65096555135096 179.32753948727623,86.11398831791303 179.15564363857266,84.52989729700494 179.00523477094248,84.04661285747716 178.3176513762446,83.69757338811178 177.8234508112073,83.93921616087027 177.63006798143033,84.42250085319392 177.7804768490605,86.40932597011852 178.3821123194648,86.89260484820988 178.9192868466489,86.7583608294517 179.24159156298265,86.03344161179848 178.8977998655755,83.96606534032617 178.339138357318,83.75127180664276 177.73750288691372,84.26140608210699 177.6945289246505,86.24823275800736 177.9093987356173,86.70466319746629 178.68293005472515,86.97315121736028 179.15564363857266,86.65096555135096 179.32753948727623,85.30851983456523 178.9407738277223,83.9929145162605 178.4035993005382,83.77812101058953 177.93088571657427,83.93921616087027 177.7160159057239,84.3956517334882 177.8449377922807,85.38906682508241 177.99534665991087,86.54357021700707 178.42508628161158,86.83890725125093 178.8763128845021,86.67781437620579 179.13415665749926,86.22138387689483 178.8333389222389,84.10031118473853 178.3821123194648,83.85866860157694 177.9093987356173,84.07346202283225 177.80196383001748,85.52331173905986 177.8449377922807,86.54357021700707" stroke="#4dd2ff" stroke-linecap="round" stroke-linejoin="round" stroke-width="0.5"><title>2022-05-22 15.0km</title><desc>7258947441</desc></polyline><polyline fill="none" points="43.85255937837064,174.06979081593454 35.14242513105273,174.06979081593454 29.782342517748475,170.72097703488544 27.102301210165024,166.95355734485202 25.427275393158197,136.3954337942414 27.437306374311447,130.53493840666488 33.13239415176213,125.51164810685441 40.16750258207321,123.83721625315957 47.53761617653072,128.0232942425646 50.88766781054437,135.13961425749585 53.232703955844045,158.58149771182798 53.232703955844045,167.37215975252911 48.207626504823565,173.65118928416632 40.16750258207321,176.16279764962383 32.12737866304815,173.23258769884706 27.102301210165024,166.95355734485202 24.757265066727996,136.81404019752517 28.10731670074165,128.86050918209367 36.14744062162936,123.0 43.85255937837064,124.67443228885531 48.87763683125377,130.95354557526298 51.55767813697457,138.48846526048146 53.902714282274246,158.58149771182798 53.56770911812782,166.95355734485202 48.207626504823565,173.65118928416632 40.16750258207321,175.7441963928286 32.12737866304815,173.23258769884706 27.102301210165024,166.95355734485202 25.762280555441976,134.30240095895715 29.44733735360205,127.1860790818464 36.817450949922204,123.41860815417022 44.187564542517066,125.09304022532888 49.88265231996775,130.95354557526298 51.892683301121,138.48846526048146 54.237719444558024,163.18613322032616 52.227688463404775,168.62796664284542 46.197595523670316,174.06979081593454 38.82748192921281,175.7441963928286 29.11233218945563,170.72097703488544 25.427275393158197,163.18613322032616 24.757265066727996,136.3954337942414 28.10731670074165,129.27911657001823 34.47241480462253,125.09304022532888 42.84754388965666,125.51164810685441 49.88265231996775,133.04658060055226 53.902714282274246,166.1163523667492 51.892683301121,170.3023750660941 44.85757486894727,174.90699371369556 36.817450949922204,174.90699371369556 29.44733735360205,170.72097703488544 27.772311536595225,167.79076210292988 25.762280555441976,159.83730805339292 25.09227023087442,139.32567746401764 27.437306374311447,131.79075974971056 32.797388987615705,125.51164810685441 41.84252839908004,125.09304022532888 47.87262134067714,130.11633118265308 51.55767813697457,137.65125283808447 53.56770911812782,161.51172107458115 52.5626936275512,166.95355734485202 47.20261101424694,173.23258769884706 39.83249741978943,175.32559508108534 31.792373498901725,172.81398605904542 27.102301210165024,166.53495488245972 25.09227023087442,142.25591845344752 25.762280555441976,134.72100763511844 30.452352844178677,127.60468668979593 37.822466438636184,123.83721625315957 45.19258003309369,126.34886370319873 49.212641993537545,131.37215269031003 54.237719444558024,161.51172107458115 51.892683301121,169.04656883119605 47.20261101424694,172.81398605904542 40.50250774435699,175.32559508108534 33.13239415176213,172.81398605904542 27.772311536595225,166.95355734485202 25.09227023087442,135.9768273360096 32.12737866304815,126.34886370319873 40.16750258207321,123.83721625315957 46.197595523670316,126.76747142034583 50.21765748411417,132.6279737050645 52.89769879169762,147.27918247762136 53.56770911812782,165.69774979539216 50.88766781054437,170.72097703488544 44.52256970666349,174.4883922925219 38.82748192921281,175.32559508108534 31.122363170608878,171.97678261366673 28.10731670074165,168.2093644007109 26.097285721451044,160.67451467295177 24.757265066727996,138.90707139042206 26.7672960460186,131.37215269031003 30.452352844178677,127.1860790818464 38.15747160278261,124.67443228885531 45.527585197240114,127.1860790818464 50.21765748411417,133.04658060055226 51.892683301121,141.41870701522566 53.56770911812782,164.86054448992945 50.55266264639795,170.3023750660941 45.527585197240114,174.06979081593454 39.83249741978943,175.32559508108534 32.797388987615705,173.23258769884706 28.10731670074165,168.2093644007109 24.757265066727996,138.90707139042206 27.772311536595225,131.37215269031003 32.12737866304815,126.76747142034583 40.16750258207321,124.25582429906353 43.517554216086864,125.09304022532888 47.87262134067714,129.27911657001823 51.55767813697457,136.3954337942414 54.57272460870445,164.02333896351047 49.88265231996775,171.13957894803025 43.182549053803086,174.90699371369556 35.14242513105273,174.4883922925219 29.44733735360205,169.88377304305322 26.432290883734822,162.3489272557199 25.427275393158197,142.25591845344752 26.432290883734822,134.30240095895715 33.80240447819233,125.51164810685441 40.50250774435699,124.67443228885531 44.85757486894727,126.34886370319873 49.88265231996775,132.20936675416306 52.89769879169762,148.5349972518161 53.902714282274246,164.44194175419398 48.207626504823565,172.39538436289877 43.517554216086864,174.90699371369556 37.487461276352406,175.32559508108534 30.1173476818949,171.13957894803025 26.432290883734822,164.02333896351047 24.757265066727996,141.41870701522566 25.762280555441976,135.13961425749585 29.11233218945563,129.69772390415892 35.812435457482934,125.51164810685441 43.517554216086864,126.34886370319873 49.54764715582132,133.46518744179048 53.56770911812782,162.3489272557199 51.222672974690795,169.88377304305322 47.87262134067714,173.23258769884706 39.83249741978943,175.7441963928286 36.48244578577578,175.32559508108534 29.782342517748475,170.72097703488544 26.7672960460186,163.18613322032616 26.432290883734822,134.30240095895715 30.452352844178677,128.0232942425646 37.822466438636184,123.83721625315957 45.527585197240114,126.34886370319873 50.21765748411417,133.04658060055226 53.902714282274246,158.16289415606298 53.56770911812782,166.1163523667492 48.542631667107344,172.81398605904542 40.50250774435699,175.32559508108534 32.12737866304815,173.23258769884706 27.772311536595225,166.95355734485202 25.762280555441976,153.97685558209196 25.427275393158197,134.30240095895715 31.792373498901725,125.51164810685441 40.83751290850341,124.25582429906353 47.87262134067714,128.86050918209367 50.21765748411417,133.46518744179048 54.237719444558024,163.18613322032616 51.55767813697457,170.3023750660941 42.84754388965666,175.7441963928286 35.812435457482934,176.16279764962383 29.44733735360205,171.97678261366673 26.097285721451044,161.9303241937887 25.427275393158197,138.90707139042206 27.437306374311447,132.6279737050645 32.797388987615705,126.34886370319873 40.50250774435699,124.67443228885531 48.207626504823565,128.86050918209367 51.892683301121,143.51173519715667 53.232703955844045,166.53495488245972 48.207626504823565,172.81398605904542 43.85255937837064,175.7441963928286 37.487461276352406,176.16279764962383 30.1173476818949,171.97678261366673 26.7672960460186,164.86054448992945 25.427275393158197,141.00010121497326 27.102301210165024,133.04658060055226 31.792373498901725,128.0232942425646 39.16248709149659,124.67443228885531 42.17753356322646,125.09304022532888 47.20261101424694,128.86050918209367 50.55266264639795,135.55822082422674 53.902714282274246,164.86054448992945 52.89769879169762,168.2093644007109 47.87262134067714,174.90699371369556 36.817450949922204,175.32559508108534 30.1173476818949,170.72097703488544 26.7672960460186,162.76753026410006 25.762280555441976,139.74428348452784 26.432290883734822,134.72100763511844 30.452352844178677,127.1860790818464 37.15245611034334,123.83721625315957 45.19258003309369,125.51164810685441 49.54764715582132,131.37215269031003 53.56770911812782,161.9303241937887 50.55266264639795,169.46517096390016 43.85255937837064,174.4883922925219 35.477430295199156,174.90699371369556 29.11233218945563,169.46517096390016 26.097285721451044,158.16289415606298 25.09227023087442,142.67452408955432 25.762280555441976,134.72100763511844 29.782342517748475,128.0232942425646 37.15245611034334,123.83721625315957 45.19258003309369,126.34886370319873 49.88265231996775,132.6279737050645 52.89769879169762,145.60476201190613 54.57272460870445,161.51172107458115 52.5626936275512,169.04656883119605 46.532600685954094,174.06979081593454 41.84252839908004,175.7441963928286 34.13740964047611,175.32559508108534 28.442321863025427,169.46517096390016 25.762280555441976,153.97685558209196 27.102301210165024,133.04658060055226 31.792373498901725,127.60468668979593 39.49749225564301,124.67443228885531 46.532600685954094,128.0232942425646 50.88766781054437,135.9768273360096 54.237719444558024,159.4187046615407 53.232703955844045,167.79076210292988 45.86259035952389,174.4883922925219 38.82748192921281,176.58139885170385 31.457368332892656,172.81398605904542 28.442321863025427,167.79076210292988 25.762280555441976,136.81404019752517 30.1173476818949,130.11633118265308 36.14744062162936,125.51164810685441 43.85255937837064,125.93025593250059 49.212641993537545,132.20936675416306 54.237719444558024,161.51172107458115 52.227688463404775,168.62796664284542 45.86259035952389,174.06979081593454 38.492476765066385,176.16279764962383 30.1173476818949,171.97678261366673 26.7672960460186,164.44194175419398 25.427275393158197,141.8373127616942 26.432290883734822,133.46518744179048 31.457368332892656,127.60468668979593 37.15245611034334,124.67443228885531 44.52256970666349,125.93025593250059 49.212641993537545,131.79075974971056 52.5626936275512,145.18615675880574 52.89769879169762,162.3489272557199 50.55266264639795,169.88377304305322 44.52256970666349,175.32559508108534 34.47241480462253,176.58139885170385 28.442321863025427,171.13957894803025 26.097285721451044,164.02333896351047 25.427275393158197,139.74428348452784 28.442321863025427,132.6279737050645 33.13239415176213,126.76747142034583 40.83751290850341,124.67443228885531 48.207626504823565,127.60468668979593 51.55767813697457,135.9768273360096 54.237719444558024,159.83730805339292 52.89769879169762,168.2093644007109 50.21765748411417,172.39538436289877 43.517554216086864,176.16279764962383 35.14242513105273,175.7441963928286 28.77732702717185,170.3023750660941 26.432290883734822,163.18613322032616 26.432290883734822,134.72100763511844 30.452352844178677,127.60468668979593 38.15747160278261,124.25582429906353 46.197595523670316,126.34886370319873 49.212641993537545,128.86050918209367 52.5626936275512,142.67452408955432 54.237719444558024,166.1163523667492 49.54764715582132,173.23258769884706 42.84754388965666,176.58139885170385 34.807419968768954,176.58139885170385 28.77732702717185,171.13957894803025 26.432290883734822,163.18613322032616 26.097285721451044,137.2326465449296 29.782342517748475,130.53493840666488 36.14744062162936,124.67443228885531 44.52256970666349,125.09304022532888 49.212641993537545,131.79075974971056 53.56770911812782,147.27918247762136 54.90772977285087,165.69774979539216 47.53761617653072,173.65118928416632 39.83249741978943,176.16279764962383 32.46238382346928,174.06979081593454 27.772311536595225,167.79076210292988 25.762280555441976,140.58149535860866 28.442321863025427,132.6279737050645 34.47241480462253,126.34886370319873 41.50752323679626,124.67443228885531 48.207626504823565,128.44190173968673 49.212641993537545,130.53493840666488 51.55767813697457,138.48846526048146 54.90772977285087,164.86054448992945 52.5626936275512,169.88377304305322 44.85757486894727,175.7441963928286 42.17753356322646,176.16279764962383 34.47241480462253,174.90699371369556 28.442321863025427,169.46517096390016 26.7672960460186,161.51172107458115 26.097285721451044,137.65125283808447 33.13239415176213,127.60468668979593 40.16750258207321,124.67443228885531 47.53761617653072,128.44190173968673 50.88766781054437,135.13961425749585 55.242734933272004,160.67451467295177 53.902714282274246,167.79076210292988 48.542631667107344,173.65118928416632 42.84754388965666,175.7441963928286 34.807419968768954,174.90699371369556 31.122363170608878,172.39538436289877 27.437306374311447,165.27914716885425 25.762280555441976,141.41870701522566 28.10731670074165,133.46518744179048 34.47241480462253,126.76747142034583 41.84252839908004,125.09304022532888 48.87763683125377,129.69772390415892 53.902714282274246,149.79081153357401 54.90772977285087,164.86054448992945 53.56770911812782,168.62796664284542 47.53761617653072,174.06979081593454 44.52256970666349,175.32559508108534 34.13740964047611,174.90699371369556 28.442321863025427,168.62796664284542 25.09227023087442,137.65125283808447 29.11233218945563,129.69772390415892 36.14744062162936,124.67443228885531 43.182549053803086,124.67443228885531 49.88265231996775,129.27911657001823 53.232703955844045,145.18615675880574 54.237719444558024,165.27914716885425 50.55266264639795,171.5581808083225 43.517554216086864,176.16279764962383 35.812435457482934,175.7441963928286 29.11233218945563,170.72097703488544 27.102301210165024,162.76753026410006 26.432290883734822,135.9768273360096 30.452352844178677,129.27911657001823 38.15747160278261,125.93025593250059 45.86259035952389,125.93025593250059 50.21765748411417,132.20936675416306 53.902714282274246,160.25591139006428 52.89769879169762,167.79076210292988 49.54764715582132,174.4883922925219 46.197595523670316,177.0 37.822466438636184,177.0 28.77732702717185,170.3023750660941 26.7672960460186,164.02333896351047 26.432290883734822,147.27918247762136" stroke="#4dd2ff" stroke-linecap="round" stroke-linejoin="round" stroke-width="0.5"><title>2021-04-24 10.0km</title><desc>5182983314</desc></polyline><polyline fill="none" points="104.6672894936055,175.7040103371255 96.36988594941795,176.5680035019759 92.91263446956873,175.2720136709977 88.76393269747496,170.95204389304854 87.38103210739791,164.4720786351245 87.38103210739791,138.12008897564374 89.4553829934448,130.34405185934156 94.64126021042466,124.72801367030479 102.93866375647485,124.29601033800282 108.81599126756191,129.9120492611546 110.5446170065552,135.9600805011578 110.89034215547144,164.0400805012323 108.47026612050831,171.38404112542048 101.55576316453516,176.13600694737397 93.94980991445482,175.7040103371255 88.76393269747496,169.65605186019093 87.38103210739791,164.4720786351245 87.38103210739791,138.55209050001577 89.10965784452856,130.77605440234765 90.83828358352184,128.61604112689383 98.44423683546484,124.29601033800282 101.21003801748157,124.29601033800282 103.63011405058205,125.59202016703784 108.81599126756191,131.64005931699648 110.1988918595016,140.28009603684768 109.50744156353176,164.0400805012323 108.12454097345471,171.81603830051608 103.63011405058205,176.5680035019759 94.29553506337106,175.2720136709977 89.8011081404984,170.95204389304854 87.38103210739791,162.7440857538022 87.03530695848167,134.23207270517014 89.10965784452856,129.48004660662264 94.64126021042466,124.72801367030479 102.59293860942125,124.72801367030479 108.47026612050831,130.34405185934156 110.5446170065552,138.55209050001577 108.81599126756191,168.79205688624643 104.32156434841454,175.7040103371255 96.0241608005017,176.5680035019759 90.14683328941464,172.6800324821379 87.38103210739791,165.33607473876327 87.38103210739791,138.55209050001577 88.07248240150511,131.64005931699648 90.14683328941464,127.75203542085364 97.40706139244139,123.86400694889016 105.01301464252174,125.59202016703784 109.50744156353176,132.93606626498513 110.5446170065552,146.76010874728672 110.1988918595016,164.90407671383582 107.08736553043127,172.6800324821379 100.17286257259548,176.13600694737397 92.56690932437778,174.4080201673787 89.10965784452856,169.2240544015076 87.03530695848167,134.23207270517014 90.83828358352184,126.88802948920056 98.09851168841124,123.86400694889016 105.70446493849158,126.88802948920056 110.1988918595016,133.36806846759282 110.1988918595016,159.28809727844782 109.16171641647816,167.92806168855168 103.9758391994983,174.4080201673787 96.36988594941795,175.2720136709977 89.4553829934448,170.52004660503007 88.07248240150511,167.0640662650112 87.03530695848167,141.57609959528781 87.38103210739791,132.93606626498513 92.22118417546153,126.02402333146892 100.17286257259548,123.0 107.43309067748487,126.02402333146892 111.23606730438769,133.36806846759282 110.1988918595016,159.72009603562765 109.50744156353176,167.4960640037898 107.43309067748487,172.24803542043082 102.59293860942125,175.7040103371255 94.98698535747826,176.13600694737397 91.52973388135433,174.4080201673787 87.38103210739791,167.4960640037898 86.68958181142807,134.66407473944128 87.03530695848167,132.50406400556676 91.18400873243809,126.88802948920056 98.78996198251843,123.86400694889016 106.39591523259878,126.88802948920056 108.81599126756191,131.20805688761175 109.50744156353176,138.98409196874127 108.81599126756191,167.0640662650112 107.77881582453847,171.38404112542048 101.21003801748157,176.5680035019759 92.91263446956873,173.97602333012037 88.41820754855871,167.92806168855168 87.38103210739791,159.72009603562765 87.03530695848167,135.52807863731869 90.49255843646824,128.184038301697 92.91263446956873,126.02402333146892 101.21003801748157,124.72801367030479 107.77881582453847,129.9120492611546 108.47026612050831,132.07206168887205 109.16171641647816,141.14409846579656 108.12454097345471,157.5601016844157 108.81599126756191,165.7680727043189 106.74164038151503,173.1120294877328 99.48141227848828,176.5680035019759 91.87545902654529,174.4080201673787 87.38103210739791,167.92806168855168 87.38103210739791,151.94410976371728 88.76393269747496,131.64005931699648 94.29553506337106,125.59202016703784 101.90148831345141,124.72801367030479 108.81599126756191,129.9120492611546 110.89034215547144,137.68808739329688 109.853166712448,157.5601016844157 111.23606730438769,165.7680727043189 109.16171641647816,171.81603830051608 101.21003801748157,175.2720136709977 94.29553506337106,174.8400169464294 88.76393269747496,169.2240544015076 88.07248240150511,166.20007061376236 88.07248240150511,133.80007061501965 91.87545902654529,127.32003248273395 99.82713742554188,124.72801367030479 106.74164038151503,127.75203542085364 110.1988918595016,134.66407473944128 110.89034215547144,166.63206846779212 109.50744156353176,171.81603830051608 105.35873978957534,175.2720136709977 97.40706139244139,176.5680035019759 92.22118417546153,174.4080201673787 87.72675725258887,167.92806168855168 87.03530695848167,135.09607671713457 90.14683328941464,127.75203542085364 97.75278653949499,124.72801367030479 106.05019008740783,126.45602643908933 109.853166712448,133.36806846759282 109.50744156353176,155.4001059224829 108.47026612050831,171.81603830051608 107.43309067748487,173.1120294877328 100.51858772151172,176.13600694737397 92.22118417546153,173.97602333012037 90.14683328941464,172.24803542043082 87.38103210739791,166.20007061376236 87.72675725258887,133.36806846759282 91.87545902654529,127.32003248273395 100.17286257259548,125.16001694765873 103.28438890352845,125.59202016703784 109.50744156353176,130.77605440234765 110.5446170065552,138.55209050001577 110.89034215547144,155.83210518746637 110.89034215547144,164.4720786351245 109.50744156353176,169.65605186019093 107.43309067748487,173.1120294877328 103.9758391994983,175.2720136709977 95.6784356534481,175.7040103371255 92.22118417546153,174.4080201673787 87.72675725258887,167.92806168855168 88.07248240150511,133.36806846759282 92.91263446956873,127.32003248273395 101.21003801748157,125.59202016703784 106.05019008740783,127.32003248273395 109.853166712448,134.23207270517014 111.92751759849489,161.88008897402324 109.853166712448,170.08804925973527 103.9758391994983,174.8400169464294 97.06133624352515,176.13600694737397 89.4553829934448,172.24803542043082 87.38103210739791,163.60808230820112 88.07248240150511,139.41609338135459 89.10965784452856,130.77605440234765 94.98698535747826,126.02402333146892 103.28438890352845,125.16001694765873 109.853166712448,129.48004660662264 110.89034215547144,138.12008897564374 111.23606730438769,167.4960640037898 106.39591523259878,174.4080201673787 102.24721346236765,176.13600694737397 93.60408476553857,174.8400169464294 88.41820754855871,170.08804925973527 87.72675725258887,161.88008897402324 88.07248240150511,134.23207270517014 92.22118417546153,126.88802948920056 100.51858772151172,124.72801367030479 108.12454097345471,128.61604112689383 109.50744156353176,136.39208230935037 108.81599126756191,168.79205688624643 106.05019008740783,175.2720136709977 107.43309067748487,176.13600694737397 94.64126021042466,174.4080201673787 90.14683328941464,171.38404112542048 87.38103210739791,163.60808230820112 86.68958181142807,155.4001059224829 88.41820754855871,132.50406400556676 93.60408476553857,126.45602643908933 99.82713742554188,125.59202016703784 106.74164038151503,129.9120492611546 109.16171641647816,137.68808739329688 109.50744156353176,161.44809049996547 108.81599126756191,170.08804925973527 103.63011405058205,175.2720136709977 95.33271050453186,175.7040103371255 89.10965784452856,170.95204389304854 87.03530695848167,162.7440857538022 87.72675725258887,138.55209050001577 89.10965784452856,130.77605440234765 95.6784356534481,126.45602643908933 102.24721346236765,125.59202016703784 108.47026612050831,130.77605440234765 109.50744156353176,138.98409196874127 110.1988918595016,165.33607473876327 107.08736553043127,172.6800324821379 99.82713742554188,175.2720136709977 91.87545902654529,173.54402643628418 89.10965784452856,170.08804925973527 87.03530695848167,162.312087391736 86.34385666437447,146.32810829486698 87.38103210739791,138.12008897564374 89.4553829934448,131.20805688761175 95.33271050453186,126.02402333146892 103.63011405058205,126.45602643908933 109.50744156353176,130.77605440234765 111.23606730438769,136.82408406003378 112.61896789260209,162.7440857538022 110.5446170065552,170.52004660503007 105.70446493849158,173.97602333012037 97.75278653949499,175.7040103371255 90.83828358352184,172.24803542043082 88.07248240150511,164.4720786351245 88.41820754855871,148.05610976391472 88.76393269747496,140.28009603684768 90.14683328941464,132.07206168887205 91.87545902654529,129.48004660662264 99.82713742554188,126.02402333146892 107.08736553043127,129.48004660662264 109.853166712448,137.25608575437218 109.50744156353176,154.1041077862028 110.89034215547144,161.88008897402324 109.853166712448,170.08804925973527 106.39591523259878,173.97602333012037 98.78996198251843,175.7040103371255 91.18400873243809,172.24803542043082 87.72675725258887,166.20007061376236 87.38103210739791,149.78411032888107 88.07248240150511,135.09607671713457 92.22118417546153,127.75203542085364 100.17286257259548,125.16001694765873 107.77881582453847,129.04804389551282 110.5446170065552,136.39208230935037 111.58179244957864,161.88008897402324 110.5446170065552,169.65605186019093 103.63011405058205,174.8400169464294 94.98698535747826,173.97602333012037 89.10965784452856,168.36005931603722 88.07248240150511,165.7680727043189 86.68958181142807,140.71209727879614 87.72675725258887,132.93606626498513 89.10965784452856,130.77605440234765 94.98698535747826,125.59202016703784 103.28438890352845,125.16001694765873 109.16171641647816,130.34405185934156 111.23606730438769,137.68808739329688 111.23606730438769,152.37610948085785 109.853166712448,168.36005931603722 104.6672894936055,173.97602333012037 99.13568713143468,175.2720136709977 91.87545902654529,173.1120294877328 87.72675725258887,166.20007061376236 87.03530695848167,138.12008897564374 88.76393269747496,130.77605440234765 91.18400873243809,128.184038301697 98.78996198251843,125.16001694765873 106.05019008740783,127.32003248273395 110.5446170065552,131.64005931699648 111.58179244957864,139.41609338135459 112.27324274554849,163.60808230820112 109.50744156353176,171.81603830051608 102.93866375647485,175.2720136709977 96.0241608005017,174.8400169464294 89.4553829934448,170.08804925973527 87.72675725258887,162.312087391736 87.03530695848167,135.9600805011578 90.49255843646824,128.61604112689383 96.0241608005017,125.16001694765873 104.6672894936055,126.02402333146892 110.89034215547144,131.64005931699648 112.96469304151833,162.312087391736 110.89034215547144,170.08804925973527 103.9758391994983,174.4080201673787 99.13568713143468,174.4080201673787 92.91263446956873,171.81603830051608 88.41820754855871,165.7680727043189 87.03530695848167,139.41609338135459 88.76393269747496,131.64005931699648 94.98698535747826,126.02402333146892 102.93866375647485,125.59202016703784 106.74164038151503,127.75203542085364 110.5446170065552,134.66407473944128 110.89034215547144,164.90407671383582 108.12454097345471,172.24803542043082 100.86431286856532,175.2720136709977 96.7156110946089,174.8400169464294 90.14683328941464,170.95204389304854 87.38103210739791,162.7440857538022 87.03530695848167,138.12008897564374 90.14683328941464,129.9120492611546 96.0241608005017,125.59202016703784 98.09851168841124,125.16001694765873 102.93866375647485,125.59202016703784 106.39591523259878,127.75203542085364 110.1988918595016,135.52807863731869 111.23606730438769,168.79205688624643 105.70446493849158,174.4080201673787 97.75278653949499,174.4080201673787 90.83828358352184,170.95204389304854 89.10965784452856,167.92806168855168 87.72675725258887,159.72009603562765 87.38103210739791,138.12008897564374 90.49255843646824,130.34405185934156 97.06133624352515,126.02402333146892 105.01301464252174,127.32003248273395 106.74164038151503,128.184038301697 110.5446170065552,133.80007061501965 111.23606730438769,142.0081006679684 111.92751759849489,167.4960640037898 106.74164038151503,174.4080201673787 98.44423683546484,175.2720136709977 90.83828358352184,171.38404112542048 89.10965784452856,168.79205688624643 87.72675725258887,160.58409337955527 87.38103210739791,135.52807863731869 91.18400873243809,127.75203542085364 94.98698535747826,126.02402333146892 103.9758391994983,126.45602643908933 107.77881582453847,129.04804389551282 109.16171641647816,130.77605440234765 110.89034215547144,138.98409196874127 111.92751759849489,155.4001059224829 112.96469304151833,164.0400805012323 110.5446170065552,171.81603830051608 103.9758391994983,177.0 96.0241608005017,175.7040103371255 92.91263446956873,174.4080201673787 88.41820754855871,169.2240544015076 87.03530695848167,161.01609196793288 89.10965784452856,135.09607671713457 93.60408476553857,127.75203542085364 101.21003801748157,125.59202016703784 108.12454097345471,129.04804389551282 111.23606730438769,136.39208230935037 112.27324274554849,161.01609196793288 111.58179244957864,169.65605186019093 110.89034215547144,170.52004660503007 105.01301464252174,175.7040103371255 96.7156110946089,175.2720136709977 90.14683328941464,170.08804925973527 88.41820754855871,162.312087391736 88.07248240150511,154.53610722045414 88.41820754855871,137.68808739329688 90.83828358352184,130.34405185934156 92.22118417546153,128.61604112689383 99.13568713143468,125.59202016703784 106.39591523259878,127.75203542085364 110.89034215547144,134.66407473944128 112.61896789260209,165.33607473876327 109.16171641647816,172.24803542043082 102.24721346236765,175.7040103371255 100.17286257259548,175.7040103371255 92.22118417546153,172.24803542043082 88.76393269747496,167.92806168855168 88.41820754855871,159.28809727844782 89.10965784452856,137.68808739329688 91.87545902654529,130.34405185934156 98.09851168841124,126.02402333146892 105.70446493849158,127.32003248273395 109.16171641647816,130.34405185934156 111.58179244957864,136.82408406003378 113.31041819043458,153.6721082937438 113.65614333748817,161.44809049996547 111.92751759849489,169.65605186019093 107.08736553043127,176.13600694737397 99.48141227848828,175.2720136709977 92.22118417546153,172.24803542043082 88.76393269747496,167.4960640037898" stroke="#4dd2ff" stroke-linecap="round" stroke-linejoin="round" stroke-width="0.5"><title>2020-11-09 10.0km</title><desc>4312393558</desc></polyline><polyline fill="none" points="172.3666986944154,144.39636071841232 171.55131196789443,165.4529245647136 169.64874293655157,170.88684881222434 167.20258275605738,173.60380667168647 161.2230800902471,176.66038086707704 154.42819069791585,175.98114246781915 148.99227918311954,171.90570834255777 146.54611900169402,165.79254516260698 147.089710152708,133.5283900022041 148.99227918311954,130.13213982596062 153.61280397046357,125.37738211872056 160.13589778821915,124.0188783176709 164.21283142268658,125.37738211872056 168.8333562090993,129.45288925780915 169.92053851298988,131.15101534570567 171.27951639145613,137.6038843500428 171.82310754340142,150.5095742607955 171.55131196789443,164.43406250234693 170.19233408849686,170.54722887836397 165.30001372657716,175.3019038909115 158.77691990789026,176.66038086707704 152.525621666573,174.62266513635404 148.72048360761255,170.54722887836397 146.81791457813233,164.43406250234693 146.81791457813233,132.1698904647492 150.6230526380241,126.73588520940393 154.9717818479985,123.67925225570798 158.77691990789026,123.0 165.02821815107018,125.03775623464026 169.64874293655157,129.79251456377096 171.27951639145613,135.9057624824345 170.73592524044216,168.16988810920157 169.64874293655157,171.2264686995186 164.48462699912488,175.3019038909115 160.9512845147401,176.32076169038191 154.42819069791585,175.3019038909115 150.6230526380241,172.58494780678302 149.26407475862652,170.54722887836397 146.81791457813233,164.09444172633812 146.54611900169402,135.9057624824345 148.17689245659858,130.47176504321396 151.71023494005203,125.37738211872056 157.41794203035533,123.33962615043856 163.6692402716726,125.03775623464026 167.47437833156437,128.43401307309978 169.1051517855376,130.47176504321396 171.55131196789443,138.62275693751872 172.3666986944154,164.77368323365226 170.46412966400385,170.88684881222434 166.3871960286051,174.62266513635404 164.21283142268658,175.6415232019499 157.41794203035533,176.66038086707704 153.0692128194496,175.3019038909115 149.8076659096405,171.90570834255777 147.089710152708,165.79254516260698 147.089710152708,136.24538694461808 149.26407475862652,129.79251456377096 153.61280397046357,125.03775623464026 159.86410221178085,124.0188783176709 165.8436048766598,126.39625950390473 169.64874293655157,131.15101534570567 171.55131196789443,137.26426006504335 172.63849426992238,150.84919681306928 172.63849426992238,163.754820905393 171.00772081501782,169.8679888821207 166.3871960286051,174.62266513635404 160.13589778821915,176.66038086707704 153.61280397046357,175.3019038909115 148.99227918311954,170.54722887836397 147.089710152708,165.79254516260698 147.089710152708,146.77372325048782 146.54611900169402,136.24538694461808 148.17689245659858,129.79251456377096 152.253826091066,125.03775623464026 157.68973760679364,123.33962615043856 163.94103584811091,125.03775623464026 166.1154004521668,126.39625950390473 169.92053851298988,131.49064042931423 171.27951639145613,137.6038843500428 172.63849426992238,163.41520004044287 171.27951639145613,169.18874870520085 166.6589916041121,173.60380667168647 160.40769336279482,175.98114246781915 154.15639512147754,175.3019038909115 149.26407475862652,171.2264686995186 147.3615057291463,167.490647489205 147.089710152708,137.26426006504335 148.44868803117424,130.8113902164623 152.525621666573,126.05663375207223 158.77691990789026,123.0 164.75642257463187,124.69813030702062 169.1051517855376,129.45288925780915 171.27951639145613,135.9057624824345 171.55131196789443,161.71709504863247 170.73592524044216,167.83026782190427 168.5615606335923,171.56608854280785 163.1256491197273,175.3019038909115 157.14614645484835,176.32076169038191 151.43843936547637,174.62266513635404 147.6333013046533,169.8679888821207 146.54611900169402,163.754820905393 146.27432342618704,138.28313278662972 147.089710152708,133.5283900022041 150.6230526380241,127.7547620604746 153.34100839402527,126.05663375207223 159.32051105983555,123.67925225570798 165.57180930115283,125.71700795763172 170.46412966400385,130.47176504321396 171.00772081501782,133.1887651840225 172.09490311797708,165.11330392211676 170.19233408849686,169.8679888821207 166.1154004521668,174.28304569399916 160.13589778821915,176.66038086707704 155.78716857545078,176.66038086707704 150.6230526380241,172.92456747335382 147.089710152708,167.490647489205 147.3615057291463,136.92463573627174 148.72048360761255,130.47176504321396 153.0692128194496,125.37738211872056 159.59230663534254,123.0 160.9512845147401,123.0 166.6589916041121,125.71700795763172 168.01796948257834,127.07551087043248 170.73592524044216,133.1887651840225 171.55131196789443,139.30200510751456 171.82310754340142,161.71709504863247 171.00772081501782,167.83026782190427 169.1051517855376,171.2264686995186 166.6589916041121,173.60380667168647 160.9512845147401,175.98114246781915 154.15639512147754,175.6415232019499 149.26407475862652,171.56608854280785 147.089710152708,165.11330392211676 146.81791457813233,133.86801477498375 148.72048360761255,128.09438758855686 153.61280397046357,123.67925225570798 160.13589778821915,123.33962615043856 165.8436048766598,125.71700795763172 169.92053851298988,131.15101534570567 171.27951639145613,137.26426006504335 171.00772081501782,167.490647489205 168.28976505901664,172.58494780678302 165.02821815107018,174.96228453610092 159.04871548432857,176.32076169038191 156.60255530290306,175.98114246781915 150.89484821259975,172.92456747335382 147.9050968810916,167.490647489205 146.27432342618704,134.54726418852806 148.44868803117424,128.7736385120079 153.61280397046357,124.69813030702062 160.40769336279482,124.0188783176709 166.6589916041121,126.73588520940393 170.19233408849686,132.50951541541144 171.00772081501782,138.62275693751872 170.73592524044216,150.5095742607955 171.55131196789443,157.30201687593944 171.55131196789443,166.13216571696103 169.3769473619759,171.56608854280785 165.30001372657716,174.96228453610092 159.32051105983555,176.32076169038191 153.34100839402527,174.96228453610092 148.72048360761255,170.20760890189558 146.81791457813233,163.754820905393 146.27432342618704,137.94350859103724 147.6333013046533,131.49064042931423 151.43843936547637,126.39625950390473 157.41794203035533,123.67925225570798 163.6692402716726,124.35850433493033 168.28976505901664,128.43401307309978 170.73592524044216,134.54726418852806 170.46412966400385,149.83032902213745 171.55131196789443,163.07557913148776 170.46412966400385,169.18874870520085 165.8436048766598,173.94342620507814 159.86410221178085,175.98114246781915 153.34100839402527,174.28304569399916 148.72048360761255,169.8679888821207 147.089710152708,166.8114066917915 146.00252785068005,160.69823152129538 146.54611900169402,154.24541989783756 146.00252785068005,137.26426006504335 147.3615057291463,130.8113902164623 151.98203051555902,125.71700795763172 157.68973760679364,123.67925225570798 160.13589778821915,123.67925225570798 166.6589916041121,126.39625950390473 170.46412966400385,131.49064042931423 171.82310754340142,137.6038843500428 171.82310754340142,164.09444172633812 171.27951639145613,168.16988810920157 167.20258275605738,173.94342620507814 161.76667124032974,175.98114246781915 155.5153729999438,175.3019038909115 150.0794614860788,171.90570834255777 146.54611900169402,166.13216571696103 146.00252785068005,137.94350859103724 147.6333013046533,131.49064042931423 151.71023494005203,126.73588520940393 157.41794203035533,124.0188783176709 163.6692402716726,124.69813030702062 169.1051517855376,128.09438758855686 171.55131196789443,133.86801477498375 171.27951639145613,161.0378527417779 170.46412966400385,167.83026782190427 169.1051517855376,171.2264686995186 164.75642257463187,175.3019038909115 158.77691990789026,176.66038086707704 152.525621666573,174.62266513635404 148.17689245659858,170.20760890189558 146.27432342618704,164.09444172633812 146.27432342618704,136.92463573627174 148.17689245659858,130.47176504321396 153.34100839402527,125.03775623464026 156.87435087841004,123.67925225570798 163.3974446952343,123.67925225570798 166.3871960286051,125.37738211872056 170.19233408849686,129.79251456377096 171.55131196789443,136.58501136209816 171.55131196789443,168.5095083520282 167.74617390800267,173.60380667168647 161.76667124032974,176.32076169038191 155.5153729999438,175.98114246781915 150.0794614860788,172.58494780678302 146.81791457813233,166.8114066917915 147.089710152708,135.2265134244226 149.5358703341335,129.11326390737668 154.6999862715602,125.03775623464026 160.67948893923312,124.0188783176709 166.9307871805504,126.05663375207223 171.00772081501782,131.15101534570567 172.09490311797708,137.26426006504335 171.27951639145613,162.73595817713067 170.46412966400385,168.84912855108269 166.3871960286051,174.28304569399916 162.58205796871334,175.98114246781915 156.33075972739607,175.98114246781915 150.6230526380241,172.92456747335382 147.089710152708,168.16988810920157 146.27432342618704,162.0567161361687 145.45893669966608,150.16995166358538 145.45893669966608,135.9057624824345 147.6333013046533,130.13213982596062 152.253826091066,125.71700795763172 158.77691990789026,124.35850433493033 164.21283142268658,125.03775623464026 166.3871960286051,126.05663375207223 170.73592524044216,130.8113902164623 171.55131196789443,133.86801477498375 172.91028984542936,159.00012475368567 172.63849426992238,165.4529245647136 171.00772081501782,170.20760890189558 165.8436048766598,174.96228453610092 159.59230663534254,177.0 154.15639512147754,175.98114246781915 149.26407475862652,171.90570834255777 146.54611900169402,166.47178622661158 147.089710152708,153.22655343823135 146.81791457813233,134.20763950352557 149.26407475862652,128.7736385120079 154.6999862715602,124.69813030702062 161.2230800902471,124.0188783176709 167.20258275605738,126.39625950390473 168.5615606335923,127.41513648745604 171.27951639145613,133.5283900022041 172.09490311797708,162.0567161361687 171.82310754340142,166.47178622661158 169.1051517855376,172.58494780678302 164.21283142268658,175.98114246781915 159.86410221178085,177.0 155.5153729999438,176.66038086707704 153.0692128194496,175.6415232019499 148.44868803117424,171.56608854280785 146.27432342618704,166.13216571696103 146.81791457813233,134.88688882812858 149.26407475862652,129.11326390737668 154.6999862715602,125.03775623464026 160.67948893923312,124.35850433493033 166.9307871805504,126.39625950390473 170.19233408849686,130.47176504321396 171.55131196789443,136.58501136209816 172.63849426992238,162.73595817713067 171.55131196789443,169.18874870520085 169.1051517855376,172.58494780678302 163.94103584811091,175.6415232019499 161.76667124032974,175.98114246781915 155.5153729999438,175.98114246781915 150.0794614860788,173.2641870949883 146.81791457813233,168.16988810920157 147.089710152708,152.20768657978624 146.54611900169402,138.9623810441699 147.3615057291463,132.50951541541144 151.16664378903806,127.7547620604746 157.14614645484835,124.35850433493033 160.13589778821915,124.35850433493033 166.3871960286051,126.39625950390473 170.73592524044216,131.15101534570567 172.3666986944154,137.6038843500428 173.45388099644333,156.9623951667454 172.3666986944154,167.1510271122679 169.1051517855376,172.92456747335382 163.3974446952343,175.98114246781915 156.60255530290306,176.32076169038191 154.42819069791585,175.6415232019499 149.26407475862652,172.24532809760422 146.81791457813233,167.490647489205 146.81791457813233,147.11334629217163 146.00252785068005,140.66050091432407 146.27432342618704,133.86801477498375 148.44868803117424,129.45288925780915 153.34100839402527,125.71700795763172 155.2435774244368,125.03775623464026 161.76667124032974,124.0188783176709 167.47437833156437,127.07551087043248 171.27951639145613,132.50951541541144 172.09490311797708,138.9623810441699 172.3666986944154,166.13216571696103 169.64874293655157,171.56608854280785 167.20258275605738,173.60380667168647 160.40769336279482,175.98114246781915 153.0692128194496,174.96228453610092 148.99227918311954,171.90570834255777 146.81791457813233,167.490647489205 146.27432342618704,160.69823152129538 146.54611900169402,136.24538694461808 148.72048360761255,130.47176504321396 153.34100839402527,126.39625950390473 159.86410221178085,124.35850433493033 166.1154004521668,126.05663375207223 170.46412966400385,129.79251456377096 172.63849426992238,135.5661379750818 174.54106330033392,154.24541989783756 173.45388099644333,167.1510271122679 171.82310754340142,170.54722887836397 166.9307871805504,174.96228453610092 160.13589778821915,175.98114246781915 154.15639512147754,174.62266513635404 149.26407475862652,170.88684881222434 147.089710152708,164.77368323365226 146.54611900169402,139.30200510751456 147.3615057291463,132.84914032137021 150.6230526380241,128.09438758855686 156.60255530290306,125.03775623464026 163.1256491197273,126.73588520940393 168.01796948257834,130.47176504321396 171.27951639145613,136.24538694461808 170.73592524044216,162.0567161361687 169.3769473619759,168.5095083520282 168.01796948257834,170.54722887836397 162.58205796871334,173.94342620507814 155.78716857545078,173.60380667168647 152.525621666573,171.56608854280785 150.6230526380241,170.20760890189558 147.9050968810916,164.43406250234693 148.44868803117424,151.52844178513624 148.44868803117424,134.20763950352557 151.71023494005203,128.7736385120079 155.78716857545078,126.39625950390473 162.31026239320636,126.05663375207223 165.02821815107018,127.41513648745604 169.3769473619759,132.50951541541144 169.92053851298988,134.20763950352557" stroke="#4dd2ff" stroke-linecap="round" stroke-linejoin="round" stroke-width="0.5"><title>2020-11-06 10.0km</title><desc>4296594658</desc></polyline><polyline fill="none" points="41.812571265691076,238.56281307512836 43.702109464094974,238.52097011406659 45.53392246294243,238.82642301297528 46.2497149372939,238.78458024830616 56.382411630562274,240.24487429593864 59.09164766249887,240.03566544422574 62.33965222349798,239.41640267637194 64.4716362600011,239.32434951990945 66.39196123147849,239.57121900839775 67.0,237.96864010637364 66.37656784494175,239.52937679858223 64.79874572408153,239.29505984757634 62.60518814140232,239.32853375756895 58.85689851769712,240.02311288834971 56.01681870012544,240.19466424259008 45.74558152795362,238.80968591085184 45.518529076405684,238.58791883680533 45.487742303317646,237.87240023114282 45.637827822138206,237.60878581527868 45.399230330687715,236.65055791107807 45.48389395668346,242.09843069054477 45.737884834670695,243.34944208892193 45.65322120867495,241.4122453849268 46.81542189283937,240.84320731104526 51.68358038768929,242.0314861516199 53.92331812999328,242.38294409110313 56.42859179020161,242.47499223574778 54.015678449271945,242.34947200110764 51.80287913342181,241.98127769507482 46.89238882553764,240.86831205349154 44.78349486888328,241.49592696846594 41.454675028522615,240.9227056236341 41.3469213227072,241.0984383364521 40.234749144816305,241.30764323020412 41.154503990881494,241.22396136619136 41.37770809579524,241.85157230798723 41.454675028522615,243.1402447978835 39.76140250856406,242.83063137776116 39.1379703534767,242.44988821125298 38.680017103775754,241.78044342018984 37.310005701263435,242.65908807264714 37.279218928175396,242.93104672798654 36.01696123149304,243.328522394866 33.55786773090949,243.01891001220793 32.976767388841836,243.17790036774386 32.51881413911178,242.93523069701405 31.56442417333892,243.07330150026246 30.602337514268584,242.922678788982 30.08665906501119,243.08585337464683 27.785347776516574,241.14027937753053 26.48075826682907,240.40387250213462 25.953534777654568,240.29926846976014 25.807297605482745,239.95616587627592 25.160775370590272,239.9687184471186 23.890820980624994,239.26577015996372 22.024372862040764,238.91429271730885 20.15022805017361,239.127689998375 15.528363740027999,241.44571803330837 14.096778791339602,241.91433301654615 13.962086659055785,242.09843069054477 14.096778791339602,242.95196657001725 13.792759407078847,242.63816812156801 13.0,240.73860409677582 13.119298745732522,240.70931516185738 13.223204104899196,241.1821203874424 13.504133409354836,241.21977726971454 15.031927023956086,240.65073724624017 20.034777651104378,238.28664895602924 21.67802166477486,237.75105406642615 23.421322691006935,237.48743908095275 24.80287913342181,237.5250984403574 25.868871151673375,237.91842801813254 26.04974344355287,238.2406214708135 26.58081527937611,238.42891548999978 29.02836374004255,238.6339460373856 29.75570125428203,239.03145210924777 30.802451539348112,239.06074191904554 31.002565564442193,239.27413864369373 32.9459806157538,239.68000860805842 33.26924173318548,240.10679654122941 33.19227480045811,240.86831205349154 33.47705245153338,241.06078137283475 34.14666476624552,241.17793628784784 34.37756556442764,241.0231243839844 35.482041049035615,241.2281454623444 35.92075256558019,241.0524131552811 37.43700114024978,240.98965148381103 39.68828392247087,240.29926846976014 40.4733466362668,239.9143239532059 40.73118586090277,239.5461136862432 41.223774230340496,239.73021912145123 42.74771949829301,239.51682412955415 42.78620296467852,238.50841721966572 41.72790763968078,238.55026019008073" stroke="red" stroke-linecap="round" stroke-linejoin="round" stroke-width="0.5"><title>2015-12-06 42.7km</title><desc>445089836</desc></polyline><polyline fill="none" points="83.2272727265954,261.1251474674791 121.2727272734046,253.11985258432105 95.50000000186265,236.21975038712844 84.04545454494655,257.567239954602 118.0,257.1225013672374 102.45454545505345,232.6618280443363 78.72727272845805,245.11454697605222 118.0,250.89615765865892 115.95454545505345,231.77234712755308 84.86363636516035,234.88552975654602 90.99999999813735,248.22772265365347 122.09090909175575,248.22772265365347 104.9090909101069,224.65649502538145 87.31818181835115,244.66980746155605 125.7727272734046,243.78032833198085 105.72727272845805,222.43278950592503 85.2727272734046,239.33293069945648 127.0,240.66715033678338 110.6363636367023,217.9853759841062 86.9090909101069,233.55130882840604 124.95454545505345,238.88819075515494 126.59090909175575,221.09856579685584 91.4090909101069,231.32760661887005 125.36363636516035,242.4461093894206 106.1363636367023,220.65382449468598 84.86363636516035,237.55397071968764 119.6363636367023,247.33824405493215 127.0,235.33027000026777 97.5454545468092,224.65649502538145 82.4090909101069,237.55397071968764 115.95454545505345,249.56194030493498 120.0454545468092,234.88552975654602 90.99999999813735,228.65916287573054 82.0,240.66715033678338 120.86363636516035,249.11720112059265 118.81818181835115,231.77234712755308 78.72727272845805,244.66980746155605 119.2272727265954,255.78828540397808 115.95454545505345,239.77767061209306 78.31818181835115,246.8935047048144 112.6818181835115,255.78828540397808 111.8636363632977,238.44345077639446 75.45454545505345,243.78032833198085 110.22727272845805,257.1225013672374 114.72727272845805,239.33293069945648 78.31818181835115,244.22506791260093 113.5,256.67776274541393 113.09090909175575,240.22241049120203 78.31818181835115,248.6724619041197 109.4090909101069,257.567239954602 115.95454545505345,239.77767061209306 81.59090909175575,239.77767061209306 110.22727272845805,257.1225013672374 118.4090909101069,240.66715033678338 79.1363636367023,246.8935047048144 115.13636363856494,256.2330240919255 113.09090909175575,239.77767061209306 80.3636363632977,252.23037471389398 115.13636363856494,258.45671703247353 113.09090909175575,239.33293069945648 79.1363636367023,250.89615765865892 117.1818181835115,257.1225013672374 109.0,237.55397071968764 77.5,246.44876532256603 111.04545454494655,259.7909323996864 116.3636363632977,240.66715033678338 80.3636363632977,248.6724619041197 114.72727272845805,259.34619397623464 117.59090909175575,240.66715033678338 78.31818181835115,248.6724619041197 116.77272727154195,259.34619397623464 110.22727272845805,237.99871076410636 82.0,252.67511366587132 114.72727272845805,259.34619397623464 122.5,246.00402590679005 105.72727272845805,237.99871076410636 82.4090909101069,252.67511366587132 113.5,256.67776274541393 112.2727272734046,239.33293069945648 82.81818181835115,252.67511366587132 117.59090909175575,255.78828540397808 120.0454545468092,242.0013696765527 96.72727272845805,239.33293069945648 73.0,262.0146240154281 121.68181818164885,250.45141857350245 89.36363636516035,238.44345077639446 82.81818181835115,254.45406914316118 117.1818181835115,256.67776274541393 120.86363636516035,242.4461093894206 98.3636363632977,237.10923064220697 82.4090909101069,257.1225013672374 118.4090909101069,255.34354668436572 99.1818181835115,237.99871076410636 77.5,246.00402590679005 82.4090909101069,257.1225013672374 120.86363636516035,248.6724619041197 90.99999999813735,232.21708760177717 85.68181818164885,257.1225013672374 113.5,258.45671703247353 120.45454545505345,245.11454697605222 85.68181818164885,235.77501021046191 88.95454545505345,258.0119785098359 120.86363636516035,252.23037471389398 117.1818181835115,239.77767061209306 85.2727272734046,238.44345077639446 83.2272727265954,256.2330240919255 121.68181818164885,249.56194030493498 90.18181818164885,233.55130882840604 82.0,253.5645914701745 122.5,248.6724619041197 88.95454545505345,237.10923064220697 88.95454545505345,258.45671703247353 120.45454545505345,249.11720112059265 89.7727272734046,236.66449053073302 87.31818181835115,257.567239954602 120.86363636516035,246.8935047048144 87.31818181835115,237.55397071968764 88.1363636367023,259.7909323996864 120.86363636516035,250.45141857350245 86.0909090898931,238.44345077639446 81.59090909175575,256.67776274541393 119.2272727265954,253.11985258432105 100.81818181835115,236.66449053073302 81.1818181835115,257.567239954602 122.09090909175575,249.56194030493498 85.2727272734046,238.88819075515494 84.86363636516035,258.9014555201866 122.09090909175575,246.8935047048144 87.7272727265954,236.66449053073302 82.81818181835115,255.78828540397808 120.0454545468092,246.44876532256603 83.6363636367023,238.44345077639446 87.31818181835115,257.1225013672374 121.68181818164885,246.00402590679005 84.04545454494655,238.44345077639446 85.68181818164885,257.1225013672374 118.81818181835115,251.34089670935646 115.13636363856494,237.10923064220697 90.5909090898931,238.88819075515494 86.5,256.2330240919255 120.0454545468092,246.00402590679005 88.1363636367023,237.55397071968764 88.1363636367023,256.67776274541393 120.86363636516035,247.7829833701253 88.95454545505345,237.10923064220697 89.7727272734046,256.67776274541393 120.45454545505345,248.6724619041197 92.6363636367023,236.21975038712844 85.2727272734046,257.567239954602 120.45454545505345,247.33824405493215 88.95454545505345,236.66449053073302 76.2727272734046,258.45671703247353 114.72727272845805,257.1225013672374 113.9090909101069,239.33293069945648 90.99999999813735,237.99871076410636 80.3636363632977,256.2330240919255 117.1818181835115,254.89880793029442 112.6818181835115,237.99871076410636 88.95454545505345,237.55397071968764 88.95454545505345,257.567239954602 120.45454545505345,248.6724619041197 90.99999999813735,237.10923064220697 83.2272727265954,255.78828540397808" stroke="#4dd2ff" stroke-linecap="round" stroke-linejoin="round" stroke-width="0.5"><title>2015-11-08 13.5km</title><desc>428835718</desc></polyline><polyline fill="none" points="140.16814159229398,255.5855588624254 181.26548672653735,246.23423816170543 143.51327433809638,232.20723361894488 139.2123893816024,255.06604137364775 179.35398229956627,249.3513464545831 175.53097345121205,232.20723361894488 145.42477875947952,227.53155917441472 136.82300885021687,253.50748867774382 181.7433628309518,245.19520175503567 145.90265486761928,231.16819512471557 139.69026548787951,255.5855588624254 181.7433628309518,249.87086436757818 174.09734513238072,229.09011767012998 149.7256637159735,230.64867581846192 143.03539822995663,255.06604137364775 181.26548672653735,247.7927924823016 150.2035398222506,227.53155917441472 139.2123893816024,253.50748867774382 183.65486725606024,244.1561651933007 145.42477875947952,230.12915647495538 141.12389380671084,252.98797103576362 182.69911504350603,246.23423816170543 149.7256637159735,224.41444113710895 137.30088495463133,249.3513464545831 178.8761061951518,247.7927924823016 178.3982300888747,231.16819512471557 150.6814159285277,225.97300032991916 136.82300885021687,248.83182850154117 181.26548672653735,243.11712847743183 144.94690265506506,230.12915647495538 136.82300885021687,250.39038224238902 179.83185840770602,235.84386713290587 143.03539822995663,224.93396090669557 141.12389380671084,252.46845335373655 181.26548672653735,239.48049875209108 136.82300885021687,231.16819512471557 141.12389380671084,251.94893563445657 179.83185840770602,246.23423816170543 154.9823008850217,226.49251998309046 137.77876106277108,250.90990007901564 179.35398229956627,245.19520175503567 148.29203539714217,227.01203959761187 139.69026548787951,251.94893563445657 181.7433628309518,241.03905458096415 149.7256637159735,227.01203959761187 141.6017699111253,252.46845335373655 180.7876106183976,243.11712847743183 147.3362831864506,228.57059821020812 141.12389380671084,252.46845335373655 182.22123893722892,240.519536010921 146.85840707831085,230.12915647495538 144.46902654878795,254.54652384854853 180.30973451212049,234.2853101445362 137.30088495463133,231.16819512471557 149.7256637159735,253.50748867774382 177.44247787632048,249.3513464545831 176.48672566376626,229.60963709186763 137.30088495463133,232.7267528087832 154.9823008850217,255.06604137364775 183.17699114978313,238.96098006609827 142.55752212181687,229.09011767012998 149.7256637159735,254.54652384854853 178.8761061951518,249.87086436757818 180.30973451212049,231.16819512471557 143.03539822995663,230.64867581846192 149.7256637159735,254.54652384854853 178.8761061951518,250.90990007901564 182.69911504350603,234.2853101445362 140.16814159229398,230.12915647495538 143.51327433809638,253.50748867774382 184.61061946861446,240.00001740129665 142.0796460174024,232.20723361894488 147.81415929459035,254.02700628200546 179.83185840770602,252.46845335373655 184.13274336233735,232.20723361894488 137.77876106277108,236.8829049328342 143.03539822995663,253.50748867774382 173.1415929198265,252.98797103576362 179.35398229956627,231.16819512471557 139.2123893816024,236.36338605266064 163.584070796147,254.54652384854853 184.61061946861446,247.7927924823016 180.7876106183976,230.12915647495538 136.82300885021687,240.00001740129665 174.57522123865783,253.50748867774382 182.69911504350603,232.20723361894488 137.30088495463133,241.03905458096415 176.00884955748916,251.94893563445657 180.30973451212049,229.60963709186763 136.82300885021687,240.519536010921 176.48672566376626,251.94893563445657 178.3982300888747,228.05107871163636 138.73451327346265,236.8829049328342 144.46902654878795,254.02700628200546 175.05309734493494,252.46845335373655 180.30973451212049,229.60963709186763 135.8672566358,240.519536010921 176.00884955748916,252.46845335373655 173.61946902610362,228.57059821020812 137.30088495463133,241.5585731137544 180.7876106183976,250.90990007901564 178.8761061951518,229.60963709186763 136.82300885021687,238.96098006609827 177.9203539825976,252.46845335373655 181.26548672653735,229.09011767012998 135.8672566358,243.11712847743183 179.35398229956627,251.4294178755954 172.66371681541204,228.57059821020812 136.82300885021687,248.83182850154117 176.00884955748916,252.98797103576362 169.3185840714723,227.53155917441472 138.73451327346265,250.39038224238902 183.65486725606024,250.90990007901564 166.45132743380964,227.53155917441472 139.69026548787951,235.32434817636386 141.6017699111253,252.98797103576362 187.0,253.50748867774382 159.28318583965302,226.49251998309046 143.51327433809638,251.4294178755954 182.69911504350603,247.27327441470698 162.62831858545542,230.12915647495538 133.0,255.06604137364775" stroke="#4dd2ff" stroke-linecap="round" stroke-linejoin="round" stroke-width="0.5"><title>2015-11-06 10.1km</title><desc>430491056</desc></polyline></svg>