<?xml version="1.0" encoding="utf-8" ?>
<svg baseProfile="full" height="200mm" version="1.1" viewBox="0,0,200,200" width="200mm" xmlns="http://www.w3.org/2000/svg" xmlns:ev="http://www.w3.org/2001/xml-events" xmlns:xlink="http://www.w3.org/1999/xlink"><defs /><rect fill="#1a1a1a" height="200" width="200" x="0" y="0" /><rect fill="#1a1a1a" height="200" width="180" x="10" y="0" /><text alignment-baseline="middle" fill="#e1ed5e" style="dominant-baseline: central; font-size:9.0px; font-family:Arial;" text-anchor="middle" x="100.0" y="100.0">2023</text><line stroke="#e1ed5e" stroke-width="0.3" x1="100.0" x2="100.0" y1="15.0" y2="10.0" /><path d="M 100.0 14.0 a86.0,86.0 0 0,1 42.46469731375804,11.215312516191453" fill="none" id="id121" stroke="none" /><text fill="#e1ed5e" style="font-size:6.75px; font-family:Arial;" text-anchor="middle"><textPath startOffset="22.20632615414155" xlink:href="#id121">January</textPath></text><line stroke="#e1ed5e" stroke-width="0.3" x1="143.23703022742887" x2="145.7803849466894" y1="26.81831364943548" y2="22.513508569990506" /><path d="M 143.74570117128098 25.957352633546492 a86.0,86.0 0 0,1 28.547481713284135,27.462654790039103" fill="none" id="id122" stroke="none" /><text fill="#e1ed5e" style="font-size:6.75px; font-family:Arial;" text-anchor="middle"><textPath startOffset="19.985693538727396" xlink:href="#id122">February</textPath></text><line stroke="#e1ed5e" stroke-width="0.3" x1="172.23445277983987" x2="176.4835382374775" y1="55.19839476539836" y2="52.563006222186495" /><path d="M 173.08426987136738 54.67131705675599 a86.0,86.0 0 0,1 12.851231095245387,41.99856678651699" fill="none" id="id123" stroke="none" /><text fill="#e1ed5e" style="font-size:6.75px; font-family:Arial;" text-anchor="middle"><textPath startOffset="22.20632615414155" xlink:href="#id123">March</textPath></text><path d="M 119.34039704204932 91.81776055985345 l 5.454902608704988 -2.307776782972127 a26.922988785274008,26.922988785274008 0 0,0 0.17689469412256822,0.4283645329790753 l -5.493818989713754 2.213537679539749" fill="#ff3f05" stroke="none" /><path d="M 120.45610955862082 95.25157060432595 l 7.192968757021148 -1.669687199813133 a28.38421660602546,28.38421660602546 0 0,0 0.10638081749734182,0.4768843456584864 l -7.220643961520527 1.5456246846046828" fill="#ff5407" stroke="none" /><path d="M 120.98425023603335 99.18683210126433 l 1.5592012559281752 -0.060421144178501675 a22.560371517027864,22.560371517027864 0 0,0 0.011697343727217223,0.38817789115642515 l -1.5600102941110374 0.033573105597077456" fill="#ff0000" stroke="none" /><line stroke="#e1ed5e" stroke-width="0.3" x1="184.98032266829074" x2="189.97916517819016" y1="98.17113171792111" y2="98.06355123074" /><path d="M 185.9800911702706 98.14961562048488 a86.0,86.0 0 0,1 -9.607161424134198,41.387399972396054" fill="none" id="id124" stroke="none" /><text fill="#e1ed5e" style="font-size:6.75px; font-family:Arial;" text-anchor="middle"><textPath startOffset="21.466115282336823" xlink:href="#id124">April</textPath></text><path d="M 120.81339534386255 102.79330883721812 l 13.32927114381717 1.7888850072066733 a34.44877610767634,34.44877610767634 0 0,0 -0.08393353908885191,0.5870309768983365 l -13.296503553711718 -2.018061456085419" fill="#ffa60f" stroke="none" /><line stroke="#e1ed5e" stroke-width="0.3" x1="174.80103733775053" x2="179.2010983576182" y1="140.37084112569926" y2="142.7455964860345" /><path d="M 175.68104954172406 140.8457921977663 a86.0,86.0 0 0,1 -30.038265399797805,32.042727171017184" fill="none" id="id125" stroke="none" /><text fill="#e1ed5e" style="font-size:6.75px; font-family:Arial;" text-anchor="middle"><textPath startOffset="22.206326154141568" xlink:href="#id125">May</textPath></text><line stroke="#e1ed5e" stroke-width="0.3" x1="143.8653032363475" x2="146.44561519142675" y1="172.8068346515853" y2="177.08958963109032" /><path d="M 144.38136562736335 173.6633856474863 a86.0,86.0 0 0,1 -40.68145358897372,12.25698825130547" fill="none" id="id126" stroke="none" /><text fill="#e1ed5e" style="font-size:6.75px; font-family:Arial;" text-anchor="middle"><textPath startOffset="21.466115282336833" xlink:href="#id126">June</textPath></text><path d="M 104.13013068566511 120.58985236759428 l 1.1069741502942112 5.518574607919576 a26.62850401728508,26.62850401728508 0 0,0 -0.45018958579255597,0.08627990557738802 l -1.011816949929951 -5.5368117118454325" fill="#ff3b05" stroke="none" /><path d="M 103.06178313531738 120.77559828337769 l 0.34144467816453805 2.316858234575228 a23.341883119919935,23.341883119919935 0 0,0 -0.39800290348105105,0.055159575811757726 l -0.3015131834966565 -2.322392375879588" fill="#ff0b01" stroke="none" /><line stroke="#e1ed5e" stroke-width="0.3" x1="102.19456741930631" x2="102.32365962044197" y1="184.97166512339345" y2="189.96999836594603" /><path d="M 102.22038585953345 185.97133177190398 a86.0,86.0 0 0,1 -42.740103519485714,-10.115201625700543" fill="none" id="id127" stroke="none" /><text fill="#e1ed5e" style="font-size:6.75px; font-family:Arial;" text-anchor="middle"><textPath startOffset="22.20632615414155" xlink:href="#id127">July</textPath></text><path d="M 98.37488393609728 120.93702456842531 l -0.2139830646375139 2.756829977290016 a23.765122108630383,23.765122108630383 0 0,0 -0.40757827461854035,-0.03516756853402649 l 0.26140565699759594 -2.7527381564773266" fill="#ff1202" stroke="none" /><path d="M 95.86986931433489 120.58985236759428 l -0.4971779103056679 2.4785704261496586 a23.527943280985475,23.527943280985475 0 0,0 -0.3963993918008452,-0.08306934667096347 l 0.5397687635358999 -2.469645098752154" fill="#ff0e01" stroke="none" /><line stroke="#e1ed5e" stroke-width="0.3" x1="58.666819895761336" x2="56.23545636021788" y1="174.27360380694188" y2="178.64263932499728" /><path d="M 58.180547188652646 175.14741091055294 a86.0,86.0 0 0,1 -31.652253787137756,-30.449443065178592" fill="none" id="id128" stroke="none" /><text fill="#e1ed5e" style="font-size:6.75px; font-family:Arial;" text-anchor="middle"><textPath startOffset="22.20632615414155" xlink:href="#id128">August</textPath></text><line stroke="#e1ed5e" stroke-width="0.3" x1="26.63291911575756" x2="22.317208475507996" y1="142.92168965132927" y2="145.44649492493687" /><path d="M 25.769776987707644 143.4266507060508 a86.0,86.0 0 0,1 -11.730757126820373,-40.83630448921669" fill="none" id="id129" stroke="none" /><text fill="#e1ed5e" style="font-size:6.75px; font-family:Arial;" text-anchor="middle"><textPath startOffset="21.46611528233685" xlink:href="#id129">September</textPath></text><path d="M 81.87401531095188 110.60418214915194 l -2.722381741644052 1.5926655772451184 a24.154036459551225,24.154036459551225 0 0,0 -0.2068597734339519,-0.36067745124429273 l 2.7493935112303807 -1.5455682801425188" fill="#ff1702" stroke="none" /><path d="M 81.69416730710424 110.29060199501025 l -5.646979461132402 3.1744427627738014 a27.4780756315883,27.4780756315883 0 0,0 -0.22822974347735325,-0.41430327822167756 l 5.700785614061271 -3.0767689661543014" fill="#ff4706" stroke="none" /><path d="M 79.76711848015287 105.62410040840567 l -2.9699829239858664 0.8255612113065443 a24.082588179173722,24.082588179173722 0 0,0 -0.10758256779795808,-0.40035475647376834 l 2.983753568125599 -0.7743155216572369" fill="#ff1602" stroke="none" /><path d="M 79.58551787078972 104.9243191809786 l -7.178904164988231 1.731673390209397 a28.38480587019352,28.38480587019352 0 0,0 -0.11048371276193686,-0.47596094295101504 l 7.207648443680723 -1.6078437899098077" fill="#ff5407" stroke="none" /><path d="M 79.4281124754447 104.21870165774334 l -7.786975009616317 1.5968843083874713 a28.949026311112775,28.949026311112775 0 0,0 -0.09590408098825291,-0.4890128427912313 l 7.813309023580236 -1.462607738528285" fill="#ff5c08" stroke="none" /><path d="M 79.35854240842038 103.8639653848113 l -7.758574302571446 1.452361704962732 a28.893340847230927,28.893340847230927 0 0,0 -0.08730406045063056,-0.48964753505731473 l 7.7824248053612655 -1.3185954191722036" fill="#ff5b08" stroke="none" /><path d="M 79.23777060512086 103.15116336523772 l -8.81447551337553 1.3378068314949192 a29.91541954673426,29.91541954673426 0 0,0 -0.07288813477834485,-0.5097794448764232 l 8.836197699170475 -1.1858819146380954" fill="#ff6909" stroke="none" /><path d="M 79.1416061653843 102.43462659150553 l -9.043472479598531 1.0555692232562888 a30.104867976766158,30.104867976766158 0 0,0 -0.05564769945108319,-0.5152285847629903 l 9.060302480550666 -0.8997443166085164" fill="#ff6c09" stroke="none" /><path d="M 79.07016306316243 101.71520430193888 l -9.193815504037593 0.7534350100933153 a30.224635918924733,30.224635918924733 0 0,0 -0.038030423528358594,-0.5188949137322516 l 9.205422486230287 -0.595066959864303" fill="#ff6d0a" stroke="none" /><line stroke="#e1ed5e" stroke-width="0.3" x1="15.007084014347285" x2="10.007500721073583" y1="101.09737516637583" y2="101.16192664675087" /><path d="M 14.007167355692545 101.11028546245083 a86.0,86.0 0 0,1 10.666146001902534,-42.60595125391555" fill="none" id="id130" stroke="none" /><text fill="#e1ed5e" style="font-size:6.75px; font-family:Arial;" text-anchor="middle"><textPath startOffset="22.20632615414155" xlink:href="#id130">October</textPath></text><path d="M 79.00175016825051 100.2711162175752 l -10.329676485446814 0.13337029704615816 a31.330537446334873,31.330537446334873 0 0,0 -0.0023210000965043095,-0.5393186823635657 l 10.330441782832821 0.044457863521082976" fill="#ff7c0b" stroke="none" /><path d="M 79.00486145842228 99.54816195383935 l -4.437457529387411 -0.09549887637219638 a25.438485029884113,25.438485029884113 0 0,0 0.013189618932898916,-0.4376992402656911 l 4.435156215998867 0.1718682640628819" fill="#ff2a04" stroke="none" /><path d="M 79.05617556472873 98.46500227214037 l -16.08898391051545 -1.1791807089740598 a37.132137812988134,37.132137812988134 0 0,0 0.052206930276859305,-0.6370567846829727 l 16.06630249641909 1.4559514108648108" fill="#ffc912" stroke="none" /><path d="M 79.12142395522702 97.74499172005258 l -8.795910350253305 -0.9500097433350662 a29.847064903239083,29.847064903239083 0 0,0 0.05956571209398669,-0.5103226450539166 l 8.778254285155729 1.1012761267138444" fill="#ff6809" stroke="none" /><path d="M 79.16333360222342 97.38593545837743 l -8.822836211006573 -1.1068691534168287 a29.8919962960538,29.8919962960538 0 0,0 0.06844413228869893,-0.5099882853308199 l 8.80247607966004 1.258575780812308" fill="#ff6909" stroke="none" /><path d="M 79.26566170972629 96.67025291283419 l -11.696264801304196 -1.878314277872647 a32.84612488659003,32.84612488659003 0 0,0 0.09445315896073561,-0.5574678908730405 l 11.662199780823236 2.0793679570615153" fill="#ff910d" stroke="none" /><path d="M 79.46518482838121 95.60439243477599 l -14.455261039535175 -3.0942404035117366 a35.78272286812643,35.78272286812643 0 0,0 0.13410957800343326,-0.6011869419437571 l 14.399857074529704 3.3426055150054528" fill="#ffb711" stroke="none" /><path d="M 79.62865764111835 94.90015583598534 l -14.376627145353313 -3.599102933610988 a35.820288458840366,35.820288458840366 0 0,0 0.1548863612155429,-0.5968403318866202 l 14.312544452267462 3.846039691046472" fill="#ffb811" stroke="none" /><path d="M 79.81627453868168 94.20196356495316 l -12.060339018717352 -3.4644885149450024 a33.548085826793745,33.548085826793745 0 0,0 0.16421644696117724,-0.553656222784364 l 11.998916674644468 3.6715741244759057" fill="#ff9a0e" stroke="none" /><path d="M 80.14247586403 93.16781622104843 l -10.179040460446341 -3.5022027239125437 a31.76467782215446,31.76467782215446 0 0,0 0.18233971669188992,-0.5154989332182965 l 10.117247662944642 3.6768992835574514" fill="#ff820c" stroke="none" /><path d="M 80.65960295795068 91.81776055985345 l -11.289149287795967 -4.776040654567593 a33.25787322402327,33.25787322402327 0 0,0 0.22759358824602377,-0.5253173808399502 l 11.205264989707263 4.969657179994143" fill="#ff960d" stroke="none" /><path d="M 80.95270993114464 91.15688171328213 l -9.413766758165986 -4.370545766095804 a31.378857108115945,31.378857108115945 0 0,0 0.23166831815351854,-0.48795256081844085 l 9.337140246170716 4.531940742554777" fill="#ff7d0b" stroke="none" /><path d="M 81.43458229118936 90.18545643968196 l -10.899952561686758 -5.762222046386066 a33.329321504400774,33.329321504400774 0 0,0 0.27249402670710626,-0.5048900468178974 l 10.799150435761181 5.948993076536436" fill="#ff970d" stroke="none" /><line stroke="#e1ed5e" stroke-width="0.3" x1="26.266209847984243" x2="21.928928074336255" y1="57.711370442889674" y2="55.22380399835377" /><path d="M 25.398753493254645 57.213857153982495 a86.0,86.0 0 0,1 29.58750427330803,-30.492523968695096" fill="none" id="id131" stroke="none" /><text fill="#e1ed5e" style="font-size:6.75px; font-family:Arial;" text-anchor="middle"><textPath startOffset="21.46611528233685" xlink:href="#id131">November</textPath></text><path d="M 81.78341655067845 89.55222093294921 l -26.972046330177697 -15.46931024842915 a52.09326040799529,52.09326040799529 0 0,0 0.4528152720370282,-0.7740080821383063 l 26.701771383670344 15.931297742921348" fill="#84ff25" stroke="none" /><path d="M 82.7489923806493 88.02491185347247 l -8.492950212270953 -5.895529679201557 a31.33863982864572,31.33863982864572 0 0,0 0.3114275545119007,-0.4404921901458586 l 8.390210037955175 6.040848369679202" fill="#ff7c0b" stroke="none" /><path d="M 83.17141714833178 87.43820079747576 l -9.481454302084872 -7.077489895644595 a32.83168791447252,32.83168791447252 0 0,0 0.341956193807071,-0.44997426739562374 l 9.358222168053691 7.2396489389212455" fill="#ff910d" stroke="none" /><path d="M 84.07557802195018 86.31012108654704 l -47.77326593414944 -41.06963674035889 a84.0,84.0 0 0,0 0.9520325456886258,-1.0883377751882275 l 47.05924152488297 41.885890071750055" fill="#4dd2ff" stroke="none" /><path d="M 85.31137513191541 84.99185889309783 l -1.529443979569693 -1.5627134103178444 a23.186612011635628,23.186612011635628 0 0,0 0.2876429025184971,-0.2767122443236183 l 1.5023178334387683 1.5888087414037764" fill="#ff0901" stroke="none" /><path d="M 87.22198572758235 83.33499621200491 l -1.7772606393461852 -2.3178918614053865 a23.920835165040735,23.920835165040735 0 0,0 0.3289158647246224,-0.24773261016958803 l 1.737098620863173 2.348141061080829" fill="#ff1402" stroke="none" /><line stroke="#e1ed5e" stroke-width="0.3" x1="56.762969772571076" x2="54.21961505331055" y1="26.818313649435495" y2="22.513508569990535" /><path d="M 56.25429882871897 25.957352633546506 a86.0,86.0 0 0,1 42.265352541879196,-11.944610805530505" fill="none" id="id132" stroke="none" /><text fill="#e1ed5e" style="font-size:6.75px; font-family:Arial;" text-anchor="middle"><textPath startOffset="22.20632615414155" xlink:href="#id132">December</textPath></text></svg>