<?xml version="1.0" encoding="utf-8" ?>
<svg baseProfile="full" height="200mm" version="1.1" viewBox="0,0,200,200" width="200mm" xmlns="http://www.w3.org/2000/svg" xmlns:ev="http://www.w3.org/2001/xml-events" xmlns:xlink="http://www.w3.org/1999/xlink"><defs /><rect fill="#1a1a1a" height="200" width="200" x="0" y="0" /><rect fill="#1a1a1a" height="200" width="180" x="10" y="0" /><text alignment-baseline="middle" fill="#e1ed5e" style="dominant-baseline: central; font-size:9.0px; font-family:Arial;" text-anchor="middle" x="100.0" y="100.0">2021</text><line stroke="#e1ed5e" stroke-width="0.3" x1="100.0" x2="100.0" y1="15.0" y2="10.0" /><path d="M 100.0 14.0 a86.0,86.0 0 0,1 42.46469731375804,11.215312516191453" fill="none" id="id97" stroke="none" /><text fill="#e1ed5e" style="font-size:6.75px; font-family:Arial;" text-anchor="middle"><textPath startOffset="22.20632615414155" xlink:href="#id97">January</textPath></text><line stroke="#e1ed5e" stroke-width="0.3" x1="143.23703022742887" x2="145.7803849466894" y1="26.81831364943548" y2="22.513508569990506" /><path d="M 143.74570117128098 25.957352633546492 a86.0,86.0 0 0,1 28.547481713284135,27.462654790039103" fill="none" id="id98" stroke="none" /><text fill="#e1ed5e" style="font-size:6.75px; font-family:Arial;" text-anchor="middle"><textPath startOffset="19.985693538727396" xlink:href="#id98">February</textPath></text><line stroke="#e1ed5e" stroke-width="0.3" x1="172.23445277983987" x2="176.4835382374775" y1="55.19839476539836" y2="52.563006222186495" /><path d="M 173.08426987136738 54.67131705675599 a86.0,86.0 0 0,1 12.851231095245387,41.99856678651699" fill="none" id="id99" stroke="none" /><text fill="#e1ed5e" style="font-size:6.75px; font-family:Arial;" text-anchor="middle"><textPath startOffset="22.20632615414155" xlink:href="#id99">March</textPath></text><path d="M 120.73433829027371 96.67025291283417 l 31.11051921255626 -4.996067840603285 a52.509127241844425,52.509127241844425 0 0,0 0.13563384254837954,0.893657556369157 l -31.191908948543936 4.459811171842046" fill="red" stroke="none" /><path d="M 120.87857604477298 97.74499172005257 l 31.49778884948068 -3.40194534834653 a52.68097117450168,52.68097117450168 0 0,0 0.08961503391451703,0.9024111617963131 l -31.551681009077427 2.8592586558457818" fill="red" stroke="none" /><line stroke="#e1ed5e" stroke-width="0.3" x1="184.98032266829074" x2="189.97916517819016" y1="98.17113171792111" y2="98.06355123074" /><path d="M 185.9800911702706 98.14961562048488 a86.0,86.0 0 0,1 -9.607161424134198,41.387399972396054" fill="none" id="id100" stroke="none" /><text fill="#e1ed5e" style="font-size:6.75px; font-family:Arial;" text-anchor="middle"><textPath startOffset="21.466115282336823" xlink:href="#id100">April</textPath></text><path d="M 120.92983693683757 101.71520430193887 l 37.861915041467284 3.102791472038151 a58.98883948643653,58.98883948643653 0 0,0 -0.09164450968532342,1.0112895277637206 l -37.80289593550489 -3.7540623883504423" fill="red" stroke="none" /><path d="M 120.8583938346157 102.4346265915055 l 38.25598447177296 4.465302449349226 a59.51570165359445,59.51570165359445 0 0,0 -0.127529369072696,1.0165345487748887 l -38.17345359345342 -5.123154752411509" fill="red" stroke="none" /><path d="M 120.70491114924044 103.5080841355445 l 37.73554616397861 6.393626608188407 a59.2733576460009,59.2733576460009 0 0,0 -0.17910025795906703,1.004489360347407 l -37.619899463680355 -7.0422347192690316" fill="red" stroke="none" /><path d="M 120.5718875245553 104.21870165774334 l 49.9595641876246 10.245267771705002 a71.99925063695858,71.99925063695858 0 0,0 -0.2594234528840583,1.2119400053598308 l -49.775806696016105 -11.103721596481002" fill="red" stroke="none" /><path d="M 120.13307415673323 105.97154293290107 l 48.575253185505446 14.40759655557996 a71.6668931408303,71.6668931408303 0 0,0 -0.36097326628398674,1.1796815199894772 l -48.320053146715324 -15.241605048121494" fill="red" stroke="none" /><path d="M 119.9155931802556 106.66101706037122 l 35.92268777184577 12.014788308684583 a58.87868311934856,58.87868311934856 0 0,0 -0.3297463331820671,0.9583971950642171 l -35.71055060772048 -12.6313582068381" fill="red" stroke="none" /><path d="M 119.54520255179757 107.68017299344265 l 58.635607655392704 23.040518980327946 a84.0,84.0 0 0,0 -0.5403895429704302,1.341202528628746 l -58.230315498164885 -24.046420876799505" fill="red" stroke="none" /><path d="M 119.26925614724726 108.34839909993367 l 47.73927646515748 20.6830263518055 a73.0271669081281,73.0271669081281 0 0,0 -0.5096563032001684,1.1491404183817655 l -47.376179077226034 -21.501715106679953" fill="red" stroke="none" /><path d="M 118.97047184881838 109.00673069616215 l 29.73711732444839 14.118478947489514 a53.91849927561573,53.91849927561573 0 0,0 -0.40527902470846805,0.8349948305813586 l -29.48968504312521 -14.628262734036149" fill="red" stroke="none" /><line stroke="#e1ed5e" stroke-width="0.3" x1="174.80103733775053" x2="179.2010983576182" y1="140.37084112569926" y2="142.7455964860345" /><path d="M 175.68104954172406 140.8457921977663 a86.0,86.0 0 0,1 -30.038265399797805,32.042727171017184" fill="none" id="id101" stroke="none" /><text fill="#e1ed5e" style="font-size:6.75px; font-family:Arial;" text-anchor="middle"><textPath startOffset="22.206326154141568" xlink:href="#id101">May</textPath></text><line stroke="#e1ed5e" stroke-width="0.3" x1="143.8653032363475" x2="146.44561519142675" y1="172.8068346515853" y2="177.08958963109032" /><path d="M 144.38136562736335 173.6633856474863 a86.0,86.0 0 0,1 -40.68145358897372,12.25698825130547" fill="none" id="id102" stroke="none" /><text fill="#e1ed5e" style="font-size:6.75px; font-family:Arial;" text-anchor="middle"><textPath startOffset="21.466115282336833" xlink:href="#id102">June</textPath></text><line stroke="#e1ed5e" stroke-width="0.3" x1="102.19456741930631" x2="102.32365962044197" y1="184.97166512339345" y2="189.96999836594603" /><path d="M 102.22038585953345 185.97133177190398 a86.0,86.0 0 0,1 -42.740103519485714,-10.115201625700543" fill="none" id="id103" stroke="none" /><text fill="#e1ed5e" style="font-size:6.75px; font-family:Arial;" text-anchor="middle"><textPath startOffset="22.20632615414155" xlink:href="#id103">July</textPath></text><line stroke="#e1ed5e" stroke-width="0.3" x1="58.666819895761336" x2="56.23545636021788" y1="174.27360380694188" y2="178.64263932499728" /><path d="M 58.180547188652646 175.14741091055294 a86.0,86.0 0 0,1 -31.652253787137756,-30.449443065178592" fill="none" id="id104" stroke="none" /><text fill="#e1ed5e" style="font-size:6.75px; font-family:Arial;" text-anchor="middle"><textPath startOffset="22.20632615414155" xlink:href="#id104">August</textPath></text><line stroke="#e1ed5e" stroke-width="0.3" x1="26.63291911575756" x2="22.317208475507996" y1="142.92168965132927" y2="145.44649492493687" /><path d="M 25.769776987707644 143.4266507060508 a86.0,86.0 0 0,1 -11.730757126820373,-40.83630448921669" fill="none" id="id105" stroke="none" /><text fill="#e1ed5e" style="font-size:6.75px; font-family:Arial;" text-anchor="middle"><textPath startOffset="21.46611528233685" xlink:href="#id105">September</textPath></text><line stroke="#e1ed5e" stroke-width="0.3" x1="15.007084014347285" x2="10.007500721073583" y1="101.09737516637583" y2="101.16192664675087" /><path d="M 14.007167355692545 101.11028546245083 a86.0,86.0 0 0,1 10.666146001902534,-42.60595125391555" fill="none" id="id106" stroke="none" /><text fill="#e1ed5e" style="font-size:6.75px; font-family:Arial;" text-anchor="middle"><textPath startOffset="22.20632615414155" xlink:href="#id106">October</textPath></text><line stroke="#e1ed5e" stroke-width="0.3" x1="26.266209847984243" x2="21.928928074336255" y1="57.711370442889674" y2="55.22380399835377" /><path d="M 25.398753493254645 57.213857153982495 a86.0,86.0 0 0,1 29.58750427330803,-30.492523968695096" fill="none" id="id107" stroke="none" /><text fill="#e1ed5e" style="font-size:6.75px; font-family:Arial;" text-anchor="middle"><textPath startOffset="21.46611528233685" xlink:href="#id107">November</textPath></text><path d="M 81.96595687620814 89.24020034530311 l -16.73633439043972 -9.985537006816319 a40.48886446520457,40.48886446520457 0 0,0 0.3622484751591676,-0.5954412463383849 l 16.561970116994335 10.27214602636178" fill="red" stroke="none" /><path d="M 82.54541684631803 88.32363383020206 l -26.24125711113772 -17.554273515883065 a52.571444272368495,52.571444272368495 0 0,0 0.5096314218244502,-0.7478212263129094 l 25.93520122364453 18.003372765466388" fill="red" stroke="none" /><path d="M 83.17141714833178 87.43820079747576 l -25.322321801081415 -18.902002896539436 a52.599140730379176,52.599140730379176 0 0,0 0.5478427429177126,-0.7208968322752146 l 24.993203117939593 19.33508450469568" fill="red" stroke="none" /><path d="M 83.6137871275137 86.86637796730984 l -25.161600030925555 -20.167133621141577 a53.24623070390169,53.24623070390169 0 0,0 0.5793735241471344,-0.7102434347077643 l 24.81072801470203 20.597261225457423" fill="red" stroke="none" /><path d="M 84.07557802195018 86.31012108654704 l -25.679234258134304 -22.07587867670308 a54.86395563770795,54.86395563770795 0 0,0 0.6218127541942254,-0.7108394692472463 l 25.295429640362237 22.51463370215327" fill="red" stroke="none" /><path d="M 84.80347519578584 85.50635884689758 l -27.383352704105665 -26.116792673025074 a58.840915222061255,58.840915222061255 0 0,0 0.7053505294194276,-0.7269257226286875 l 26.929737910983118 26.584282591203884" fill="red" stroke="none" /><path d="M 85.57189188830299 84.74124197986013 l -26.54621967664044 -28.074529193951896 a59.637817854823396,59.637817854823396 0 0,0 0.7519820950302667,-0.6988854033613116 l 26.05902969781532 28.527319183387856" fill="red" stroke="none" /><path d="M 86.65592168130627 83.78471172551755 l -25.144091382765968 -30.55427886692682 a60.57005545286507,60.57005545286507 0 0,0 0.8107636541219103,-0.6555811568004526 l 24.614424330079558 30.982566120991404" fill="red" stroke="none" /><path d="M 87.51073957382395 83.11751280151077 l -22.488904678473503 -30.399609935799887 a58.813848229005345,58.813848229005345 0 0,0 0.8190659703728788,-0.5950862607178772 l 21.962293391746844 30.782215431334432" fill="red" stroke="none" /><path d="M 88.09926311788651 82.69761687909137 l -21.436665300306576 -31.16659073591096 a58.8270669930559,58.8270669930559 0 0,0 0.8392530053786454,-0.5666673755763607 l 20.897007600521388 31.53097002378599" fill="red" stroke="none" /><path d="M 88.70189139769569 82.29822771554957 l -17.115643965443173 -26.816632999634045 a52.81315881500724,52.81315881500724 0 0,0 0.770520969697205,-0.4825001605366623 l 16.651503843373725 27.107277501493638" fill="red" stroke="none" /><path d="M 89.00827224532344 82.1063720568725 l -16.63568919785568 -27.081532560455415 a52.7829444971774,52.7829444971774 0 0,0 0.7782667558597387,-0.4688970123193314 l 16.16706037577829 27.363876182233366" fill="red" stroke="none" /><line stroke="#e1ed5e" stroke-width="0.3" x1="56.762969772571076" x2="54.21961505331055" y1="26.818313649435495" y2="22.513508569990535" /><path d="M 56.25429882871897 25.957352633546506 a86.0,86.0 0 0,1 42.265352541879196,-11.944610805530505" fill="none" id="id108" stroke="none" /><text fill="#e1ed5e" style="font-size:6.75px; font-family:Arial;" text-anchor="middle"><textPath startOffset="22.20632615414155" xlink:href="#id108">December</textPath></text><path d="M 89.63071344664047 81.73862282372117 l -18.68802687637393 -32.91153212072562 a58.84720987160914,58.84720987160914 0 0,0 0.8851626677982404,-0.4925920662844378 l 18.11874011950364 33.228339584570236" fill="red" stroke="none" /><path d="M 91.23893434514133 80.91482961587045 l -16.1273286904985 -35.13189240036461 a59.65670180346705,59.65670180346705 0 0,0 0.9369450956228029,-0.42037995311195464 l 15.520201476408925 35.40429268399309" fill="red" stroke="none" /><path d="M 91.90106846888425 80.62456947434976 l -14.850212508010582 -35.526817288756845 a59.505630214317826,59.505630214317826 0 0,0 0.9484521087162482,-0.38689742935955823 l 14.236476529705952 35.77717560429998" fill="red" stroke="none" /><path d="M 92.57280143429618 80.3572730644239 l -15.603907103067801 -41.26768439569954 a65.11919868112105,65.11919868112105 0 0,0 1.0518849106744688,-0.38741808982333836 l 14.891239866620763 41.5301657533292" fill="red" stroke="none" /><path d="M 93.25333710446033 80.11325718540243 l -12.166036063216259 -35.86111148702174 a58.868611680071936,58.868611680071936 0 0,0 0.9624097914528493,-0.31729137686174796 l 11.546943449520999 36.06521658814272" fill="red" stroke="none" /><path d="M 93.94186890950719 79.89281104454417 l -11.254559086573309 -37.35434951534918 a60.01297896787731,60.01297896787731 0 0,0 0.991670988829143,-0.28949595504823583 l 10.609897880020744 37.542543799316114" fill="red" stroke="none" /><path d="M 94.63758080256005 79.69619591428918 l -10.039245987921399 -38.011739888654446 a60.31512214617575,60.31512214617575 0 0,0 1.0060881507468529,-0.25647427111250193 l 9.383448948489548 38.17891715593581" fill="red" stroke="none" /><path d="M 95.692805502759 79.44645832069477 l -8.075973544065041 -38.537813638374764 a60.37492131688065,60.37492131688065 0 0,0 1.0189952447848158,-0.20440085989428083 l 7.411411889813089 38.67111845434626" fill="red" stroke="none" /><path d="M 98.55514903715128 79.0497635885617 l -2.1823262232486402 -31.643575344128763 a52.718739071788974,52.718739071788974 0 0,0 0.9058534187820404,-0.0546435519993117 l 1.637310755626977 31.67645216550838" fill="red" stroke="none" /><path d="M 99.27714615592234 79.0124445844662 l -1.0998703152241676 -31.93396477004526 a52.95290003497027,52.95290003497027 0 0,0 0.9112270315155435,-0.02353430584243947 l 0.5500166485137449 31.94816586803006" fill="red" stroke="none" /></svg>