<?xml version="1.0" encoding="utf-8" ?>
<svg baseProfile="full" height="200mm" version="1.1" viewBox="0,0,200,200" width="200mm" xmlns="http://www.w3.org/2000/svg" xmlns:ev="http://www.w3.org/2001/xml-events" xmlns:xlink="http://www.w3.org/1999/xlink"><defs /><rect fill="#1a1a1a" height="200" width="200" x="0" y="0" /><rect fill="#1a1a1a" height="200" width="180" x="10" y="0" /><text alignment-baseline="middle" fill="#e1ed5e" style="dominant-baseline: central; font-size:9.0px; font-family:Arial;" text-anchor="middle" x="100.0" y="100.0">2026</text><line stroke="#e1ed5e" stroke-width="0.3" x1="100.0" x2="100.0" y1="15.0" y2="10.0" /><path d="M 100.0 14.0 a86.0,86.0 0 0,1 42.46469731375804,11.215312516191453" fill="none" id="id157" stroke="none" /><text fill="#e1ed5e" style="font-size:6.75px; font-family:Arial;" text-anchor="middle"><textPath startOffset="22.20632615414155" xlink:href="#id157">January</textPath></text><line stroke="#e1ed5e" stroke-width="0.3" x1="143.23703022742887" x2="145.7803849466894" y1="26.81831364943548" y2="22.513508569990506" /><path d="M 143.74570117128098 25.957352633546492 a86.0,86.0 0 0,1 28.547481713284135,27.462654790039103" fill="none" id="id158" stroke="none" /><text fill="#e1ed5e" style="font-size:6.75px; font-family:Arial;" text-anchor="middle"><textPath startOffset="19.985693538727396" xlink:href="#id158">February</textPath></text><line stroke="#e1ed5e" stroke-width="0.3" x1="172.23445277983987" x2="176.4835382374775" y1="55.19839476539836" y2="52.563006222186495" /><path d="M 173.08426987136738 54.67131705675599 a86.0,86.0 0 0,1 12.851231095245387,41.99856678651699" fill="none" id="id159" stroke="none" /><text fill="#e1ed5e" style="font-size:6.75px; font-family:Arial;" text-anchor="middle"><textPath startOffset="22.20632615414155" xlink:href="#id159">March</textPath></text><line stroke="#e1ed5e" stroke-width="0.3" x1="184.98032266829074" x2="189.97916517819016" y1="98.17113171792111" y2="98.06355123074" /><path d="M 185.9800911702706 98.14961562048488 a86.0,86.0 0 0,1 -9.607161424134198,41.387399972396054" fill="none" id="id160" stroke="none" /><text fill="#e1ed5e" style="font-size:6.75px; font-family:Arial;" text-anchor="middle"><textPath startOffset="21.466115282336823" xlink:href="#id160">April</textPath></text><path d="M 120.41448212921028 104.9243191809786 l 31.758317400486554 7.660644563060104 a53.6691934279313,53.6691934279313 0 0,0 -0.22435942637534503,0.8962043817700831 l -31.621746659816147 -8.206176784227583" fill="red" stroke="none" /><line stroke="#e1ed5e" stroke-width="0.3" x1="174.80103733775053" x2="179.2010983576182" y1="140.37084112569926" y2="142.7455964860345" /><path d="M 175.68104954172406 140.8457921977663 a86.0,86.0 0 0,1 -30.038265399797805,32.042727171017184" fill="none" id="id161" stroke="none" /><text fill="#e1ed5e" style="font-size:6.75px; font-family:Arial;" text-anchor="middle"><textPath startOffset="22.206326154141568" xlink:href="#id161">May</textPath></text><line stroke="#e1ed5e" stroke-width="0.3" x1="143.8653032363475" x2="146.44561519142675" y1="172.8068346515853" y2="177.08958963109032" /><path d="M 144.38136562736335 173.6633856474863 a86.0,86.0 0 0,1 -40.68145358897372,12.25698825130547" fill="none" id="id162" stroke="none" /><text fill="#e1ed5e" style="font-size:6.75px; font-family:Arial;" text-anchor="middle"><textPath startOffset="21.466115282336833" xlink:href="#id162">June</textPath></text><path d="M 108.59647513512805 119.15986991738527 l 13.190035970963836 29.398022961365236 a53.22143390589993,53.22143390589993 0 0,0 -0.8390722110148713,0.36782459924964045 l -12.68204308529121 -29.620712113909327" fill="red" stroke="none" /><path d="M 108.2653958097858 119.30500536409082 l 18.558869135109415 43.34687369485232 a68.15276325616132,68.15276325616132 0 0,0 -1.0824234123829783,0.452453074163223 l -17.809974263228973 -43.65991181203552" fill="red" stroke="none" /><path d="M 107.2578585660854 119.70592522655815 l 16.279230414079606 44.19999292694802 a68.10257654966392,68.10257654966392 0 0,0 -1.1035226033603218,0.3956839441113735 l -15.515988250089551 -44.47366441209935" fill="red" stroke="none" /><path d="M 106.91757812671514 119.82793768551818 l 15.588573741262328 44.68171708161506 a68.32292755787901,68.32292755787901 0 0,0 -1.1137621922571055,0.37784860633085643 l -14.817141816067995 -44.94342867484404" fill="red" stroke="none" /><path d="M 106.2309692047433 120.05430185196036 l 14.075522107578278 45.30190405281336 a68.4382001493652,68.4382001493652 0 0,0 -1.1280082750458382,0.3398596400783346 l -13.293638858092194 -45.53747906199742" fill="red" stroke="none" /><path d="M 105.88484417918355 120.15858648285463 l 17.625525837339595 60.376396736997926 a83.89648991784915,83.89648991784915 0 0,0 -1.3897606641831384,0.39276024564221534 l -16.583634005051852 -60.67084577597866" fill="red" stroke="none" /><path d="M 105.18746579009965 120.34920634021253 l 11.638286766272122 45.654257480681444 a68.11433905899925,68.11433905899925 0 0,0 -1.1386340470737564,0.27984854594199887 l -10.850699434455155 -45.84782728493747" fill="red" stroke="none" /><path d="M 104.13013068566511 120.58985236759428 l 7.629174934969436 38.03356299179065 a59.79118745332338,59.79118745332338 0 0,0 -1.0108479956735132,0.19373142420933542 l -6.973359324724218 -38.159251614348456" fill="red" stroke="none" /><path d="M 103.7750983002368 120.6578951692458 l 8.515116236960585 46.59597302831563 a68.36762509335324,68.36762509335324 0 0,0 -1.159485714048145,0.20159145375825524 l -7.7117815514403905 -46.73564306059489" fill="red" stroke="none" /><path d="M 103.06178313531738 120.77559828337769 l 9.159510608768347 62.151466798899186 a83.8227781926811,83.8227781926811 0 0,0 -1.4292638227660546,0.19808294235376175 l -8.088318194815463 -62.29992430674555" fill="red" stroke="none" /><path d="M 102.70371172650421 120.8252237178851 l 6.097384839824313 46.96484545250007 a68.358999253174,68.358999253174 0 0,0 -1.168198581886444,0.14145257949575274 l -5.288058834886489 -47.06284356072118" fill="red" stroke="none" /><path d="M 101.98527174616119 120.90594882070398 l 4.466490765728595 47.034481570105115 a68.2460791635549,68.2460791635549 0 0,0 -1.1704387239340415,0.10099037805033322 l -3.656207724053011 -47.10439620043411" fill="red" stroke="none" /><path d="M 101.26447882468166 120.96189622390904 l 3.7934364740449884 62.885688671727095 a84.0,84.0 0 0,0 -1.4440477263460816,0.07464077295119242 l -2.7104006792854274 -62.94166925144049" fill="red" stroke="none" /><line stroke="#e1ed5e" stroke-width="0.3" x1="102.19456741930631" x2="102.32365962044197" y1="184.97166512339345" y2="189.96999836594603" /><path d="M 102.22038585953345 185.97133177190398 a86.0,86.0 0 0,1 -42.740103519485714,-10.115201625700543" fill="none" id="id163" stroke="none" /><text fill="#e1ed5e" style="font-size:6.75px; font-family:Arial;" text-anchor="middle"><textPath startOffset="22.20632615414155" xlink:href="#id163">July</textPath></text><line stroke="#e1ed5e" stroke-width="0.3" x1="58.666819895761336" x2="56.23545636021788" y1="174.27360380694188" y2="178.64263932499728" /><path d="M 58.180547188652646 175.14741091055294 a86.0,86.0 0 0,1 -31.652253787137756,-30.449443065178592" fill="none" id="id164" stroke="none" /><text fill="#e1ed5e" style="font-size:6.75px; font-family:Arial;" text-anchor="middle"><textPath startOffset="22.20632615414155" xlink:href="#id164">August</textPath></text><line stroke="#e1ed5e" stroke-width="0.3" x1="26.63291911575756" x2="22.317208475507996" y1="142.92168965132927" y2="145.44649492493687" /><path d="M 25.769776987707644 143.4266507060508 a86.0,86.0 0 0,1 -11.730757126820373,-40.83630448921669" fill="none" id="id165" stroke="none" /><text fill="#e1ed5e" style="font-size:6.75px; font-family:Arial;" text-anchor="middle"><textPath startOffset="21.46611528233685" xlink:href="#id165">September</textPath></text><line stroke="#e1ed5e" stroke-width="0.3" x1="15.007084014347285" x2="10.007500721073583" y1="101.09737516637583" y2="101.16192664675087" /><path d="M 14.007167355692545 101.11028546245083 a86.0,86.0 0 0,1 10.666146001902534,-42.60595125391555" fill="none" id="id166" stroke="none" /><text fill="#e1ed5e" style="font-size:6.75px; font-family:Arial;" text-anchor="middle"><textPath startOffset="22.20632615414155" xlink:href="#id166">October</textPath></text><line stroke="#e1ed5e" stroke-width="0.3" x1="26.266209847984243" x2="21.928928074336255" y1="57.711370442889674" y2="55.22380399835377" /><path d="M 25.398753493254645 57.213857153982495 a86.0,86.0 0 0,1 29.58750427330803,-30.492523968695096" fill="none" id="id167" stroke="none" /><text fill="#e1ed5e" style="font-size:6.75px; font-family:Arial;" text-anchor="middle"><textPath startOffset="21.46611528233685" xlink:href="#id167">November</textPath></text><line stroke="#e1ed5e" stroke-width="0.3" x1="56.762969772571076" x2="54.21961505331055" y1="26.818313649435495" y2="22.513508569990535" /><path d="M 56.25429882871897 25.957352633546506 a86.0,86.0 0 0,1 42.265352541879196,-11.944610805530505" fill="none" id="id168" stroke="none" /><text fill="#e1ed5e" style="font-size:6.75px; font-family:Arial;" text-anchor="middle"><textPath startOffset="22.20632615414155" xlink:href="#id168">December</textPath></text></svg>