<?xml version="1.0" encoding="utf-8" ?>
<svg baseProfile="full" height="200mm" version="1.1" viewBox="0,0,200,200" width="200mm" xmlns="http://www.w3.org/2000/svg" xmlns:ev="http://www.w3.org/2001/xml-events" xmlns:xlink="http://www.w3.org/1999/xlink"><defs /><rect fill="#1a1a1a" height="200" width="200" x="0" y="0" /><rect fill="#1a1a1a" height="200" width="180" x="10" y="0" /><text alignment-baseline="middle" fill="#e1ed5e" style="dominant-baseline: central; font-size:9.0px; font-family:Arial;" text-anchor="middle" x="100.0" y="100.0">2024</text><line stroke="#e1ed5e" stroke-width="0.3" x1="100.0" x2="100.0" y1="15.0" y2="10.0" /><path d="M 100.0 14.0 a86.0,86.0 0 0,1 42.35913384403234,11.155469271406648" fill="none" id="id133" stroke="none" /><text fill="#e1ed5e" style="font-size:6.75px; font-family:Arial;" text-anchor="middle"><textPath startOffset="22.145653131862478" xlink:href="#id133">January</textPath></text><line stroke="#e1ed5e" stroke-width="0.3" x1="143.13028292997686" x2="145.6673583964461" y1="26.7553504044142" y2="22.446841604673864" /><path d="M 143.63769802327073 25.89364864446614 a86.0,86.0 0 0,1 29.32050498858742,28.57503671076993" fill="none" id="id134" stroke="none" /><text fill="#e1ed5e" style="font-size:6.75px; font-family:Arial;" text-anchor="middle"><textPath startOffset="20.669276256404974" xlink:href="#id134">February</textPath></text><line stroke="#e1ed5e" stroke-width="0.3" x1="172.87174338648825" x2="177.1583165268699" y1="56.24261187166439" y2="53.66864786411523" /><path d="M 173.72905801456457 55.72781907015455 a86.0,86.0 0 0,1 12.242430191666344,42.057860355516425" fill="none" id="id135" stroke="none" /><text fill="#e1ed5e" style="font-size:6.75px; font-family:Arial;" text-anchor="middle"><textPath startOffset="22.145653131862474" xlink:href="#id135">March</textPath></text><path d="M 120.99303781780057 99.45929381324524 l 4.890579180863636 -0.12596397162038037 a25.892201104456277,25.892201104456277 0 0,0 0.007630269409334413,0.4444249400214481 l -4.892020881871636 0.041992115629865844" fill="#ff3104" stroke="none" /><line stroke="#e1ed5e" stroke-width="0.3" x1="184.99686870605535" x2="189.99668451229388" y1="99.2704041080226" y2="99.22748670261217" /><path d="M 185.99683186730306 99.26182062694052 a86.0,86.0 0 0,1 -10.086455211305974,41.156179273409016" fill="none" id="id136" stroke="none" /><text fill="#e1ed5e" style="font-size:6.75px; font-family:Arial;" text-anchor="middle"><textPath startOffset="21.40746469413373" xlink:href="#id136">April</textPath></text><path d="M 120.99922638620191 100.18025310272382 l 4.8972221556304225 0.04203676230950452 a25.897402569830557,25.897402569830557 0 0,0 -0.007631802248581819,0.4445142202231395 l -4.895778921783172 -0.12609789850171507" fill="#ff3104" stroke="none" /><path d="M 120.86939407059847 102.33845913500097 l 7.721920477600017 0.8652572958998742 a28.77024620269438,28.77024620269438 0 0,0 -0.05920904850839452,0.4903358586864101 l -7.7059293428319595 -0.997686831509693" fill="#ff5a08" stroke="none" /><path d="M 120.77682067341334 103.0534771498775 l 7.465057917266288 1.0971064404503923 a28.545245671932612,28.545245671932612 0 0,0 -0.07541179221073326,0.48419780276250035 l -7.445124632917286 -1.2250924251443434" fill="#ff5608" stroke="none" /><path d="M 120.65975698304385 103.76489593502545 l 7.416417990620015 1.3515184117727745 a28.53855807359425,28.53855807359425 0 0,0 -0.0919671446552877,0.48121096245273887 l -7.392124553682569 -1.478631939258828" fill="#ff5608" stroke="none" /><path d="M 120.35273937422433 105.17358676015961 l 14.019859538319213 3.563793470406488 a35.46572104576582,35.46572104576582 0 0,0 -0.1550536315641126,0.5887638944299874 l -13.95661642595037 -3.8039378692092787" fill="#ffb410" stroke="none" /><path d="M 120.26092885502905 105.52220625578681 l 2.4488386029999205 0.667441850749196 a23.538166489352918,23.538166489352918 0 0,0 -0.10959987681564402,0.3889312979836763 l -2.437020234109697 -0.7093810726358808" fill="#ff0f01" stroke="none" /><path d="M 120.16314734710363 105.8691983318838 l 7.466451242462911 2.1733751394546004 a28.776339347847113,28.776339347847113 0 0,0 -0.1421327530468121,0.4731137087202025 l -7.428042169412469 -2.3012264517655265" fill="#ff5a08" stroke="none" /><path d="M 119.83427380445688 106.89939002012753 l 7.246133465694736 2.520581363886003 a28.672012813768667,28.672012813768667 0 0,0 -0.16569669521794506,0.463483146689179 l -7.201796600432847 -2.644599466956104" fill="#ff5808" stroke="none" /><path d="M 119.71291397450082 107.23885506374661 l 7.293451264280758 2.6782563290704346 a28.769651749508753,28.769651749508753 0 0,0 -0.17421985428008144,0.46213886204175775 l -7.246400726186236 -2.8030634713063516" fill="#ff5a08" stroke="none" /><path d="M 119.4528033332814 107.91128576633889 l 8.479968337301234 3.448729299139994 a30.15443044543887,30.15443044543887 0 0,0 -0.19912572264307254,0.477829245169344 l -8.419516770121676 -3.5937910537506155" fill="#ff6d0a" stroke="none" /><path d="M 119.0197475246899 108.90220220490707 l 8.26615288345496 3.8689769319843523 a30.126788372306976,30.126788372306976 0 0,0 -0.22325491246586224,0.46651690150498276 l -8.198518713029188 -4.010306335554438" fill="#ff6c0a" stroke="none" /><path d="M 118.8641267826498 109.22738970284198 l 6.947241037338001 3.398243722049939 a28.73383594507441,28.73383594507441 0 0,0 -0.22053915101842567,0.44122603535731364 l -6.887881973107843 -3.517001613570998" fill="#ff5908" stroke="none" /><line stroke="#e1ed5e" stroke-width="0.3" x1="174.33088141563837" x2="178.70328620479359" y1="141.23008692659167" y2="143.65538615756765" /><path d="M 175.20536237346943 141.71514677278685 a86.0,86.0 0 0,1 -30.301960400862466,31.631185727798858" fill="none" id="id137" stroke="none" /><text fill="#e1ed5e" style="font-size:6.75px; font-family:Arial;" text-anchor="middle"><textPath startOffset="22.145653131862474" xlink:href="#id137">May</textPath></text><path d="M 117.62189284568427 111.42229804090321 l 6.492123162586325 4.208115798381629 a28.736659597706165,28.736659597706165 0 0,0 -0.2718700937675408,0.41164597315766466 l -6.4189286298980575 -4.318941649878354" fill="#ff5908" stroke="none" /><path d="M 117.423217284605 111.72311816256416 l 6.416462609179297 4.317282401083764 a28.733687331778004,28.733687331778004 0 0,0 -0.278867637016951,0.4068762164680326 l -6.341405235347025 -4.426793352621841" fill="#ff5908" stroke="none" /><path d="M 116.79662413953412 112.60449989151573 l 6.1688275564629205 4.629203202993911 a28.712584243688063,28.712584243688063 0 0,0 -0.2992234422275756,0.3916930910774349 l -6.088452136881041 -4.734417207312223" fill="#ff5908" stroke="none" /><path d="M 116.1254893667686 113.45245675266167 l 7.086224404088021 5.91158042819463 a30.228291253753667,30.228291253753667 0 0,0 -0.3358297469233844,0.3956065974438593 l -6.983700093657522 -6.032353808088046" fill="#ff6e0a" stroke="none" /><path d="M 115.6541949942343 113.99807769240083 l 6.9371674107951184 6.203257875430022 a30.306164621071478,30.306164621071478 0 0,0 -0.35011167693982953,0.3848340634953921 l -6.829658033013409 -6.321429514483086" fill="#ff6f0a" stroke="none" /><path d="M 113.86319453409587 115.77377054828091 l 5.210286884877277 5.92835003581889 a28.8925549456382,28.8925549456382 0 0,0 -0.3753562795832997,0.32422381433453246 l -5.107751125531122 -6.01691798261814" fill="#ff5b08" stroke="none" /><path d="M 111.8722381534696 117.32195027204791 l 4.433195819256674 6.468165187957663 a28.84158058497024,28.84158058497024 0 0,0 -0.41079161000542863,0.2763989282587175 l -4.321507921154242 -6.543313790273501" fill="#ff5b08" stroke="none" /><path d="M 111.27062007382361 117.71928675628689 l 4.213172545884364 6.623807031489573 a28.850200156161907,28.850200156161907 0 0,0 -0.42016314758813716,0.2622128792270333 l -4.098845269506512 -6.695155707558154" fill="#ff5b08" stroke="none" /><line stroke="#e1ed5e" stroke-width="0.3" x1="143.1302829299769" x2="145.66735839644613" y1="173.24464959558577" y2="177.55315839532614" /><path d="M 143.63769802327073 174.10635135553383 a86.0,86.0 0 0,1 -40.68552437913181,11.842963189579606" fill="none" id="id138" stroke="none" /><text fill="#e1ed5e" style="font-size:6.75px; font-family:Arial;" text-anchor="middle"><textPath startOffset="21.407464694133747" xlink:href="#id138">June</textPath></text><path d="M 110.34350942703117 118.27599006163325 l 3.8308797142638746 6.768797387299766 a28.777676867514785,28.777676867514785 0 0,0 -0.43201570875475975,0.23963183116330342 l -3.7141198173530205 -6.833562133896213" fill="#ff5a08" stroke="none" /><path d="M 109.71004243097381 118.62028667847754 l 3.6163304995637744 6.934790563963193 a28.82107195006593,28.82107195006593 0 0,0 -0.4406505544857338,0.2249993128799225 l -3.4967527233644584 -6.995847828515951" fill="#ff5a08" stroke="none" /><path d="M 107.407793817531 119.65005319985036 l 2.7481001774546012 7.289662214640222 a28.790457611005877,28.790457611005877 0 0,0 -0.4639525325907807,0.17036979637952768 l -2.6225584932096933 -7.335762860028471" fill="#ff5a08" stroke="none" /><path d="M 105.69591212413111 120.21278271476187 l 2.1286358534374417 7.5537776999932404 a28.847970956715788,28.847970956715788 0 0,0 -0.47780289733530895,0.13022730436384752 l -1.9986515551674378 -7.58920549850123" fill="#ff5b08" stroke="none" /><path d="M 105.3480935250658 120.30758222061773 l 1.983058379119699 7.529995669206757 a28.786742278595675,28.786742278595675 0 0,0 -0.47894930368695204,0.12174704008053838 l -1.8535037822073495 -7.562927941122566" fill="#ff5a08" stroke="none" /><path d="M 104.64783097203109 120.47920084513623 l 2.311115062680312 10.18319939551649 a31.442164658814534,31.442164658814534 0 0,0 -0.5273862902706687,0.11494138733222438 l -2.1359663557905075 -10.221372240982433" fill="#ff7e0b" stroke="none" /><path d="M 103.2317021107853 120.74984581791261 l 1.1936636121632962 7.6641766665871085 a28.756573779424844,28.756573779424844 0 0,0 -0.4884165674219598,0.07178041586280719 l -1.0619219391336507 -7.683538155748798" fill="#ff5908" stroke="none" /><path d="M 102.875027216393 120.80226474461374 l 1.0640582754931056 7.698995621431045 a28.772178175547687,28.772178175547687 0 0,0 -0.4898424671556431,0.06341991436114011 l -0.9317379864466871 -7.716127131992581" fill="#ff5a08" stroke="none" /><path d="M 102.15924093988457 120.88869738790638 l 0.9445988303013844 9.138136812184934 a30.186828144055823,30.186828144055823 0 0,0 -0.5159078952820545,0.048857014070627196 l -0.7875913716343146 -9.153005581760745" fill="#ff6d0a" stroke="none" /><path d="M 101.44090949804482 120.95050786540614 l 0.7144367826979726 10.387754023107831 a31.41229338623652,31.41229338623652 0 0,0 -0.5382805327385345,0.03238162018107319 l -0.536011897826973 -10.398487621113597" fill="#ff7e0b" stroke="none" /><path d="M 100.72087961077811 120.9876233191556 l 0.3622653056902223 10.546959109050734 a31.553178791231346,31.553178791231346 0 0,0 -0.5414926445288171,0.013946929716417695 l -0.18115934709066142 -10.551623756117197" fill="#ff800b" stroke="none" /><line stroke="#e1ed5e" stroke-width="0.3" x1="101.45913802915013" x2="101.54496967792366" y1="184.9874750549273" y2="189.98673829345242" /><path d="M 101.47630435890484 185.9873277026323 a86.0,86.0 0 0,1 -42.54439059252881,-10.42667462771756" fill="none" id="id139" stroke="none" /><text fill="#e1ed5e" style="font-size:6.75px; font-family:Arial;" text-anchor="middle"><textPath startOffset="22.145653131862474" xlink:href="#id139">July</textPath></text><path d="M 100.36049292484886 120.99690560180557 l 0.13281004985414568 7.735519583159017 a28.736659597706165,28.736659597706165 0 0,0 -0.493302974702997,0.004234412741582505 l -9.474675412423505e-16 -7.736659597706165" fill="#ff5908" stroke="none" /><path d="M 99.63950707515114 120.99690560180557 l -0.25533133251987133 14.871770058596406 a35.873961770998704,35.873961770998704 0 0,0 -0.6156427711334785,-0.015856773949142998 l 0.5105874177240938 -14.865195567297215" fill="#ffb911" stroke="none" /><path d="M 96.05791012581884 120.62667999033965 l -10.258347845987581 53.676010695399846 a75.64748690197891,75.64748690197891 0 0,0 -1.2734120228857313,-0.25471806856081963 l 11.17825635440427 -53.49200323017616" fill="#43ffdb" stroke="none" /><path d="M 95.00130118170881 120.39639698878247 l -1.256905925750232 5.128605097259828 a26.280379034674077,26.280379034674077 0 0,0 -0.43724882508313595,-0.11114694148790441 l 1.3447600440587466 -5.10627292393666" fill="#ff3705" stroke="none" /><path d="M 92.59220618246901 119.65005319985036 l -0.5347736576985245 1.4185506619779265 a22.516004236658418,22.516004236658418 0 0,0 -0.3605002458179901,-0.13944923950972124 l 0.5590461660100429 -1.4091615343301647" fill="#ff0000" stroke="none" /><line stroke="#e1ed5e" stroke-width="0.3" x1="58.13341422392154" x2="55.67067388415222" y1="173.97424548756322" y2="178.32567169271397" /><path d="M 57.64086615596768 174.84453072859336 a86.0,86.0 0 0,1 -31.369924170532247,-30.572349798747897" fill="none" id="id140" stroke="none" /><text fill="#e1ed5e" style="font-size:6.75px; font-family:Arial;" text-anchor="middle"><textPath startOffset="22.145653131862474" xlink:href="#id140">August</textPath></text><line stroke="#e1ed5e" stroke-width="0.3" x1="26.387840678322732" x2="22.057713659400548" y1="142.50000000000003" y2="145.00000000000006" /><path d="M 25.521815274538298 143.00000000000003 a86.0,86.0 0 0,1 -11.493303480769221,-40.785679425670985" fill="none" id="id141" stroke="none" /><text fill="#e1ed5e" style="font-size:6.75px; font-family:Arial;" text-anchor="middle"><textPath startOffset="21.40746469413373" xlink:href="#id141">September</textPath></text><line stroke="#e1ed5e" stroke-width="0.3" x1="15.003131293944662" x2="10.003315487706104" y1="100.72959589197737" y2="100.7725132973878" /><path d="M 14.003168132696942 100.73817937305945 a86.0,86.0 0 0,1 10.791469493833604,-42.45332614584628" fill="none" id="id142" stroke="none" /><text fill="#e1ed5e" style="font-size:6.75px; font-family:Arial;" text-anchor="middle"><textPath startOffset="22.145653131862435" xlink:href="#id142">October</textPath></text><path d="M 79.06263194458094 98.37931529534042 l -3.3053777248504215 -0.25585714057317127 a24.315265416270563,24.315265416270563 0 0,0 0.03578556034094171,-0.4158824554761141 l 3.300498541811737 0.312560643424966" fill="#ff1a02" stroke="none" /><path d="M 79.17382384314186 97.30363454192245 l -6.626642346990737 -0.8579515218196146 a27.681951033098304,27.681951033098304 0 0,0 0.06505981313969665,-0.4707403983691733 l 6.610938017295832 0.9715802283888549" fill="#ff4a06" stroke="none" /><path d="M 79.2786578344484 96.59031103205396 l -9.867345362990115 -1.6236679245147376 a31.000040102000618,31.000040102000618 0 0,0 0.09091157749665538,-0.5243538201891257 l 9.838018968001226 1.792814777624456" fill="#ff780b" stroke="none" /><path d="M 79.407916724674 95.88100663000787 l -14.588538361877697 -2.918116248221068 a35.877528490112496,35.877528490112496 0 0,0 0.12598528956309019,-0.6028852177476065 l 14.536295361490241 3.1681179172540834" fill="#ffb911" stroke="none" /><path d="M 79.56144815229197 95.17655741523228 l -9.73875764798013 -2.298320287661051 a31.006281860449757,31.006281860449757 0 0,0 0.12670122571323947,-0.5169842378093076 l 9.697868895750593 2.4651603500784764" fill="#ff780b" stroke="none" /><path d="M 79.73907114497095 94.47779374421319 l -9.668030290009881 -2.635064647363246 a31.02069735020134,31.02069735020134 0 0,0 0.14444050303812875,-0.5125683893106029 l 9.62137129489717 2.800640960576862" fill="#ff790b" stroke="none" /><path d="M 80.05021161711548 93.44210830539832 l -59.84936514865357 -19.67367508380505 a84.0,84.0 0 0,0 0.46205831371054007,-1.3659933021033535 l 59.50282141337067 20.698170060382566" fill="#4dd2ff" stroke="none" /><line stroke="#e1ed5e" stroke-width="0.3" x1="26.387840678322718" x2="22.05771365940052" y1="57.49999999999999" y2="54.99999999999999" /><path d="M 25.521815274538284 56.99999999999999 a86.0,86.0 0 0,1 29.574782752854787,-30.34633250058573" fill="none" id="id143" stroke="none" /><text fill="#e1ed5e" style="font-size:6.75px; font-family:Arial;" text-anchor="middle"><textPath startOffset="21.40746469413373" xlink:href="#id143">November</textPath></text><path d="M 82.576782715395 88.27688183743585 l -2.7877131215229882 -1.8756977998444018 a24.35999801848938,24.35999801848938 0 0,0 0.23641988606317935,-0.3449436792600726 l 2.7551034986444956 1.923276214174509" fill="#ff1b02" stroke="none" /><path d="M 83.2033758604659 87.39550010848427 l -5.37360902065667 -4.032456388572476 a27.718361290718274,27.718361290718274 0 0,0 0.2888623123548867,-0.37813003947734264 l 5.303594730947477 4.124107341290703" fill="#ff4b07" stroke="none" /><path d="M 84.10781606972428 86.27271002978789 l -5.104165244952218 -4.408856371203744 a27.744665844182496,27.744665844182496 0 0,0 0.3144249288133986,-0.35775785080156186 l 5.027729252180227 4.495826499816606" fill="#ff4b07" stroke="none" /><path d="M 84.58840730492382 85.73525988315684 l -4.950684085508537 -4.582279280124821 a27.74585475055376,27.74585475055376 0 0,0 0.326534578076196,-0.3467684062105709 l 4.871293673696069 4.666589146279903" fill="#ff4b07" stroke="none" /><line stroke="#e1ed5e" stroke-width="0.3" x1="56.869717070023135" x2="54.33264160355391" y1="26.7553504044142" y2="22.446841604673864" /><path d="M 56.362301976729285 25.89364864446614 a86.0,86.0 0 0,1 42.16139366436587,-11.88097634709845" fill="none" id="id144" stroke="none" /><text fill="#e1ed5e" style="font-size:6.75px; font-family:Arial;" text-anchor="middle"><textPath startOffset="22.145653131862474" xlink:href="#id144">December</textPath></text></svg>