<?xml version="1.0" encoding="utf-8" ?>
<svg baseProfile="full" height="200mm" version="1.1" viewBox="0,0,200,200" width="200mm" xmlns="http://www.w3.org/2000/svg" xmlns:ev="http://www.w3.org/2001/xml-events" xmlns:xlink="http://www.w3.org/1999/xlink"><defs /><rect fill="#1a1a1a" height="200" width="200" x="0" y="0" /><rect fill="#1a1a1a" height="200" width="180" x="10" y="0" /><text alignment-baseline="middle" fill="#e1ed5e" style="dominant-baseline: central; font-size:9.0px; font-family:Arial;" text-anchor="middle" x="100.0" y="100.0">2022</text><line stroke="#e1ed5e" stroke-width="0.3" x1="100.0" x2="100.0" y1="15.0" y2="10.0" /><path d="M 100.0 14.0 a86.0,86.0 0 0,1 42.46469731375804,11.215312516191453" fill="none" id="id109" stroke="none" /><text fill="#e1ed5e" style="font-size:6.75px; font-family:Arial;" text-anchor="middle"><textPath startOffset="22.20632615414155" xlink:href="#id109">January</textPath></text><path d="M 101.08401301168833 79.027996857942 l 0.9370491503239042 -18.128747084177895 a39.15294829916648,39.15294829916648 0 0,0 0.6727556974361826,0.04058246088546849 l -1.2489668965996987 18.109931353912124" fill="#ff6c0a" stroke="none" /><path d="M 101.80526077348638 79.07773832637324 l 1.527344557878975 -17.701322144179887 a38.76709281369678,38.76709281369678 0 0,0 0.6643477428290397,0.06308782322083976 l -1.831817427798259 17.672408776443866" fill="#ff6609" stroke="none" /><path d="M 103.2404852339499 79.25152402106235 l 2.786514349772702 -17.84174957672952 a39.05803671998197,39.05803671998197 0 0,0 0.6633743315987111,0.10946244872439541 l -3.0932178875102885 17.7911408650655" fill="#ff6b09" stroke="none" /><path d="M 103.59715602781102 79.31037775812273 l 2.552864518779778 -14.68321143700473 a35.903483329578734,35.903483329578734 0 0,0 0.6079739924475649,0.1111033610478313 l -2.8052336323302436 14.63709259460616" fill="#ff3505" stroke="none" /><line stroke="#e1ed5e" stroke-width="0.3" x1="143.23703022742887" x2="145.7803849466894" y1="26.81831364943548" y2="22.513508569990506" /><path d="M 143.74570117128098 25.957352633546492 a86.0,86.0 0 0,1 28.547481713284135,27.462654790039103" fill="none" id="id110" stroke="none" /><text fill="#e1ed5e" style="font-size:6.75px; font-family:Arial;" text-anchor="middle"><textPath startOffset="19.985693538727396" xlink:href="#id110">February</textPath></text><line stroke="#e1ed5e" stroke-width="0.3" x1="172.23445277983987" x2="176.4835382374775" y1="55.19839476539836" y2="52.563006222186495" /><path d="M 173.08426987136738 54.67131705675599 a86.0,86.0 0 0,1 12.851231095245387,41.99856678651699" fill="none" id="id111" stroke="none" /><text fill="#e1ed5e" style="font-size:6.75px; font-family:Arial;" text-anchor="middle"><textPath startOffset="22.20632615414155" xlink:href="#id111">March</textPath></text><path d="M 117.84615892207809 88.93136811851018 l 12.64161553177335 -7.840644550991695 a35.875689907636854,35.875689907636854 0 0,0 0.320975017106063,0.5275985334241773 l -12.774706347165637 7.6218782443604365" fill="#ff3505" stroke="none" /><path d="M 118.89224826269711 90.83032412892265 l 14.489447896001872 -7.032701397405454 a37.105992340617256,37.105992340617256 0 0,0 0.27395143198967903,0.5770115820958372 l -14.608357521833307 6.7822473996690755" fill="#ff4a06" stroke="none" /><path d="M 119.04729006885535 91.15688171328212 l 16.277248123580424 -7.557066124300826 a38.94597600810994,38.94597600810994 0 0,0 0.2770685037720334,0.6104837212397547 l -16.404918944315803 7.275760394219009" fill="#ff6909" stroke="none" /><line stroke="#e1ed5e" stroke-width="0.3" x1="184.98032266829074" x2="189.97916517819016" y1="98.17113171792111" y2="98.06355123074" /><path d="M 185.9800911702706 98.14961562048488 a86.0,86.0 0 0,1 -9.607161424134198,41.387399972396054" fill="none" id="id112" stroke="none" /><text fill="#e1ed5e" style="font-size:6.75px; font-family:Arial;" text-anchor="middle"><textPath startOffset="21.466115282336823" xlink:href="#id112">April</textPath></text><path d="M 120.49622156327973 104.57218783832717 l 11.55394264937247 2.5773919306587167 a32.8379280243298,32.8379280243298 0 0,0 -0.12781684060580747,0.5506316040523066 l -11.50786524283611 -2.7758921920595885" fill="#ff0000" stroke="none" /><path d="M 120.32669344350535 105.2749913415812 l 14.538119136393114 3.7727952546975962 a36.019683487271905,36.019683487271905 0 0,0 -0.16090837130958568,0.5987999090263624 l -14.47102268874175 -4.022486096899507" fill="#ff3705" stroke="none" /><path d="M 120.13307415673323 105.97154293290107 l 14.381212705473455 4.265519931500201 a36.0004646316738,36.0004646316738 0 0,0 -0.18132787311290272,0.5925899808934892 l -14.30565805985442 -4.512436884945748" fill="#ff3705" stroke="none" /><path d="M 119.9155931802556 106.66101706037122 l 15.078300181373686 5.0431244422637675 a36.89931572426222,36.89931572426222 0 0,0 -0.20665227909970754,0.6006282548513824 l -14.989257071330748 -5.301925400204451" fill="#ff4606" stroke="none" /><path d="M 119.67450827220406 107.3425965602758 l 16.784994927597157 6.264219888724811 a38.91581718855598,38.91581718855598 0 0,0 -0.23962084651302967,0.6255744171564838 l -16.67467980149062 -6.552217872714438" fill="#ff6809" stroke="none" /><path d="M 119.41010516605496 108.01547362559984 l 16.617634246552402 6.8623125883958025 a38.97879589997747,38.97879589997747 0 0,0 -0.2614345312770037,0.6179540054267524 l -16.49704873408309 -7.147341119488718" fill="#ff6909" stroke="none" /><path d="M 119.26925614724726 108.34839909993367 l 13.607094402019593 5.895269323863388 a35.829268979499886,35.829268979499886 0 0,0 -0.2500523236431884,0.5638019779298419 l -13.503600993645131 -6.128619638285919" fill="#ff3405" stroke="none" /><path d="M 118.97047184881838 109.00673069616215 l 16.220415837393585 7.70106924020803 a38.95573327325974,38.95573327325974 0 0,0 -0.29281122063666026,0.6032778423302408 l -16.08545136014221 -7.979136038503546" fill="#ff6909" stroke="none" /><line stroke="#e1ed5e" stroke-width="0.3" x1="174.80103733775053" x2="179.2010983576182" y1="140.37084112569926" y2="142.7455964860345" /><path d="M 175.68104954172406 140.8457921977663 a86.0,86.0 0 0,1 -30.038265399797805,32.042727171017184" fill="none" id="id113" stroke="none" /><text fill="#e1ed5e" style="font-size:6.75px; font-family:Arial;" text-anchor="middle"><textPath startOffset="22.206326154141568" xlink:href="#id113">May</textPath></text><path d="M 117.75023020441432 111.22182372390056 l 20.028489645496798 12.662155795694277 a44.69537057895923,44.69537057895923 0 0,0 -0.4167207709009851,0.6467598905929473 l -19.807564011218762 -13.005037286208676" fill="#ffc512" stroke="none" /><path d="M 117.14729908036423 112.12312394758627 l 24.73036278862004 17.48434269152828 a51.28684669970714,51.28684669970714 0 0,0 -0.5158484956339415,0.7164684430511254 l -24.4257345006105 -17.907444740030538" fill="#d8ff1c" stroke="none" /><path d="M 116.71984013943494 112.70617746262583 l 16.9670218265605 12.894022224055156 a42.31045843658481,42.31045843658481 0 0,0 -0.4456564269786106,0.5760710069607705 l -16.74255858236382 -13.18417122512918" fill="#ff9f0e" stroke="none" /><path d="M 116.498646956653 112.99209946851258 l 11.702879801605391 9.215602882465008 a35.89579578733949,35.89579578733949 0 0,0 -0.3864474504787757,0.4821526134841698 l -11.542514439071763 -9.415683329527429" fill="#ff3505" stroke="none" /><path d="M 115.32070863581623 114.36230785411682 l 10.91803259311223 10.235045192164181 a35.96527934219419,35.96527934219419 0 0,0 -0.4272905511287102,0.44801243457334133 l -10.740235490604555 -10.42146474332003" fill="#ff3605" stroke="none" /><path d="M 115.07121518719521 114.62390073753431 l 16.994798281246847 16.49039178543007 a44.68029116918224,44.68029116918224 0 0,0 -0.5403323246505807,0.5473537921420902 l -16.70842533154073 -16.780486071552826" fill="#ffc412" stroke="none" /><path d="M 114.55890576462653 115.13401014063108 l 12.43812350734975 12.92945296397292 a38.94094953818428,38.94094953818428 0 0,0 -0.48706628659413514,0.4605515751195181 l -12.213721386364808 -13.14163917583836" fill="#ff6909" stroke="none" /><path d="M 113.75828350139079 115.86535959552629 l 29.08312533061087 33.53719535472994 a65.3911213111061,65.3911213111061 0 0,0 -0.8567311903820793,0.7301249068298505 l -28.501528663651744 -34.03284465178273" fill="#31ff3f" stroke="none" /><path d="M 113.48314897796784 116.09983520530334 l 10.268029988740768 12.260755330373492 a36.99245325523766,36.99245325523766 0 0,0 -0.49169993914052434,0.4046355751512263 l -10.055459921055553 -12.435686024381896" fill="#ff4806" stroke="none" /><path d="M 113.20401910651253 116.32954008644616 l 9.962877110807705 12.321187953827575 a36.84520725388601,36.84520725388601 0 0,0 -0.49660761154708283,0.3945351210881565 l -9.74931200654327 -12.490856988920857" fill="#ff4506" stroke="none" /><path d="M 112.63410532772338 116.77436683061366 l 14.021786332194681 18.616798060136322 a44.30655834647443,44.30655834647443 0 0,0 -0.613150084024394,0.4535937738129977 l -13.699251277751722 -18.85540178268909" fill="#ffbf11" stroke="none" /><path d="M 111.7513745106137 117.40417183066458 l 11.455869401411801 16.966519052877256 a41.4719249831043,41.4719249831043 0 0,0 -0.5950733471127386,0.3943821661084914 l -11.162121355559098 -17.161199240077064" fill="#ff920d" stroke="none" /><path d="M 111.1453310114006 117.79835938074945 l 15.405802640139141 24.602051895777436 a50.02756814597882,50.02756814597882 0 0,0 -0.7337872174173973,0.45075204141659264 l -14.980036222789435 -24.863592404022405" fill="#eaff1a" stroke="none" /><line stroke="#e1ed5e" stroke-width="0.3" x1="143.8653032363475" x2="146.44561519142675" y1="172.8068346515853" y2="177.08958963109032" /><path d="M 144.38136562736335 173.6633856474863 a86.0,86.0 0 0,1 -40.68145358897372,12.25698825130547" fill="none" id="id114" stroke="none" /><text fill="#e1ed5e" style="font-size:6.75px; font-family:Arial;" text-anchor="middle"><textPath startOffset="21.466115282336833" xlink:href="#id114">June</textPath></text><path d="M 109.2508944713604 118.85261126421891 l 7.833771641776012 15.964623956341262 a38.78305924757828,38.78305924757828 0 0,0 -0.6018527478562946,0.28892589350227676 l -7.557806225919485 -16.097104126343098" fill="#ff6609" stroke="none" /><path d="M 108.92500713936063 119.00905698771935 l 10.192055559418261 21.707698596290737 a44.98128801531877,44.98128801531877 0 0,0 -0.7037044145064586,0.323036182177953 l -9.816883149144383 -21.879921848802763" fill="#ffc912" stroke="none" /><path d="M 108.2653958097858 119.30500536409082 l 5.898567414040368 13.776941623737148 a35.98656792070286,35.98656792070286 0 0,0 -0.5715498798232148,0.23890789612017155 l -5.660546074719693 -13.876434562877293" fill="#ff3705" stroke="none" /><path d="M 107.59598834532513 119.57807347666477 l 22.787965035975386 58.73422042999433 a84.0,84.0 0 0,0 -1.3525191169589008,0.5114069995734765 l -21.77357569825621 -59.11777567967444" fill="#4dd2ff" stroke="none" /><path d="M 106.91757812671514 119.82793768551818 l 4.943812628603481 14.170509813291526 a36.00815217391304,36.00815217391304 0 0,0 -0.5869847785777439,0.19913710670457704 l -4.69915811708851 -14.253509906894227" fill="#ff3705" stroke="none" /><path d="M 105.88484417918355 120.15858648285463 l 5.09521581373498 17.453707439410092 a39.1822200946159,39.1822200946159 0 0,0 -0.6490606254943941,0.18343101605606743 l -4.79402402013598 -17.53882724880468" fill="#ff6d0a" stroke="none" /><path d="M 103.41894727170886 120.7198165907248 l 2.4128648491655627 14.622663983913744 a35.82039873845461,35.82039873845461 0 0,0 -0.6092267514580334,0.09514868919679025 l -2.160802234099012 -14.66203098045764" fill="#ff3404" stroke="none" /><path d="M 102.34483914955558 120.86867818915974 l 1.665956976877176 14.826739835875053 a35.92004111286326,35.92004111286326 0 0,0 -0.6150321863224877,0.06375060082721602 l -1.4104921939490858 -14.853219805158027" fill="#ff3605" stroke="none" /><path d="M 101.62511606390274 120.93702456842531 l 1.2053142444554548 15.528548704535652 a36.57525625140797,36.57525625140797 0 0,0 -0.6281142589671876,0.043318436795886026 l -0.9378372247093368 -15.546995485847823" fill="#ff4106" stroke="none" /><line stroke="#e1ed5e" stroke-width="0.3" x1="102.19456741930631" x2="102.32365962044197" y1="184.97166512339345" y2="189.96999836594603" /><path d="M 102.22038585953345 185.97133177190398 a86.0,86.0 0 0,1 -42.740103519485714,-10.115201625700543" fill="none" id="id115" stroke="none" /><text fill="#e1ed5e" style="font-size:6.75px; font-family:Arial;" text-anchor="middle"><textPath startOffset="22.20632615414155" xlink:href="#id115">July</textPath></text><path d="M 99.81925306533755 120.99922214144158 l -0.1441338721907676 16.745507778002175 a37.746128069384994,37.746128069384994 0 0,0 -0.649665344511885,-0.011184578073118926 l 0.4323589065953204 -16.740545722649895" fill="#ff5507" stroke="none" /><line stroke="#e1ed5e" stroke-width="0.3" x1="58.666819895761336" x2="56.23545636021788" y1="174.27360380694188" y2="178.64263932499728" /><path d="M 58.180547188652646 175.14741091055294 a86.0,86.0 0 0,1 -31.652253787137756,-30.449443065178592" fill="none" id="id116" stroke="none" /><text fill="#e1ed5e" style="font-size:6.75px; font-family:Arial;" text-anchor="middle"><textPath startOffset="22.20632615414155" xlink:href="#id116">August</textPath></text><path d="M 82.6465618267979 111.8261652097733 l -9.898867905906593 6.74596273525506 a32.978964856949766,32.978964856949766 0 0,0 -0.3156509296674076,-0.4718553117722341 l 10.013521940984731 -6.574570509277005" fill="#ff0200" stroke="none" /><line stroke="#e1ed5e" stroke-width="0.3" x1="26.63291911575756" x2="22.317208475507996" y1="142.92168965132927" y2="145.44649492493687" /><path d="M 25.769776987707644 143.4266507060508 a86.0,86.0 0 0,1 -11.730757126820373,-40.83630448921669" fill="none" id="id117" stroke="none" /><text fill="#e1ed5e" style="font-size:6.75px; font-family:Arial;" text-anchor="middle"><textPath startOffset="21.46611528233685" xlink:href="#id117">September</textPath></text><path d="M 81.87401531095188 110.60418214915194 l -10.282892755844887 6.015765194210829 a32.913325073214686,32.913325073214686 0 0,0 -0.2818759911621702,-0.49147454998925294 l 10.384920743159434 -5.837870798363269" fill="#ff0100" stroke="none" /><path d="M 81.35079622478065 109.6543875284942 l -13.178693645503763 6.822393980276015 a35.83991326875422,35.83991326875422 0 0,0 -0.27890506195831644,-0.5503061469738503 l 13.294177377248346 -6.59453362159948" fill="#ff3405" stroke="none" /><path d="M 81.02952815118164 109.00673069616217 l -13.411330845925592 6.36738222269935 a35.846122437485924,35.846122437485924 0 0,0 -0.25984236775489433,-0.5596773434818005 l 13.518947830520313 -6.135584811938722" fill="#ff3405" stroke="none" /><path d="M 80.73074385275274 108.34839909993369 l -16.314188311644962 7.06811689960031 a38.779511151160165,38.779511151160165 0 0,0 -0.2600979093087102,-0.6147946259254515 l 16.43343720214598 -6.7862477480087" fill="#ff6609" stroke="none" /><path d="M 79.50377843672027 104.57218783832718 l -11.630705362481175 2.594515747467056 a32.91657749493129,32.91657749493129 0 0,0 -0.11860307038359123,-0.5540740598369105 l 11.673642471589206 -2.3939278682139817" fill="#ff0100" stroke="none" /><path d="M 79.4281124754447 104.21870165774334 l -14.509865757245397 2.975555580432707 a35.81182417211083,35.81182417211083 0 0,0 -0.11863957180559043,-0.6049406206529676 l 14.558935262026653 -2.725351232711785" fill="#ff3404" stroke="none" /><path d="M 79.29508885075956 103.50808413554451 l -11.706857145911206 1.9835216647217337 a32.873704663212436,32.873704663212436 0 0,0 -0.08972681328287581,-0.5587289519634084 l 11.739265713555373 -1.7817134830651116" fill="#ff0100" stroke="none" /><path d="M 79.0235259727143 100.99374915477108 l -12.011913932807735 0.5690579504631467 a33.025385785086726,33.025385785086726 0 0,0 -0.022013569655118262,-0.5680724177006593 l 12.019929635314053 -0.3622082857484906" fill="#ff0300" stroke="none" /><line stroke="#e1ed5e" stroke-width="0.3" x1="15.007084014347285" x2="10.007500721073583" y1="101.09737516637583" y2="101.16192664675087" /><path d="M 14.007167355692545 101.11028546245083 a86.0,86.0 0 0,1 10.666146001902534,-42.60595125391555" fill="none" id="id118" stroke="none" /><text fill="#e1ed5e" style="font-size:6.75px; font-family:Arial;" text-anchor="middle"><textPath startOffset="22.20632615414155" xlink:href="#id118">October</textPath></text><path d="M 79.91906864156998 93.8553929516997 l -14.165561259856682 -4.334550325720065 a35.8138938950214,35.8138938950214 0 0,0 0.18545545552338,-0.5879444742824133 l 14.088850320565099 4.577744966428893" fill="#ff3404" stroke="none" /><path d="M 81.43458229118936 90.18545643968196 l -13.090731567600201 -6.92036975530423 a35.807389051588196,35.807389051588196 0 0,0 0.29275422325194567,-0.5424291140248961 l 12.969669245129785 7.144679852661598" fill="#ff3404" stroke="none" /><line stroke="#e1ed5e" stroke-width="0.3" x1="26.266209847984243" x2="21.928928074336255" y1="57.711370442889674" y2="55.22380399835377" /><path d="M 25.398753493254645 57.213857153982495 a86.0,86.0 0 0,1 29.58750427330803,-30.492523968695096" fill="none" id="id119" stroke="none" /><text fill="#e1ed5e" style="font-size:6.75px; font-family:Arial;" text-anchor="middle"><textPath startOffset="21.46611528233685" xlink:href="#id119">November</textPath></text><path d="M 81.78341655067845 89.55222093294921 l -12.842455365664835 -7.365548908345067 a35.80472797927462,35.80472797927462 0 0,0 0.31122889051610725,-0.531991060219158 l 12.713766800678401 7.585519380918117" fill="#ff3404" stroke="none" /><path d="M 83.17141714833178 87.43820079747576 l -11.859194079590647 -8.852368380907025 a35.79881448524443,35.79881448524443 0 0,0 0.37286009711317336,-0.4906401816316275 l 11.705058042253365 9.055193338419679" fill="#ff3404" stroke="none" /><path d="M 84.5562425177563 85.77008943001954 l -10.901130517252247 -10.044324546700139 a35.82305981076819,35.82305981076819 0 0,0 0.4217443339156549,-0.449887450147923 l 10.726618861366136 10.230481413726112" fill="#ff3404" stroke="none" /><path d="M 85.05521093208273 85.24692304244772 l -10.550822446546348 -10.415476244728355 a35.82572088308177,35.82572088308177 0 0,0 0.4370127201639914,-0.43513604866142214 l 10.369973926215044 10.595548144039887" fill="#ff3404" stroke="none" /><path d="M 85.83668400450813 84.49514656593479 l -10.011676046880904 -10.959973623806658 a35.84434838927686,35.84434838927686 0 0,0 0.4591302796903579,-0.4122116983823651 l 9.821534779594574 11.130684330958301" fill="#ff3405" stroke="none" /><path d="M 86.65592168130627 83.78471172551755 l -9.412099395321036 -11.437275870106907 a35.81211984681235,35.81211984681235 0 0,0 0.4793650085304645,-0.3876131659631682 l 9.213830988226071 11.59759513333421" fill="#ff3404" stroke="none" /><path d="M 86.93701828274178 83.55741782278169 l -9.231855489919736 -11.620282859361565 a35.84109596756026,35.84109596756026 0 0,0 0.48635931134102184,-0.3796111570052307 l 9.030463623419289 11.777472405590016" fill="#ff3405" stroke="none" /><line stroke="#e1ed5e" stroke-width="0.3" x1="56.762969772571076" x2="54.21961505331055" y1="26.818313649435495" y2="22.513508569990535" /><path d="M 56.25429882871897 25.957352633546506 a86.0,86.0 0 0,1 42.265352541879196,-11.944610805530505" fill="none" id="id120" stroke="none" /><text fill="#e1ed5e" style="font-size:6.75px; font-family:Arial;" text-anchor="middle"><textPath startOffset="22.20632615414155" xlink:href="#id120">December</textPath></text></svg>