<?xml version="1.0" encoding="utf-8" ?>
<svg baseProfile="full" height="200mm" version="1.1" viewBox="0,0,200,200" width="200mm" xmlns="http://www.w3.org/2000/svg" xmlns:ev="http://www.w3.org/2001/xml-events" xmlns:xlink="http://www.w3.org/1999/xlink"><defs /><rect fill="#1a1a1a" height="200" width="200" x="0" y="0" /><rect fill="#1a1a1a" height="200" width="180" x="10" y="0" /><text alignment-baseline="middle" fill="#e1ed5e" style="dominant-baseline: central; font-size:9.0px; font-family:Arial;" text-anchor="middle" x="100.0" y="100.0">2026</text><line stroke="#e1ed5e" stroke-width="0.3" x1="100.0" x2="100.0" y1="15.0" y2="10.0" /><path d="M 100.0 14.0 a86.0,86.0 0 0,1 42.46469731375804,11.215312516191453" fill="none" id="id157" stroke="none" /><text fill="#e1ed5e" style="font-size:6.75px; font-family:Arial;" text-anchor="middle"><textPath startOffset="22.20632615414155" xlink:href="#id157">January</textPath></text><line stroke="#e1ed5e" stroke-width="0.3" x1="143.23703022742887" x2="145.7803849466894" y1="26.81831364943548" y2="22.513508569990506" /><path d="M 143.74570117128098 25.957352633546492 a86.0,86.0 0 0,1 28.547481713284135,27.462654790039103" fill="none" id="id158" stroke="none" /><text fill="#e1ed5e" style="font-size:6.75px; font-family:Arial;" text-anchor="middle"><textPath startOffset="19.985693538727396" xlink:href="#id158">February</textPath></text><line stroke="#e1ed5e" stroke-width="0.3" x1="172.23445277983987" x2="176.4835382374775" y1="55.19839476539836" y2="52.563006222186495" /><path d="M 173.08426987136738 54.67131705675599 a86.0,86.0 0 0,1 12.851231095245387,41.99856678651699" fill="none" id="id159" stroke="none" /><text fill="#e1ed5e" style="font-size:6.75px; font-family:Arial;" text-anchor="middle"><textPath startOffset="22.20632615414155" xlink:href="#id159">March</textPath></text><line stroke="#e1ed5e" stroke-width="0.3" x1="184.98032266829074" x2="189.97916517819016" y1="98.17113171792111" y2="98.06355123074" /><path d="M 185.9800911702706 98.14961562048488 a86.0,86.0 0 0,1 -9.607161424134198,41.387399972396054" fill="none" id="id160" stroke="none" /><text fill="#e1ed5e" style="font-size:6.75px; font-family:Arial;" text-anchor="middle"><textPath startOffset="21.466115282336823" xlink:href="#id160">April</textPath></text><path d="M 120.41448212921028 104.9243191809786 l 25.446511887228787 6.138130067771065 a47.17635589526837,47.17635589526837 0 0,0 -0.19721668001876513,0.7877826024357694 l -25.33708389291496 -6.57524050960423" fill="red" stroke="none" /><line stroke="#e1ed5e" stroke-width="0.3" x1="174.80103733775053" x2="179.2010983576182" y1="140.37084112569926" y2="142.7455964860345" /><path d="M 175.68104954172406 140.8457921977663 a86.0,86.0 0 0,1 -30.038265399797805,32.042727171017184" fill="none" id="id161" stroke="none" /><text fill="#e1ed5e" style="font-size:6.75px; font-family:Arial;" text-anchor="middle"><textPath startOffset="22.206326154141568" xlink:href="#id161">May</textPath></text><line stroke="#e1ed5e" stroke-width="0.3" x1="143.8653032363475" x2="146.44561519142675" y1="172.8068346515853" y2="177.08958963109032" /><path d="M 144.38136562736335 173.6633856474863 a86.0,86.0 0 0,1 -40.68145358897372,12.25698825130547" fill="none" id="id162" stroke="none" /><text fill="#e1ed5e" style="font-size:6.75px; font-family:Arial;" text-anchor="middle"><textPath startOffset="21.466115282336833" xlink:href="#id162">June</textPath></text><path d="M 108.59647513512805 119.15986991738527 l 10.568582802908956 23.55531407139171 a46.817586321417565,46.817586321417565 0 0,0 -0.7381111854022525,0.323566252592113 l -10.161550942848951 -23.73374487727828" fill="red" stroke="none" /><path d="M 108.2653958097858 119.30500536409082 l 14.87038743598078 34.73190102739402 a58.781389221055235,58.781389221055235 0 0,0 -0.9335843312195344,0.39023832616569654 l -14.270331645263784 -34.982724396579684" fill="red" stroke="none" /><path d="M 107.2578585660854 119.70592522655815 l 13.0438154207901 35.415467112051076 a58.74117686952029,58.74117686952029 0 0,0 -0.9518320702041344,0.341293115812228 l -12.432263789956231 -35.63474776890327" fill="red" stroke="none" /><path d="M 106.91757812671514 119.82793768551818 l 12.490423280607969 35.801451018991706 a58.9177342254784,58.9177342254784 0 0,0 -0.9604439853400716,0.32583474627034714 l -11.87230956233067 -36.011148752160175" fill="red" stroke="none" /><path d="M 106.2309692047433 120.05430185196036 l 11.278083032949183 36.2983789555662 a59.01009697041021,59.01009697041021 0 0,0 -0.9726129201031812,0.2930402943616462 l -10.651595138405757 -36.48713461903357" fill="red" stroke="none" /><path d="M 105.88484417918355 120.15858648285463 l 14.12254141435241 48.37689219808985 a71.39612956116477,71.39612956116477 0 0,0 -1.1826899139187912,0.33423998324369236 l -13.287720332329013 -48.61282097467206" fill="red" stroke="none" /><path d="M 105.18746579009965 120.34920634021253 l 9.325235931434573 36.58070391559742 a58.75060163941129,58.75060163941129 0 0,0 -0.9821050345178786,0.24137752298771883 l -8.694177612173483 -36.735802696899164" fill="red" stroke="none" /><path d="M 104.13013068566511 120.58985236759428 l 6.112914869648395 30.47458404611316 a52.08163446453843,52.08163446453843 0 0,0 -0.8805079486166483,0.1687514439789607 l -5.587439306460043 -30.575292688440587" fill="red" stroke="none" /><path d="M 103.7750983002368 120.6578951692458 l 6.822779803240859 37.335258244627916 a58.9535483510642,58.9535483510642 0 0,0 -0.9998269943144642,0.17383273881564226 l -6.179103837454345 -37.447169561964564" fill="red" stroke="none" /><path d="M 103.06178313531738 120.77559828337769 l 7.3391040415652204 49.79917603199795 a71.33706766984781,71.33706766984781 0 0,0 -1.2163697295782294,0.16857776093332433 l -6.48080572080016 -49.91812835842388" fill="red" stroke="none" /><path d="M 102.70371172650421 120.8252237178851 l 4.885560335297263 37.630819133717594 a58.94663685314413,58.94663685314413 0 0,0 -1.0073491176163003,0.12197594942248201 l -4.237083794629582 -37.70934061186543" fill="red" stroke="none" /><path d="M 101.98527174616119 120.90594882070398 l 3.5787982383024164 37.68661542393257 a58.856159062190514,58.856159062190514 0 0,0 -1.0093990534359794,0.08709519766016623 l -2.9295548671248954 -37.7426348738714" fill="red" stroke="none" /><path d="M 101.26447882468166 120.96189622390904 l 3.039510094724167 50.38747500826841 a71.47906753620558,71.47906753620558 0 0,0 -1.228799820916615,0.06351491488967702 l -2.1717222053940723 -50.43232972992029" fill="red" stroke="none" /><line stroke="#e1ed5e" stroke-width="0.3" x1="102.19456741930631" x2="102.32365962044197" y1="184.97166512339345" y2="189.96999836594603" /><path d="M 102.22038585953345 185.97133177190398 a86.0,86.0 0 0,1 -42.740103519485714,-10.115201625700543" fill="none" id="id163" stroke="none" /><text fill="#e1ed5e" style="font-size:6.75px; font-family:Arial;" text-anchor="middle"><textPath startOffset="22.20632615414155" xlink:href="#id163">July</textPath></text><path d="M 100.54218724476979 120.99299961872073 l 0.9804837961499072 37.9634455758476 a58.97610496700333,58.97610496700333 0 0,0 -1.0150638889617263,0.01747524538780205 l -0.32686021729551307 -37.97469829851456" fill="red" stroke="none" /><path d="M 99.81925306533755 120.99922214144158 l -0.5422408039873445 62.99766642432473 a84.0,84.0 0 0,0 -1.4457612404293283,-0.02489009088336136 l 1.6265617343093406 -62.97899885616221" fill="red" stroke="none" /><path d="M 97.65516085044442 120.86867818915974 l -4.214345793208249 37.50697618340722 a58.74299899169922,58.74299899169922 0 0,0 -1.0038691155162256,-0.1215545696319843 l 4.8593423317758635 -37.428876085049886" fill="red" stroke="none" /><line stroke="#e1ed5e" stroke-width="0.3" x1="58.666819895761336" x2="56.23545636021788" y1="174.27360380694188" y2="178.64263932499728" /><path d="M 58.180547188652646 175.14741091055294 a86.0,86.0 0 0,1 -31.652253787137756,-30.449443065178592" fill="none" id="id164" stroke="none" /><text fill="#e1ed5e" style="font-size:6.75px; font-family:Arial;" text-anchor="middle"><textPath startOffset="22.20632615414155" xlink:href="#id164">August</textPath></text><line stroke="#e1ed5e" stroke-width="0.3" x1="26.63291911575756" x2="22.317208475507996" y1="142.92168965132927" y2="145.44649492493687" /><path d="M 25.769776987707644 143.4266507060508 a86.0,86.0 0 0,1 -11.730757126820373,-40.83630448921669" fill="none" id="id165" stroke="none" /><text fill="#e1ed5e" style="font-size:6.75px; font-family:Arial;" text-anchor="middle"><textPath startOffset="21.46611528233685" xlink:href="#id165">September</textPath></text><line stroke="#e1ed5e" stroke-width="0.3" x1="15.007084014347285" x2="10.007500721073583" y1="101.09737516637583" y2="101.16192664675087" /><path d="M 14.007167355692545 101.11028546245083 a86.0,86.0 0 0,1 10.666146001902534,-42.60595125391555" fill="none" id="id166" stroke="none" /><text fill="#e1ed5e" style="font-size:6.75px; font-family:Arial;" text-anchor="middle"><textPath startOffset="22.20632615414155" xlink:href="#id166">October</textPath></text><line stroke="#e1ed5e" stroke-width="0.3" x1="26.266209847984243" x2="21.928928074336255" y1="57.711370442889674" y2="55.22380399835377" /><path d="M 25.398753493254645 57.213857153982495 a86.0,86.0 0 0,1 29.58750427330803,-30.492523968695096" fill="none" id="id167" stroke="none" /><text fill="#e1ed5e" style="font-size:6.75px; font-family:Arial;" text-anchor="middle"><textPath startOffset="21.46611528233685" xlink:href="#id167">November</textPath></text><line stroke="#e1ed5e" stroke-width="0.3" x1="56.762969772571076" x2="54.21961505331055" y1="26.818313649435495" y2="22.513508569990535" /><path d="M 56.25429882871897 25.957352633546506 a86.0,86.0 0 0,1 42.265352541879196,-11.944610805530505" fill="none" id="id168" stroke="none" /><text fill="#e1ed5e" style="font-size:6.75px; font-family:Arial;" text-anchor="middle"><textPath startOffset="22.20632615414155" xlink:href="#id168">December</textPath></text></svg>