<?xml version="1.0" encoding="utf-8" ?>
<svg baseProfile="full" height="200mm" version="1.1" viewBox="0,0,200,200" width="200mm" xmlns="http://www.w3.org/2000/svg" xmlns:ev="http://www.w3.org/2001/xml-events" xmlns:xlink="http://www.w3.org/1999/xlink"><defs /><rect fill="#1a1a1a" height="200" width="200" x="0" y="0" /><rect fill="#1a1a1a" height="200" width="180" x="10" y="0" /><text alignment-baseline="middle" fill="#e1ed5e" style="dominant-baseline: central; font-size:9.0px; font-family:Arial;" text-anchor="middle" x="100.0" y="100.0">2025</text><line stroke="#e1ed5e" stroke-width="0.3" x1="100.0" x2="100.0" y1="15.0" y2="10.0" /><path d="M 100.0 14.0 a86.0,86.0 0 0,1 42.46469731375804,11.215312516191453" fill="none" id="id145" stroke="none" /><text fill="#e1ed5e" style="font-size:6.75px; font-family:Arial;" text-anchor="middle"><textPath startOffset="22.20632615414155" xlink:href="#id145">January</textPath></text><line stroke="#e1ed5e" stroke-width="0.3" x1="143.23703022742887" x2="145.7803849466894" y1="26.81831364943548" y2="22.513508569990506" /><path d="M 143.74570117128098 25.957352633546492 a86.0,86.0 0 0,1 28.547481713284135,27.462654790039103" fill="none" id="id146" stroke="none" /><text fill="#e1ed5e" style="font-size:6.75px; font-family:Arial;" text-anchor="middle"><textPath startOffset="19.985693538727396" xlink:href="#id146">February</textPath></text><line stroke="#e1ed5e" stroke-width="0.3" x1="172.23445277983987" x2="176.4835382374775" y1="55.19839476539836" y2="52.563006222186495" /><path d="M 173.08426987136738 54.67131705675599 a86.0,86.0 0 0,1 12.851231095245387,41.99856678651699" fill="none" id="id147" stroke="none" /><text fill="#e1ed5e" style="font-size:6.75px; font-family:Arial;" text-anchor="middle"><textPath startOffset="22.20632615414155" xlink:href="#id147">March</textPath></text><line stroke="#e1ed5e" stroke-width="0.3" x1="184.98032266829074" x2="189.97916517819016" y1="98.17113171792111" y2="98.06355123074" /><path d="M 185.9800911702706 98.14961562048488 a86.0,86.0 0 0,1 -9.607161424134198,41.387399972396054" fill="none" id="id148" stroke="none" /><text fill="#e1ed5e" style="font-size:6.75px; font-family:Arial;" text-anchor="middle"><textPath startOffset="21.466115282336823" xlink:href="#id148">April</textPath></text><path d="M 120.9904718944345 100.63252640178507 l 28.80000475334767 0.8678586870101759 a49.81307780320366,49.81307780320366 0 0,0 -0.03320365930294875,0.8568389094656537 l -28.78079896119352 -1.3634748434898358" fill="#a1ff22" stroke="none" /><line stroke="#e1ed5e" stroke-width="0.3" x1="174.80103733775053" x2="179.2010983576182" y1="140.37084112569926" y2="142.7455964860345" /><path d="M 175.68104954172406 140.8457921977663 a86.0,86.0 0 0,1 -30.038265399797805,32.042727171017184" fill="none" id="id149" stroke="none" /><text fill="#e1ed5e" style="font-size:6.75px; font-family:Arial;" text-anchor="middle"><textPath startOffset="22.206326154141568" xlink:href="#id149">May</textPath></text><path d="M 118.30583269289576 110.29060199501025 l 54.91749807868728 30.871805985030733 a84.0,84.0 0 0,0 -0.7193920153904818,1.2543206165667395 l -54.37795406714442 -31.812546447455787" fill="#4dd2ff" stroke="none" /><path d="M 116.93607887273984 112.41649034213515 l 3.7377854097953964 2.7403141418052543 a25.634691075514873,25.634691075514873 0 0,0 -0.26396252984914115,0.35362094487305545 l -3.690061613251163 -2.8042479661876247" fill="#ff2403" stroke="none" /><path d="M 116.498646956653 112.99209946851258 l 5.335497385377241 4.20151500465056 a27.791189931350115,27.791189931350115 0 0,0 -0.299194773626655,0.37329148339877355 l -5.262384699695732 -4.2927343216275835" fill="#ff4306" stroke="none" /><path d="M 116.0416608686014 113.55231037782055 l 5.181026445458145 4.377032966828134 a27.782437070938215,27.782437070938215 0 0,0 -0.31176854276881255,0.36265724963085166 l -5.104915393118554 -4.465567315620513" fill="#ff4306" stroke="none" /><path d="M 115.56566222782051 114.09645910891815 l 5.031184331851997 4.556303687267651 a27.787688787185356,27.787688787185356 0 0,0 -0.32412829437705015,0.35177724743067834 l -4.9520096294792255 -4.642232189499664" fill="#ff4306" stroke="none" /><path d="M 115.07121518719521 114.62390073753431 l 6.508015782027384 6.314857535544691 a30.068169336384443,30.068169336384443 0 0,0 -0.36362349954250023,0.36834868525638037 l -6.398351657429347 -6.425946714781737" fill="#ff6309" stroke="none" /><path d="M 114.0293411484842 115.62618273729858 l 4.523877773411186 5.038792628987028 a27.77162471395881,27.77162471395881 0 0,0 -0.3584624405203302,0.31630142604589173 l -4.436472979984269 -5.115917196805208" fill="#ff4306" stroke="none" /><path d="M 113.20401910651253 116.32954008644616 l 4.264867956256851 5.274404080553492 a27.782951945080093,27.782951945080093 0 0,0 -0.3744645894404198,0.2974973172035158 l -4.17344587409908 -5.347035311762134" fill="#ff4306" stroke="none" /><path d="M 112.63410532772338 116.77436683061366 l 4.080849061993133 5.418164355178257 a27.783054919908466,27.783054919908466 0 0,0 -0.38448444416246913,0.28443240006652065 l -3.9869796474120993 -5.487606703984546" fill="#ff4306" stroke="none" /><path d="M 112.04921762599082 117.19931262002967 l 6.500669107953651 9.279195023076882 a32.329702517162474,32.329702517162474 0 0,0 -0.4585323484250992,0.3153827303679635 l -6.339979874905668 -9.38971854280994" fill="#ff820c" stroke="none" /><path d="M 111.1453310114006 117.79835938074945 l 3.5957082211494584 5.742109147128057 a27.775022883295193,27.775022883295193 0 0,0 -0.4073945128767152,0.25025498398215074 l -3.4963345083404347 -5.8031525979385865" fill="#ff4306" stroke="none" /><line stroke="#e1ed5e" stroke-width="0.3" x1="143.8653032363475" x2="146.44561519142675" y1="172.8068346515853" y2="177.08958963109032" /><path d="M 144.38136562736335 173.6633856474863 a86.0,86.0 0 0,1 -40.68145358897372,12.25698825130547" fill="none" id="id150" stroke="none" /><text fill="#e1ed5e" style="font-size:6.75px; font-family:Arial;" text-anchor="middle"><textPath startOffset="21.466115282336833" xlink:href="#id150">June</textPath></text><path d="M 110.5260780823613 118.17145234162733 l 3.4080543492423243 5.883416092904392 a27.799221967963387,27.799221967963387 0 0,0 -0.4161295097266944,0.2362891959358992 l -3.306276072594431 -5.94120845463492" fill="#ff4306" stroke="none" /><path d="M 108.92500713936063 119.00905698771935 l 2.862800344953266 6.097377184347858 a27.73599542334096,27.73599542334096 0 0,0 -0.4339124840864708,0.19918793938070264 l -2.7574198650993753 -6.145752194062635" fill="#ff4206" stroke="none" /><path d="M 107.59598834532513 119.57807347666477 l 2.426407986823381 6.253879243986794 a27.70808924485126,27.70808924485126 0 0,0 -0.44613952854838856,0.16869179505504162 l -2.318398237514718 -6.294719289148467" fill="#ff4206" stroke="none" /><path d="M 106.57524785965236 119.94407469862006 l 2.104380241764256 6.383016675855841 a27.72096109839817,27.72096109839817 0 0,0 -0.4544635809401376,0.145504887130164 l -1.9941953157331782 -6.4182944096457115" fill="#ff4206" stroke="none" /><path d="M 102.70371172650421 120.8252237178851 l 0.872881708211722 6.723333954046271 a27.779759725400456,27.779759725400456 0 0,0 -0.4747330456984734,0.05748356052400321 l -0.7570212394618683 -6.737363043295625" fill="#ff4306" stroke="none" /><line stroke="#e1ed5e" stroke-width="0.3" x1="102.19456741930631" x2="102.32365962044197" y1="184.97166512339345" y2="189.96999836594603" /><path d="M 102.22038585953345 185.97133177190398 a86.0,86.0 0 0,1 -42.740103519485714,-10.115201625700543" fill="none" id="id151" stroke="none" /><text fill="#e1ed5e" style="font-size:6.75px; font-family:Arial;" text-anchor="middle"><textPath startOffset="22.20632615414155" xlink:href="#id151">July</textPath></text><line stroke="#e1ed5e" stroke-width="0.3" x1="58.666819895761336" x2="56.23545636021788" y1="174.27360380694188" y2="178.64263932499728" /><path d="M 58.180547188652646 175.14741091055294 a86.0,86.0 0 0,1 -31.652253787137756,-30.449443065178592" fill="none" id="id152" stroke="none" /><text fill="#e1ed5e" style="font-size:6.75px; font-family:Arial;" text-anchor="middle"><textPath startOffset="22.20632615414155" xlink:href="#id152">August</textPath></text><line stroke="#e1ed5e" stroke-width="0.3" x1="26.63291911575756" x2="22.317208475507996" y1="142.92168965132927" y2="145.44649492493687" /><path d="M 25.769776987707644 143.4266507060508 a86.0,86.0 0 0,1 -11.730757126820373,-40.83630448921669" fill="none" id="id153" stroke="none" /><text fill="#e1ed5e" style="font-size:6.75px; font-family:Arial;" text-anchor="middle"><textPath startOffset="21.46611528233685" xlink:href="#id153">September</textPath></text><path d="M 79.58551787078972 104.9243191809786 l -2.152630060672793 0.5192508646670345 a23.214370709382152,23.214370709382152 0 0,0 -0.09035854876491399,-0.3892622631763175 l 2.161249175368262 -0.48211994414214276" fill="#ff0000" stroke="none" /><path d="M 79.35854240842038 103.8639653848113 l -4.40059816137189 0.8237673571531907 a25.47703661327231,25.47703661327231 0 0,0 -0.07698136246508928,-0.4317523627403336 l 4.414125966176168 -0.7478962436796435" fill="#ff2103" stroke="none" /><path d="M 79.1416061653843 102.43462659150553 l -6.766261126520922 0.7897693079492822 a27.81219679633867,27.81219679633867 0 0,0 -0.05140978427779454,-0.4759907535746857 l 6.778853212299769 -0.6731822324898145" fill="#ff4306" stroke="none" /><path d="M 79.0235259727143 100.99374915477108 l -6.795513565315416 0.3219337936863652 a27.803135011441647,27.803135011441647 0 0,0 -0.01853259953382315,-0.47824404621307065 l 6.80004829770044 -0.2049125004592978" fill="#ff4306" stroke="none" /><line stroke="#e1ed5e" stroke-width="0.3" x1="15.007084014347285" x2="10.007500721073583" y1="101.09737516637583" y2="101.16192664675087" /><path d="M 14.007167355692545 101.11028546245083 a86.0,86.0 0 0,1 10.666146001902534,-42.60595125391555" fill="none" id="id154" stroke="none" /><text fill="#e1ed5e" style="font-size:6.75px; font-family:Arial;" text-anchor="middle"><textPath startOffset="22.20632615414155" xlink:href="#id154">October</textPath></text><path d="M 79.21141760316559 97.0276538004421 l -6.742085899693842 -0.9639817193162477 a27.81065217391304,27.81065217391304 0 0,0 0.07183638000210668,-0.4733119891386341 l 6.724493626252433 1.0798928208469738" fill="#ff4306" stroke="none" /><path d="M 79.32604984820605 96.31383870115002 l -15.215223061943266 -2.712871318374456 a36.455183066361556,36.455183066361556 0 0,0 0.11546619578059572,-0.6168250349330215 l 15.16627114225281 2.9743744307700504" fill="#ffba11" stroke="none" /><path d="M 79.62865764111835 94.90015583598534 l -6.601973134231025 -1.6527646321210805 a27.80570938215103,27.80570938215103 0 0,0 0.12023144794512015,-0.4633008144268637 l 6.572545354415596 1.766161872096808" fill="#ff4306" stroke="none" /><path d="M 80.02781315780177 93.51064311812611 l -6.474083279128911 -2.1035571724411026 a27.80725400457666,27.80725400457666 0 0,0 0.15183119033049902,-0.45395593364951653 l 6.43691479502664 2.214686209012941" fill="#ff4306" stroke="none" /><path d="M 80.52162464483688 92.15188598940014 l -6.323754211415366 -2.547930364892751 a27.817757437070938,27.817757437070938 0 0,0 0.1827736783702819,-0.44260095965175816 l 6.2789588461588846 2.6564058949978206" fill="#ff4306" stroke="none" /><line stroke="#e1ed5e" stroke-width="0.3" x1="26.266209847984243" x2="21.928928074336255" y1="57.711370442889674" y2="55.22380399835377" /><path d="M 25.398753493254645 57.213857153982495 a86.0,86.0 0 0,1 29.58750427330803,-30.492523968695096" fill="none" id="id155" stroke="none" /><text fill="#e1ed5e" style="font-size:6.75px; font-family:Arial;" text-anchor="middle"><textPath startOffset="21.46611528233685" xlink:href="#id155">November</textPath></text><path d="M 82.15384107792192 88.93136811851018 l -3.05522857034903 -1.89492879149291 a24.595160183066362,24.595160183066362 0 0,0 0.22624315301326275,-0.3578623356562663 l 3.0221578210898046 1.947238774863392" fill="#ff1402" stroke="none" /><path d="M 82.54541684631803 88.32363383020206 l -5.181426389135005 -3.4661516272665613 a27.233890160183066,27.233890160183066 0 0,0 0.2640073210132429,-0.3873981667945837 l 5.120994602453021 3.554827817331561" fill="#ff3b05" stroke="none" /><path d="M 83.6137871275137 86.86637796730984 l -4.91385509096224 -3.938476571146617 a27.29742562929062,27.29742562929062 0 0,0 0.29702394851073505,-0.36411624036716 l 4.845332650375113 4.0224769811218595" fill="#ff3c05" stroke="none" /><path d="M 84.07557802195018 86.31012108654704 l -4.711734008608331 -4.050575156772237 a27.21350114416476,27.21350114416476 0 0,0 0.30843022346880367,-0.35258906298003045 l 4.641311921561684 4.131079775955211" fill="#ff3b05" stroke="none" /><path d="M 84.5562425177563 85.77008943001954 l -4.587689579638721 -4.227106811030155 a27.238215102974827,27.238215102974827 0 0,0 0.32067508879301143,-0.34207382630041205 l 4.514247168875254 4.305450054208617" fill="#ff3b05" stroke="none" /><path d="M 85.05521093208273 85.24692304244772 l -4.41330515873087 -4.3566911749656985 a27.20145308924485,27.20145308924485 0 0,0 0.3318113554710844,-0.3303864520613901 l 4.337658003092472 4.432013477677198" fill="#ff3a05" stroke="none" /><line stroke="#e1ed5e" stroke-width="0.3" x1="56.762969772571076" x2="54.21961505331055" y1="26.818313649435495" y2="22.513508569990535" /><path d="M 56.25429882871897 25.957352633546506 a86.0,86.0 0 0,1 42.265352541879196,-11.944610805530505" fill="none" id="id156" stroke="none" /><text fill="#e1ed5e" style="font-size:6.75px; font-family:Arial;" text-anchor="middle"><textPath startOffset="22.20632615414155" xlink:href="#id156">December</textPath></text></svg>