<?xml version="1.0" encoding="utf-8" ?>
<svg baseProfile="full" height="200mm" version="1.1" viewBox="0,0,200,200" width="200mm" xmlns="http://www.w3.org/2000/svg" xmlns:ev="http://www.w3.org/2001/xml-events" xmlns:xlink="http://www.w3.org/1999/xlink"><defs /><rect fill="#1a1a1a" height="200" width="200" x="0" y="0" /><rect fill="#1a1a1a" height="200" width="180" x="10" y="0" /><text alignment-baseline="middle" fill="#e1ed5e" style="dominant-baseline: central; font-size:9.0px; font-family:Arial;" text-anchor="middle" x="100.0" y="100.0">2015</text><line stroke="#e1ed5e" stroke-width="0.3" x1="100.0" x2="100.0" y1="15.0" y2="10.0" /><path d="M 100.0 14.0 a86.0,86.0 0 0,1 42.46469731375804,11.215312516191453" fill="none" id="id25" stroke="none" /><text fill="#e1ed5e" style="font-size:6.75px; font-family:Arial;" text-anchor="middle"><textPath startOffset="22.20632615414155" xlink:href="#id25">January</textPath></text><line stroke="#e1ed5e" stroke-width="0.3" x1="143.23703022742887" x2="145.7803849466894" y1="26.81831364943548" y2="22.513508569990506" /><path d="M 143.74570117128098 25.957352633546492 a86.0,86.0 0 0,1 28.547481713284135,27.462654790039103" fill="none" id="id26" stroke="none" /><text fill="#e1ed5e" style="font-size:6.75px; font-family:Arial;" text-anchor="middle"><textPath startOffset="19.985693538727396" xlink:href="#id26">February</textPath></text><line stroke="#e1ed5e" stroke-width="0.3" x1="172.23445277983987" x2="176.4835382374775" y1="55.19839476539836" y2="52.563006222186495" /><path d="M 173.08426987136738 54.67131705675599 a86.0,86.0 0 0,1 12.851231095245387,41.99856678651699" fill="none" id="id27" stroke="none" /><text fill="#e1ed5e" style="font-size:6.75px; font-family:Arial;" text-anchor="middle"><textPath startOffset="22.20632615414155" xlink:href="#id27">March</textPath></text><line stroke="#e1ed5e" stroke-width="0.3" x1="184.98032266829074" x2="189.97916517819016" y1="98.17113171792111" y2="98.06355123074" /><path d="M 185.9800911702706 98.14961562048488 a86.0,86.0 0 0,1 -9.607161424134198,41.387399972396054" fill="none" id="id28" stroke="none" /><text fill="#e1ed5e" style="font-size:6.75px; font-family:Arial;" text-anchor="middle"><textPath startOffset="21.466115282336823" xlink:href="#id28">April</textPath></text><line stroke="#e1ed5e" stroke-width="0.3" x1="174.80103733775053" x2="179.2010983576182" y1="140.37084112569926" y2="142.7455964860345" /><path d="M 175.68104954172406 140.8457921977663 a86.0,86.0 0 0,1 -30.038265399797805,32.042727171017184" fill="none" id="id29" stroke="none" /><text fill="#e1ed5e" style="font-size:6.75px; font-family:Arial;" text-anchor="middle"><textPath startOffset="22.206326154141568" xlink:href="#id29">May</textPath></text><line stroke="#e1ed5e" stroke-width="0.3" x1="143.8653032363475" x2="146.44561519142675" y1="172.8068346515853" y2="177.08958963109032" /><path d="M 144.38136562736335 173.6633856474863 a86.0,86.0 0 0,1 -40.68145358897372,12.25698825130547" fill="none" id="id30" stroke="none" /><text fill="#e1ed5e" style="font-size:6.75px; font-family:Arial;" text-anchor="middle"><textPath startOffset="21.466115282336833" xlink:href="#id30">June</textPath></text><line stroke="#e1ed5e" stroke-width="0.3" x1="102.19456741930631" x2="102.32365962044197" y1="184.97166512339345" y2="189.96999836594603" /><path d="M 102.22038585953345 185.97133177190398 a86.0,86.0 0 0,1 -42.740103519485714,-10.115201625700543" fill="none" id="id31" stroke="none" /><text fill="#e1ed5e" style="font-size:6.75px; font-family:Arial;" text-anchor="middle"><textPath startOffset="22.20632615414155" xlink:href="#id31">July</textPath></text><path d="M 94.11515582081647 120.15858648285463 l -2.0752242391178437 7.108699231757271 a28.40541426324069,28.40541426324069 0 0,0 -0.4681821303761709,-0.14105943532576254 l 2.1972813439342604 -7.071924427325783" fill="#ff2503" stroke="none" /><path d="M 93.76903079525671 120.05430185196036 l -2.126039926983631 6.8426347561777225 a28.16531200839014,28.16531200839014 0 0,0 -0.46174836825440674,-0.14783724598219178 l 2.2435096403289787 -6.805024663535824" fill="#ff2103" stroke="none" /><path d="M 93.42475214034765 119.94407469862007 l -2.977739083792481 9.03209308421382 a30.510291033036182,30.510291033036182 0 0,0 -0.4973617179762972,-0.1687320985450382 l 3.132770534706004 -8.97949799877066" fill="#ff4406" stroke="none" /><path d="M 92.06813273071674 119.44442032107085 l -2.697593951669912 6.612963741208448 a28.142009701101205,28.142009701101205 0 0,0 -0.4469601629722163,-0.1868293843719296 l 2.811025574139591 -6.565549313816545" fill="#ff2003" stroke="none" /><path d="M 91.07499286063937 119.00905698771935 l -3.0413738605142933 6.477714598177659 a28.156168065023596,28.156168065023596 0 0,0 -0.43693992809749177,-0.2097577182825016 l 3.1524264566120275 -6.424402603395595" fill="#ff2103" stroke="none" /><path d="M 90.42595943632237 118.69057910512821 l -3.4498712912098184 6.73488814278634 a28.567055584687992,28.567055584687992 0 0,0 -0.4357279900860402,-0.2279522906364162 l 3.5652901838223543 -6.674506433205207" fill="#ff2703" stroke="none" /><path d="M 90.10565033884886 118.52300852407294 l -3.574949015496777 6.692588533349735 a28.587555715783953,28.587555715783953 0 0,0 -0.43204943088686115,-0.23558779809309294 l 3.6896212582522785 -6.630060083496876" fill="#ff2703" stroke="none" /><line stroke="#e1ed5e" stroke-width="0.3" x1="58.666819895761336" x2="56.23545636021788" y1="174.27360380694188" y2="178.64263932499728" /><path d="M 58.180547188652646 175.14741091055294 a86.0,86.0 0 0,1 -31.652253787137756,-30.449443065178592" fill="none" id="id32" stroke="none" /><text fill="#e1ed5e" style="font-size:6.75px; font-family:Arial;" text-anchor="middle"><textPath startOffset="22.20632615414155" xlink:href="#id32">August</textPath></text><path d="M 89.4739219176387 118.17145234162733 l -4.44634442481495 7.675844239211683 a29.870657446250654,29.870657446250654 0 0,0 -0.4427003957513572,-0.2615551970352815 l 4.57781269159469 -7.5981704698826515" fill="#ff3b05" stroke="none" /><path d="M 88.8546689885994 117.79835938074946 l -6.898020821140865 11.015684815908314 a33.99723059779759,33.99723059779759 0 0,0 -0.49331308776933697,-0.31485575291530976 l 7.086615710957126 -10.8953146341692" fill="#ff780b" stroke="none" /><path d="M 88.54995079064634 117.60387380957326 l -4.034434359894584 6.202739574828406 a28.399367461982173,28.399367461982173 0 0,0 -0.40749752171791925,-0.27006713723393627 l 4.140606580352466 -6.132374416503152" fill="#ff2403" stroke="none" /><path d="M 88.24862548938628 117.40417183066458 l -8.284761945519964 12.270004699939582 a35.80507669113791,35.80507669113791 0 0,0 -0.5078235994288024,-0.34928570226993 l 8.494742429571657 -12.12557820830455" fill="#ff920d" stroke="none" /><path d="M 87.95078237400918 117.19931262002967 l -8.885863608129013 12.683872998151475 a36.48674292081804,36.48674292081804 0 0,0 -0.5112881589238015,-0.3647905258495504 l 9.1028790949017 -12.529038210457706" fill="#ff9b0e" stroke="none" /><path d="M 87.65650970185807 116.9893568818739 l -8.75647261854082 12.052250599260464 a35.89740102254851,35.89740102254851 0 0,0 -0.49677734571736165,-0.3675040040927074 l 8.962634934676746 -11.89973664642799" fill="#ff930d" stroke="none" /><path d="M 87.36589467227662 116.77436683061367 l -5.709109102987852 7.580013612785896 a30.489495936025172,30.489495936025172 0 0,0 -0.4165028793695338,-0.31935664730666297 l 5.838740710850872 -7.480617623651867" fill="#ff4406" stroke="none" /><path d="M 86.79598089348748 116.32954008644616 l -5.570770121858144 6.889426112113967 a29.859891190351334,29.859891190351334 0 0,0 -0.3968946471253499,-0.3266172741341509 l 5.688534897528182 -6.792513719122636" fill="#ff3b05" stroke="none" /><path d="M 86.51685102203217 116.09983520530335 l -9.48512107759768 11.325906618788101 a35.77307288935501,35.77307288935501 0 0,0 -0.4686860647993765,-0.3994244323490628 l 9.678672618974113 -11.160957796216087" fill="#ff910d" stroke="none" /><path d="M 86.24171649860922 115.8653595955263 l -9.769306303550001 11.265471996488134 a35.91141190351337,35.91141190351337 0 0,0 -0.4635268006842234,-0.40900850826683605 l 9.961775457140813 -11.09564034644901" fill="#ff930d" stroke="none" /><path d="M 85.70375840098266 115.38237550388516 l -21.094760977672067 22.697401430706044 a51.98646434189827,51.98646434189827 0 0,0 -0.6502372037779169,-0.6148398619319181 l 21.482334015840802 -22.330926932028195" fill="#9aff22" stroke="none" /><path d="M 85.18274418774928 114.88116024355367 l -10.415937546385198 10.460859802828816 a35.762159150498164,35.762159150498164 0 0,0 -0.4324826468821455,-0.43810263796390525 l 10.594460818322876 -10.280016670884248" fill="#ff910d" stroke="none" /><path d="M 84.19399662182784 113.82643327865904 l -11.219661908958502 9.814492827931195 a35.906544965915046,35.906544965915046 0 0,0 -0.40293553698340606,-0.4687050602449325 l 11.386939955512686 -9.619910668524732" fill="#ff930d" stroke="none" /><path d="M 83.95833913139862 113.55231037782056 l -12.451582170343501 10.51934133564215 a37.30025891452543,37.30025891452543 0 0,0 -0.41013233277955713,-0.4940308154198727 l 12.630810503016594 -10.303449263108515" fill="#ffa70f" stroke="none" /><path d="M 83.06392112726016 112.41649034213515 l -13.227545121151849 9.697621715218718 a37.401579706345046,37.401579706345046 0 0,0 -0.3761890205264032,-0.5224936470896345 l 13.39251393405386 -9.468494462677944" fill="#ffa80f" stroke="none" /><path d="M 82.85270091963577 112.12312394758628 l -13.247160419815899 9.365729667997137 a37.22356777661248,37.22356777661248 0 0,0 -0.3653920235076058,-0.526374462087573 l 13.40641335048564 -9.136313943722552" fill="#ffa60f" stroke="none" /><path d="M 82.05923443525364 110.91462005526583 l -12.606347921314356 7.669321431634324 a35.75596486628212,35.75596486628212 0 0,0 -0.3153661190998839,-0.5285717554366857 l 12.736494916112472 -7.451187582311527" fill="#ff910d" stroke="none" /><line stroke="#e1ed5e" stroke-width="0.3" x1="26.63291911575756" x2="22.317208475507996" y1="142.92168965132927" y2="145.44649492493687" /><path d="M 25.769776987707644 143.4266507060508 a86.0,86.0 0 0,1 -11.730757126820373,-40.83630448921669" fill="none" id="id33" stroke="none" /><text fill="#e1ed5e" style="font-size:6.75px; font-family:Arial;" text-anchor="middle"><textPath startOffset="21.46611528233685" xlink:href="#id33">September</textPath></text><path d="M 81.87401531095188 110.60418214915194 l -12.744769335110067 7.4560283370475675 a35.76555125852124,35.76555125852124 0 0,0 -0.306303000016899,-0.5340650988861769 l 12.871224331279343 -7.235543392303084" fill="#ff910d" stroke="none" /><path d="M 81.51974371655577 109.97397251340807 l -28.57191563636905 15.42053837575066 a53.46763568432092,53.46763568432092 0 0,0 -0.43015347333388554,-0.8136882639787716 l 28.83312161792782 -14.926435096685761" fill="#89ff24" stroke="none" /><path d="M 81.02952815118164 109.00673069616217 l -14.858962432767882 7.05468341129675 a37.44862676979549,37.44862676979549 0 0,0 -0.2714586456597353,-0.5846977726562314 l 14.978195695267443 -6.797865571361692" fill="#ffa90f" stroke="none" /><path d="M 80.87730276802145 108.67885076344099 l -14.922058853722898 6.772387822894216 a37.38697889355008,37.38697889355008 0 0,0 -0.2609235748482492,-0.5883137794707664 l 15.036423513302427 -6.514525706930754" fill="#ffa80f" stroke="none" /><path d="M 80.73074385275274 108.34839909993369 l -13.544432898204379 5.868121247256091 a35.760979286837966,35.760979286837966 0 0,0 -0.23985232591206548,-0.566940047224438 l 13.64343620530875 -5.634106674365493" fill="#ff910d" stroke="none" /><path d="M 80.45479744820244 107.68017299344265 l -13.760496480612202 5.407106586216518 a35.78472404299948,35.78472404299948 0 0,0 -0.22034140580607256,-0.5752418811569288 l 13.851532166011783 -5.169441138226431" fill="#ff910d" stroke="none" /><path d="M 79.67330655649465 105.27499134158121 l -7.8080906663371445 2.026281882672339 a29.06672784478238,29.06672784478238 0 0,0 -0.12151094453507959,-0.4853758216656109 l 7.841812925167282 -1.8915782216093364" fill="#ff2f04" stroke="none" /><path d="M 79.58551787078972 104.9243191809786 l -14.366621068804163 3.4654725624284244 a35.77867724174095,35.77867724174095 0 0,0 -0.13926327759491575,-0.5999425550202977 l 14.424144912329634 -3.2176613500595526" fill="#ff910d" stroke="none" /><path d="M 79.4281124754447 104.21870165774334 l -19.002393053000176 3.896843543310951 a40.39784347142108,40.39784347142108 0 0,0 -0.1338324132354905,-0.6824085917878128 l 19.06665539921133 -3.569171224455183" fill="#ffd113" stroke="none" /><path d="M 79.35854240842038 103.8639653848113 l -8.715290684735985 1.6314536594608335 a29.866675406397484,29.866675406397484 0 0,0 -0.09024508619221797,-0.5061423692892543 l 8.742082213267391 -1.4811925394383656" fill="#ff3b05" stroke="none" /><path d="M 79.23777060512086 103.15116336523772 l -14.596474066491272 2.215362977894577 a35.76363398007341,35.76363398007341 0 0,0 -0.08713715579454581,-0.6094370646764227 l 14.632445273302416 -1.9637804412377537" fill="#ff910d" stroke="none" /><path d="M 79.10278846688536 102.07522291339032 l -14.462129786614522 1.436179322875134 a35.53326560041951,35.53326560041951 0 0,0 -0.05520414932417131,-0.6091731877046682 l 14.48470853221577 -1.1870247466218997" fill="#ff8e0d" stroke="none" /><path d="M 79.07016306316243 101.71520430193888 l -14.718128973744847 1.2061535982550668 a35.76746853696906,35.76746853696906 0 0,0 -0.04500474317199206,-0.6140539641468692 l 14.736710275581173 -0.9526264976114369" fill="#ff910d" stroke="none" /><path d="M 79.04373962182676 101.35467743843564 l -14.734796990515935 0.9525028169516054 a35.76555125852124,35.76555125852124 0 0,0 -0.034426300164464275,-0.6147047157169049 l 14.749009641567932 -0.698726384899263" fill="#ff910d" stroke="none" /><line stroke="#e1ed5e" stroke-width="0.3" x1="15.007084014347285" x2="10.007500721073583" y1="101.09737516637583" y2="101.16192664675087" /><path d="M 14.007167355692545 101.11028546245083 a86.0,86.0 0 0,1 10.666146001902534,-42.60595125391555" fill="none" id="id34" stroke="none" /><text fill="#e1ed5e" style="font-size:6.75px; font-family:Arial;" text-anchor="middle"><textPath startOffset="22.20632615414155" xlink:href="#id34">October</textPath></text><path d="M 79.05617556472873 98.46500227214037 l -5.34637049526116 -0.3918418332757271 a26.360710540115363,26.360710540115363 0 0,0 0.0370625516943681,-0.45225700667227586 l 5.3388334597472955 0.4838127571557813" fill="#ff0500" stroke="none" /><path d="M 79.12142395522702 97.74499172005258 l -11.750650753867458 -1.2691389818883438 a32.8189892501311,32.8189892501311 0 0,0 0.06549677401200021,-0.5611363615289819 l 11.727063626851868 1.4712190817421875" fill="#ff6709" stroke="none" /><path d="M 80.65960295795068 91.81776055985345 l -9.87045363404105 -4.175840591121122 a31.717439040377556,31.717439040377556 0 0,0 0.21705193571908113,-0.5009857933912203 l 9.79711098847929 4.345125529098941" fill="#ff5608" stroke="none" /><path d="M 80.95270993114464 91.15688171328213 l -4.5755713686783475 -2.124308428982401 a26.044654562139485,26.044654562139485 0 0,0 0.1922862040038939,-0.4050037847280506 l 4.538326970832702 2.202754629350984" fill="#ff0000" stroke="none" /><line stroke="#e1ed5e" stroke-width="0.3" x1="26.266209847984243" x2="21.928928074336255" y1="57.711370442889674" y2="55.22380399835377" /><path d="M 25.398753493254645 57.213857153982495 a86.0,86.0 0 0,1 29.58750427330803,-30.492523968695096" fill="none" id="id35" stroke="none" /><text fill="#e1ed5e" style="font-size:6.75px; font-family:Arial;" text-anchor="middle"><textPath startOffset="21.46611528233685" xlink:href="#id35">November</textPath></text><path d="M 82.15384107792192 88.93136811851018 l -6.567352058379625 -4.073235181180601 a28.727959491347665,28.727959491347665 0 0,0 0.26425947570915426,-0.41799502852152415 l 6.496264986424508 4.185677857416341" fill="#ff2904" stroke="none" /><path d="M 82.34701348167596 88.62581576622439 l -9.930424801000337 -6.398378035863116 a32.81323741478762,32.81323741478762 0 0,0 0.31001222418539254,-0.4721698861505227 l 9.818815941457025 6.568365985991306" fill="#ff6609" stroke="none" /><path d="M 82.7489923806493 88.02491185347247 l -12.18455797685491 -8.45812366552096 a35.83250852123754,35.83250852123754 0 0,0 0.35608534900725103,-0.5036574734335609 l 12.03716000804378 8.666607639286307" fill="#ff920d" stroke="none" /><path d="M 83.17141714833178 87.43820079747576 l -15.996506248528265 -11.940690503004335 a40.9616708180388,40.9616708180388 0 0,0 0.42663347316786165,-0.5613996412753072 l 15.788596835136294 12.214274920160669" fill="#ffd914" stroke="none" /><path d="M 85.57189188830299 84.74124197986013 l -5.155597849486462 -5.4524140951432445 a28.50393287886733,28.50393287886733 0 0,0 0.3594103193887933,-0.33403272192025335 l 5.060979646302813 5.540351403138145" fill="#ff2603" stroke="none" /><line stroke="#e1ed5e" stroke-width="0.3" x1="56.762969772571076" x2="54.21961505331055" y1="26.818313649435495" y2="22.513508569990535" /><path d="M 56.25429882871897 25.957352633546506 a86.0,86.0 0 0,1 42.265352541879196,-11.944610805530505" fill="none" id="id36" stroke="none" /><text fill="#e1ed5e" style="font-size:6.75px; font-family:Arial;" text-anchor="middle"><textPath startOffset="22.20632615414155" xlink:href="#id36">December</textPath></text><path d="M 89.94658935756843 81.56283822128135 l -3.560402500650073 -6.529497226024269 a28.437123099108547,28.437123099108547 0 0,0 0.4317770267921481,-0.230640334326985 l 3.4474804273296193 6.5898162868530035" fill="#ff2503" stroke="none" /><path d="M 90.91171255644093 81.06846463323043 l -27.264862330677197 -56.79460610030868 a84.0,84.0 0 0,0 1.3088871548015661,-0.6145400694399696 l 26.28319696457602 57.25551115238866" fill="#4dd2ff" stroke="none" /></svg>